<?xml version="1.0" encoding="UTF-8"?>
<!DOCTYPE svg PUBLIC "-//W3C//DTD SVG 1.1//EN" "http://www.w3.org/Graphics/SVG/1.1/DTD/svg11.dtd">
<!-- Creator: CorelDRAW -->
<svg xmlns="http://www.w3.org/2000/svg" xml:space="preserve" width="50px" height="50px" version="1.1" style="shape-rendering:geometricPrecision; text-rendering:geometricPrecision; image-rendering:optimizeQuality; fill-rule:evenodd; clip-rule:evenodd"
viewBox="0 0 50 50"
 xmlns:xlink="http://www.w3.org/1999/xlink"
 xmlns:xodm="http://www.corel.com/coreldraw/odm/2003">
 <defs>
  <style type="text/css">
   <![CDATA[
    .str0 {stroke:black;stroke-width:2.08;stroke-miterlimit:22.9256}
    .str1 {stroke:black;stroke-width:1.66;stroke-linecap:round;stroke-linejoin:round;stroke-miterlimit:22.9256}
    .str3 {stroke:black;stroke-width:0.83;stroke-linecap:round;stroke-linejoin:round;stroke-miterlimit:22.9256}
    .str2 {stroke:black;stroke-width:2.08;stroke-linecap:round;stroke-linejoin:round;stroke-miterlimit:22.9256}
    .fil0 {fill:none}
    .fil1 {fill:black}
    .fil2 {fill:black;fill-rule:nonzero}
   ]]>
  </style>
 </defs>
 <g id="Layer_x0020_1">
  <metadata id="CorelCorpID_0Corel-Layer"/>
  <g id="_3145218030912">
   <circle class="fil0 str0" cx="36.98" cy="36.98" r="11.98"/>
   <g>
    <path class="fil0 str0" d="M22.6 1.04c11.91,0 21.57,9.65 21.57,21.57 0,1.52 -0.16,3.02 -0.47,4.45 -1.91,-1.3 -4.23,-2.06 -6.72,-2.06 -6.62,0 -11.98,5.36 -11.98,11.98 0,2.49 0.76,4.81 2.06,6.73 -1.44,0.3 -2.93,0.46 -4.46,0.46 -11.91,0 -21.56,-9.66 -21.56,-21.56 0,-11.92 9.65,-21.57 21.56,-21.57z"/>
    <path class="fil1" d="M22.6 20.35c2.76,0 5,2.23 5,4.99 0,2.76 -2.24,4.99 -5,4.99 -2.75,0 -4.99,-2.23 -4.99,-4.99 0,-2.76 2.24,-4.99 4.99,-4.99z"/>
    <path class="fil1" d="M22.6 23.95l21.57 0c0,1.1 -0.1,2.19 -0.28,3.24 -1.95,-1.38 -4.34,-2.19 -6.91,-2.19 -6.62,0 -11.98,5.36 -11.98,11.98 0,2.5 0.77,4.83 2.08,6.75 -1.44,0.29 -2.94,0.44 -4.48,0.44 -11.91,0 -21.56,-9.06 -21.56,-20.22l21.56 0z"/>
    <path class="fil0 str0" d="M6.63 21.84c0,-0.08 0,-0.16 0,-0.23 0,-8.82 7.15,-15.98 15.97,-15.98 8.83,0 15.98,7.16 15.98,15.98"/>
    <line class="fil0 str1" x1="23.04" y1="5.39" x2="23.04" y2= "10.38" />
    <line class="fil0 str2" x1="27.29" y1="14.48" x2="23.79" y2= "21.44" />
    <line class="fil0 str3" x1="15.71" y1="7.54" x2="17.24" y2= "11.23" />
    <line class="fil0 str3" x1="30.61" y1="7.54" x2="29.08" y2= "11.23" />
    <line class="fil0 str3" x1="10.58" y1="11.45" x2="13.4" y2= "14.27" />
    <line class="fil0 str3" x1="35.74" y1="11.45" x2="32.92" y2= "14.27" />
    <line class="fil0 str1" x1="6.79" y1="18.42" x2="11.78" y2= "18.42" />
    <line class="fil0 str1" x1="33.09" y1="18.42" x2="38.08" y2= "18.42" />
   </g>
   <polygon class="fil2" points="34.67,46.2 34.67,39.34 27.74,39.34 27.74,34.62 34.67,34.62 34.67,27.76 39.28,27.76 39.28,34.62 46.22,34.62 46.22,39.34 39.28,39.34 39.28,46.2 "/>
  </g>
 </g>
</svg>
