<?xml version="1.0" encoding="UTF-8"?>
<!DOCTYPE svg PUBLIC "-//W3C//DTD SVG 1.1//EN" "http://www.w3.org/Graphics/SVG/1.1/DTD/svg11.dtd">
<!-- Creator: CorelDRAW -->
<svg xmlns="http://www.w3.org/2000/svg" xml:space="preserve" width="51px" height="51px" version="1.1" style="shape-rendering:geometricPrecision; text-rendering:geometricPrecision; image-rendering:optimizeQuality; fill-rule:evenodd; clip-rule:evenodd"
viewBox="0 0 51 51"
 xmlns:xlink="http://www.w3.org/1999/xlink"
 xmlns:xodm="http://www.corel.com/coreldraw/odm/2003">
 <defs>
  <style type="text/css">
   <![CDATA[
    .str0 {stroke:black;stroke-width:2.09;stroke-miterlimit:22.9256}
    .str3 {stroke:black;stroke-width:0.9;stroke-miterlimit:22.9256}
    .str1 {stroke:black;stroke-width:1.67;stroke-linecap:round;stroke-linejoin:round;stroke-miterlimit:22.9256}
    .str2 {stroke:black;stroke-width:0.84;stroke-linecap:round;stroke-linejoin:round;stroke-miterlimit:22.9256}
    .fil0 {fill:none}
    .fil1 {fill:black;fill-rule:nonzero}
   ]]>
  </style>
 </defs>
 <g id="Layer_x0020_1">
  <metadata id="CorelCorpID_0Corel-Layer"/>
  <g id="_3180702627744">
   <path class="fil0 str0" d="M49.96 27.25c-0.29,4 -1.57,7.88 -3.71,11.27 -7.21,11.45 -22.33,14.87 -33.78,7.66 -11.44,-7.21 -14.87,-22.33 -7.65,-33.78 4.13,-6.56 11.14,-10.78 18.87,-11.36"/>
   <line class="fil0 str1" x1="8.62" y1="42.4" x2="10.74" y2= "40.29" />
   <line class="fil0 str2" x1="19.76" y1="48.14" x2="20.43" y2= "44.11" />
   <line class="fil0 str2" x1="2.66" y1="31.91" x2="7" y2= "30.6" />
   <line class="fil0 str2" x1="29.56" y1="49.07" x2="27.9" y2= "43.17" />
   <line class="fil0 str2" x1="1.3" y1="21.52" x2="7.32" y2= "22.68" />
   <line class="fil0 str1" x1="40.28" y1="45.2" x2="34.83" y2= "39.83" />
   <line class="fil0 str1" x1="11.97" y1="16.82" x2="6.51" y2= "11.45" />
   <path class="fil1 str3" d="M42.79 18.56l-10.47 -10.47 1.92 -1.92 10.47 10.47 -1.92 1.92zm-14.89 14.89l-2.07 0.49 0.19 -2.37 13.71 -13.71 1.88 1.88 -13.71 13.71zm-12.7 -0.98l3.21 3.21 -4.01 0.81 0.8 -4.02zm4.11 -7.61l-2.53 0.18 0.65 -2.06 13.71 -13.71 1.88 1.88 -13.71 13.71zm1.19 1.19l13.71 -13.71 4.34 4.34 -13.72 13.71 -3.95 -0.32 -0.38 -4.02zm-0.11 9.24l-4.8 -4.79 0.84 -4.14 2.78 -0.1 0.52 5.01 4.74 0.4 -0.19 2.69 -3.89 0.93zm15.26 -30.53c2.88,-2.88 7.58,-2.88 10.47,0 2.89,2.9 2.89,7.58 0,10.47 0,0 0,0 0,0l-0.23 0.23 -10.47 -10.47 0.23 -0.23zm11.65 -1.18c-3.54,-3.54 -9.3,-3.54 -12.83,0l-18.81 18.81c-0.12,0.12 -0.2,0.27 -0.23,0.43l-2.92 14.57c-0.06,0.27 0.03,0.56 0.23,0.76 0.19,0.19 0.47,0.28 0.75,0.22l14.57 -2.92c0.17,-0.03 0.31,-0.11 0.43,-0.23l18.81 -18.8 0 0c3.54,-3.55 3.54,-9.29 0,-12.84z"/>
  </g>
 </g>
</svg>
