<?xml version="1.0" encoding="UTF-8"?>
<!DOCTYPE svg PUBLIC "-//W3C//DTD SVG 1.1//EN" "http://www.w3.org/Graphics/SVG/1.1/DTD/svg11.dtd">
<!-- Creator: CorelDRAW -->
<svg xmlns="http://www.w3.org/2000/svg" xml:space="preserve" width="51px" height="51px" version="1.1" style="shape-rendering:geometricPrecision; text-rendering:geometricPrecision; image-rendering:optimizeQuality; fill-rule:evenodd; clip-rule:evenodd"
viewBox="0 0 50.43 50.36"
 xmlns:xlink="http://www.w3.org/1999/xlink"
 xmlns:xodm="http://www.corel.com/coreldraw/odm/2003">
 <defs>
  <style type="text/css">
   <![CDATA[
    .str0 {stroke:black;stroke-width:0.9;stroke-miterlimit:22.9256}
    .fil0 {fill:black;fill-rule:nonzero}
   ]]>
  </style>
 </defs>
 <g id="Layer_x0020_1">
  <metadata id="CorelCorpID_0Corel-Layer"/>
  <g id="_3180702650928">
   <path class="fil0 str0" d="M42.67 18.43l-10.67 -10.68 1.95 -1.95 10.67 10.67 -1.95 1.96zm-15.18 15.18l-2.12 0.5 0.2 -2.42 13.98 -13.98 1.92 1.92 -13.98 13.98zm-12.95 -1l3.27 3.28 -4.09 0.82 0.82 -4.1zm4.19 -7.75l-2.58 0.17 0.66 -2.09 13.98 -13.98 1.92 1.91 -13.98 13.99zm1.21 1.2l13.98 -13.98 4.42 4.43 -13.98 13.98 -4.03 -0.33 -0.39 -4.1zm-0.11 9.42l-4.89 -4.88 0.85 -4.22 2.84 -0.1 0.53 5.11 4.83 0.41 -0.2 2.73 -3.96 0.95zm15.56 -31.12c2.94,-2.94 7.73,-2.94 10.67,0 2.95,2.95 2.95,7.72 0,10.68 0,0 0,0 0,0l-0.23 0.23 -10.68 -10.68 0.24 -0.23zm11.88 -1.21c-3.61,-3.6 -9.48,-3.6 -13.09,0l-19.18 19.18c-0.12,0.12 -0.2,0.28 -0.23,0.44l-2.98 14.86c-0.05,0.28 0.03,0.57 0.23,0.77 0.2,0.19 0.49,0.29 0.77,0.23l14.86 -2.98c0.17,-0.03 0.32,-0.11 0.44,-0.23l19.18 -19.18 0 0c3.61,-3.61 3.61,-9.47 0,-13.09z"/>
   <g>
    <path class="fil0" d="M16.41 4.06l-0.34 -1.96 -0.13 0.03 0.09 -0.03 0.24 -0.07 0.19 -0.05 0.21 -0.05 0.25 -0.07 0.28 -0.07 0.31 -0.07 0.35 -0.08 0.37 -0.08 0.4 -0.09 0.42 -0.08 0.45 -0.09 0.48 -0.09 0.5 -0.08 0.51 -0.09 0.54 -0.08 0.56 -0.07 0.57 -0.07 0.59 -0.07 0.61 -0.05 0.62 -0.05 0.64 -0.05 0.64 -0.03 0.66 -0.02 0.66 -0.01 0.68 0.01 0.68 0.02 0.68 0.03 0.69 0.05 0.69 0.06 -0.21 1.98 -0.65 -0.06 -0.64 -0.04 -0.64 -0.03 -0.64 -0.02 -0.63 0 -0.62 0.01 -0.62 0.01 -0.61 0.03 -0.6 0.04 -0.6 0.05 -0.57 0.05 -0.57 0.07 -0.54 0.06 -0.53 0.08 -0.52 0.07 -0.5 0.08 -0.47 0.08 -0.45 0.09 -0.43 0.08 -0.41 0.08 -0.38 0.08 -0.35 0.08 -0.33 0.08 -0.29 0.07 -0.27 0.06 -0.23 0.06 -0.2 0.06 -0.16 0.04 -0.23 0.06 -0.07 0.02 -0.13 0.03zm0.13 -0.03l-0.06 0.02 -0.07 0.01 0.13 -0.03zm-8.3 10.44l-2.03 -0.21 -0.01 0.06 0.07 -0.95 0.12 -0.91 0.16 -0.87 0.21 -0.81 0.24 -0.78 0.28 -0.73 0.31 -0.68 0.34 -0.65 0.37 -0.6 0.39 -0.56 0.4 -0.52 0.43 -0.48 0.43 -0.45 0.45 -0.41 0.44 -0.37 0.45 -0.34 0.45 -0.31 0.44 -0.27 0.44 -0.25 0.42 -0.22 0.41 -0.2 0.39 -0.17 0.36 -0.15 0.35 -0.12 0.31 -0.11 0.29 -0.09 0.25 -0.07 0.22 -0.06 0.18 -0.04 0.14 -0.03 0.09 -0.01 0.04 -0.01 0.34 1.96 -0.01 0.01 -0.05 0.01 -0.09 0.02 -0.14 0.03 -0.17 0.04 -0.21 0.06 -0.24 0.07 -0.26 0.09 -0.29 0.11 -0.31 0.12 -0.32 0.14 -0.35 0.17 -0.35 0.18 -0.37 0.21 -0.37 0.24 -0.37 0.25 -0.38 0.29 -0.37 0.31 -0.37 0.34 -0.36 0.36 -0.35 0.4 -0.34 0.43 -0.32 0.47 -0.31 0.5 -0.28 0.54 -0.26 0.57 -0.24 0.62 -0.21 0.66 -0.17 0.71 -0.14 0.75 -0.11 0.8 -0.06 0.85 0 0.06zm0 -0.06l0 0.05 0 0.01 0 -0.06zm-2.2 7.11l-1.7 -1.1 -0.01 0.02 0.13 -0.2 0.12 -0.21 0.11 -0.22 0.12 -0.23 0.11 -0.24 0.1 -0.25 0.1 -0.25 0.09 -0.25 0.09 -0.26 0.09 -0.26 0.08 -0.26 0.08 -0.26 0.07 -0.26 0.06 -0.25 0.07 -0.25 0.05 -0.25 0.06 -0.24 0.05 -0.22 0.04 -0.23 0.04 -0.21 0.04 -0.2 0.03 -0.19 0.03 -0.18 0.03 -0.16 0.02 -0.15 0.02 -0.13 0.01 -0.11 0.02 -0.09 0.01 -0.13 0.01 -0.04 2.03 0.21 -0.01 0.06 -0.02 0.14 -0.01 0.11 -0.02 0.13 -0.02 0.14 -0.03 0.16 -0.02 0.18 -0.03 0.18 -0.04 0.21 -0.04 0.22 -0.04 0.23 -0.05 0.24 -0.06 0.25 -0.06 0.26 -0.06 0.27 -0.06 0.27 -0.08 0.28 -0.08 0.29 -0.08 0.28 -0.09 0.29 -0.1 0.3 -0.1 0.29 -0.11 0.29 -0.12 0.3 -0.12 0.28 -0.13 0.29 -0.14 0.28 -0.14 0.28 -0.16 0.27 -0.17 0.27 -0.01 0.01zm0.01 -0.01l-0.01 0.02 0 -0.01 0.01 -0.01zm-5.76 4.85l4.05 -5.94 1.7 1.1 -4.05 5.95 -1.72 -1.08 0.02 -0.03zm-0.02 0.03l0.02 -0.03 -0.03 0.04 0.01 -0.01zm4.7 1.97l-0.45 1.95 0.08 0.01 -0.45 -0.07 -0.43 -0.07 -0.39 -0.08 -0.36 -0.1 -0.34 -0.09 -0.32 -0.1 -0.29 -0.11 -0.27 -0.12 -0.25 -0.12 -0.23 -0.13 -0.21 -0.14 -0.19 -0.15 -0.18 -0.15 -0.15 -0.16 -0.14 -0.17 -0.12 -0.18 -0.09 -0.19 -0.08 -0.17 -0.05 -0.18 -0.04 -0.19 -0.02 -0.17 0 -0.16 0.01 -0.15 0.02 -0.14 0.03 -0.13 0.03 -0.11 0.03 -0.1 0.04 -0.08 0.03 -0.07 0.02 -0.05 0.04 -0.07 0.02 -0.03 1.73 1.05 0.02 -0.02 0.02 -0.04 0 0 0 0 0 0 0 0 0 -0.01 0 0 0 0 0 0 0 0 0 -0.01 0 -0.01 0 0.01 0 0.01 0.01 0.01 0.01 0.02 0.02 0.03 0.04 0.04 0.06 0.05 0.07 0.05 0.1 0.07 0.12 0.07 0.15 0.07 0.17 0.07 0.21 0.08 0.23 0.08 0.27 0.07 0.29 0.07 0.33 0.07 0.37 0.07 0.4 0.06 0.08 0.01zm-0.08 -0.01l0.05 0.01 0.03 0 -0.08 -0.01zm2.45 2.82l-2.04 0 0 -0.05 0 -0.06 0 -0.06 -0.01 -0.05 -0.01 -0.04 -0.01 -0.04 -0.01 -0.04 -0.02 -0.03 -0.01 -0.03 -0.02 -0.03 -0.03 -0.03 -0.03 -0.04 -0.03 -0.03 -0.03 -0.03 -0.03 -0.03 -0.04 -0.03 -0.04 -0.03 -0.05 -0.03 -0.04 -0.03 -0.04 -0.02 -0.05 -0.02 -0.04 -0.02 -0.04 -0.02 -0.04 -0.02 -0.05 -0.01 -0.03 -0.02 -0.03 -0.01 -0.02 0 -0.01 -0.01 -0.04 -0.01 0.02 0.01 0.45 -1.95 0.06 0.02 0.06 0.02 0.07 0.01 0.06 0.03 0.07 0.02 0.08 0.03 0.08 0.03 0.09 0.03 0.09 0.05 0.1 0.04 0.1 0.05 0.1 0.06 0.11 0.07 0.1 0.07 0.11 0.07 0.12 0.09 0.11 0.1 0.11 0.1 0.1 0.11 0.1 0.12 0.11 0.14 0.09 0.14 0.08 0.16 0.08 0.16 0.06 0.17 0.06 0.18 0.04 0.19 0.02 0.19 0.02 0.2 -0.01 0.21 0 -0.05zm-2.04 0l0 -0.03 0 -0.02 0 0.05zm0 7.48l0 -7.48 2.04 0 0 7.48 -0.03 0.26 -2.01 -0.26zm2.04 0l0 0.14 -0.03 0.12 0.03 -0.26zm3.64 4.16l0.37 1.96 -0.19 0.02 -0.61 -0.02 -0.58 -0.05 -0.54 -0.09 -0.51 -0.11 -0.47 -0.14 -0.44 -0.16 -0.41 -0.2 -0.37 -0.22 -0.34 -0.24 -0.3 -0.26 -0.27 -0.27 -0.24 -0.29 -0.2 -0.3 -0.17 -0.31 -0.14 -0.3 -0.12 -0.31 -0.09 -0.3 -0.07 -0.29 -0.05 -0.29 -0.03 -0.27 -0.03 -0.27 0 -0.25 0 -0.23 0.01 -0.23 0.02 -0.2 0.02 -0.19 0.02 -0.15 0.02 -0.14 0.02 -0.12 0.02 -0.09 0.02 -0.06 0 -0.04 1.98 0.51 0 -0.01 0 0.02 -0.01 0.05 -0.02 0.07 -0.01 0.09 -0.02 0.12 -0.01 0.12 -0.01 0.14 -0.01 0.15 0 0.17 0 0.17 0.02 0.17 0.02 0.18 0.03 0.18 0.04 0.18 0.06 0.18 0.06 0.18 0.08 0.17 0.1 0.16 0.11 0.16 0.12 0.16 0.14 0.14 0.17 0.15 0.19 0.13 0.22 0.13 0.25 0.12 0.28 0.11 0.33 0.1 0.36 0.08 0.41 0.06 0.46 0.04 0.5 0.01 -0.19 0.02zm0.37 1.96l-0.09 0.02 -0.1 0 0.19 -0.02zm5.06 -0.91l-5.06 0.91 -0.37 -1.96 5.06 -0.91 1.21 0.98 -0.84 0.98zm-0.37 -1.96l1.21 -0.22 0 1.2 -1.21 -0.98zm-0.84 7.46l0 -6.48 2.05 0 0 6.48 -1.03 1 -1.02 -1zm1.02 1l-1.02 0 0 -1 1.02 1zm22.34 0l-22.34 0 0 -1.99 22.34 0 1.02 0.99 -1.02 1zm1.02 -1l0 1 -1.02 0 1.02 -1zm0 -13.86l0 13.86 -2.04 0 0 -13.86 0.23 -0.63 1.81 0.63zm-2.04 0l0 -0.36 0.23 -0.27 -0.23 0.63zm3.84 -6.08l1.83 0.89 -0.1 0.19 -0.09 0.19 -0.11 0.2 -0.1 0.19 -0.11 0.19 -0.1 0.19 -0.11 0.19 -0.11 0.19 -0.11 0.19 -0.12 0.19 -0.11 0.19 -0.12 0.18 -0.11 0.18 -0.12 0.19 -0.12 0.18 -0.12 0.18 -0.12 0.19 -0.12 0.18 -0.13 0.18 -0.12 0.18 -0.13 0.18 -0.13 0.17 -0.13 0.18 -0.13 0.18 -0.13 0.17 -0.13 0.17 -0.14 0.18 -0.14 0.17 -0.13 0.17 -0.14 0.17 -0.14 0.17 -0.14 0.17 -1.58 -1.26 0.13 -0.16 0.13 -0.16 0.13 -0.16 0.13 -0.16 0.13 -0.16 0.12 -0.16 0.13 -0.17 0.12 -0.16 0.13 -0.17 0.12 -0.16 0.12 -0.17 0.12 -0.17 0.11 -0.16 0.12 -0.17 0.12 -0.17 0.11 -0.17 0.11 -0.17 0.11 -0.17 0.11 -0.17 0.11 -0.18 0.11 -0.17 0.11 -0.18 0.1 -0.17 0.11 -0.17 0.1 -0.18 0.1 -0.18 0.1 -0.18 0.1 -0.18 0.09 -0.17 0.1 -0.18 0.09 -0.18 0.09 -0.19z"/>
   </g>
  </g>
 </g>
</svg>
