<?xml version="1.0" encoding="UTF-8"?>
<!DOCTYPE svg PUBLIC "-//W3C//DTD SVG 1.1//EN" "http://www.w3.org/Graphics/SVG/1.1/DTD/svg11.dtd">
<!-- Creator: CorelDRAW -->
<svg xmlns="http://www.w3.org/2000/svg" xml:space="preserve" width="50px" height="50px" version="1.1" style="shape-rendering:geometricPrecision; text-rendering:geometricPrecision; image-rendering:optimizeQuality; fill-rule:evenodd; clip-rule:evenodd"
viewBox="0 0 50 50"
 xmlns:xlink="http://www.w3.org/1999/xlink"
 xmlns:xodm="http://www.corel.com/coreldraw/odm/2003">
 <defs>
  <style type="text/css">
   <![CDATA[
    .str0 {stroke:black;stroke-width:2.08;stroke-miterlimit:22.9256}
    .str1 {stroke:black;stroke-width:0.9;stroke-miterlimit:22.9256}
    .fil0 {fill:none}
    .fil1 {fill:black;fill-rule:nonzero}
   ]]>
  </style>
 </defs>
 <g id="Layer_x0020_1">
  <metadata id="CorelCorpID_0Corel-Layer"/>
  <g id="_3145217124720">
   <path class="fil0 str0" d="M48.87 27.29c-1.28,12.26 -11.61,21.57 -23.93,21.57 -13.29,0 -24.07,-10.78 -24.07,-24.07 0,-11.58 8.25,-21.52 19.64,-23.65"/>
   <path class="fil1 str1" d="M42.16 17.24l-10.18 -10.18 1.86 -1.86 10.18 10.18 -1.86 1.86zm-14.48 14.48l-2.02 0.48 0.19 -2.31 13.33 -13.33 1.83 1.83 -13.33 13.33zm-12.35 -0.95l3.12 3.12 -3.9 0.78 0.78 -3.9zm4 -7.4l-2.46 0.17 0.63 -2 13.33 -13.33 1.83 1.83 -13.33 13.33zm1.15 1.15l13.33 -13.33 4.22 4.22 -13.33 13.33 -3.85 -0.3 -0.37 -3.92zm-0.11 8.99l-4.66 -4.66 0.82 -4.03 2.7 -0.09 0.5 4.87 4.62 0.39 -0.19 2.61 -3.79 0.91zm14.84 -29.68c2.81,-2.81 7.38,-2.81 10.18,0 2.81,2.81 2.81,7.36 0,10.18 0,0 0,0 0,0l-0.22 0.22 -10.18 -10.18 0.22 -0.22zm11.33 -1.15c-3.44,-3.45 -9.04,-3.44 -12.48,0l-18.29 18.29c-0.11,0.11 -0.19,0.26 -0.22,0.41l-2.84 14.17c-0.05,0.27 0.03,0.55 0.22,0.74 0.19,0.19 0.46,0.27 0.74,0.22l14.17 -2.84c0.16,-0.03 0.3,-0.11 0.41,-0.22l18.29 -18.29 0 0c3.45,-3.45 3.45,-9.03 0,-12.48z"/>
  </g>
 </g>
</svg>
