<svg width="36" height="45" viewBox="0 0 36 45" fill="none" xmlns="http://www.w3.org/2000/svg">
<path d="M9 45C6.525 45 4.40625 44.1188 2.64375 42.3563C0.88125 40.5938 0 38.475 0 36V13.5C0 11.025 0.88125 8.90625 2.64375 7.14375C4.40625 5.38125 6.525 4.5 9 4.5H11.8125V0H15.1875V4.5H20.8125V0H24.1875V4.5H27C29.475 4.5 31.5938 5.38125 33.3563 7.14375C35.1188 8.90625 36 11.025 36 13.5V36C36 38.475 35.1188 40.5938 33.3563 42.3563C31.5938 44.1188 29.475 45 27 45H9ZM9 41.625H27C28.575 41.625 29.9063 41.0812 30.9938 39.9937C32.0813 38.9062 32.625 37.575 32.625 36V13.5C32.625 11.925 32.0813 10.5938 30.9938 9.50625C29.9063 8.41875 28.575 7.875 27 7.875H9C7.425 7.875 6.09375 8.41875 5.00625 9.50625C3.91875 10.5938 3.375 11.925 3.375 13.5V36C3.375 37.575 3.91875 38.9062 5.00625 39.9937C6.09375 41.0812 7.425 41.625 9 41.625ZM9 16.875H27V13.5H9V16.875ZM18 34.5938C19.2375 34.5938 20.2969 34.1531 21.1781 33.2719C22.0594 32.3906 22.5 31.35 22.5 30.15C22.5 29.175 22.2188 28.3313 21.6562 27.6188C21.0938 26.9063 19.875 25.4813 18 23.3438C16.125 25.5187 14.9062 26.9531 14.3438 27.6469C13.7812 28.3406 13.5 29.175 13.5 30.15C13.5 31.35 13.9406 32.3906 14.8219 33.2719C15.7031 34.1531 16.7625 34.5938 18 34.5938Z" fill="white"/>
</svg>
