<svg width="43" height="48" viewBox="0 0 43 48" fill="none" xmlns="http://www.w3.org/2000/svg">
<path d="M6.21901 48C4.49151 48 3.02313 47.3875 1.81388 46.1625C0.604626 44.9375 0 43.45 0 41.7V34.2H7.52204V0L11.0639 3.6L14.6058 0L18.1477 3.6L21.6895 0L25.2314 3.6L28.7851 0L32.3388 3.6L35.8926 0L39.4463 3.6L43 0V41.7C43 43.45 42.3954 44.9375 41.1861 46.1625C39.9769 47.3875 38.5085 48 36.781 48H6.21901ZM36.781 44.4C37.5707 44.4 38.2124 44.15 38.7059 43.65C39.1995 43.15 39.4463 42.5 39.4463 41.7V6H11.0758V34.2H34.1157V41.7C34.1157 42.5 34.3625 43.15 34.8561 43.65C35.3496 44.15 35.9913 44.4 36.781 44.4ZM14.2149 15.48V11.88H28.4298V15.48H14.2149ZM14.2149 23.52V19.92H28.4298V23.52H14.2149ZM33.938 15.48C33.4642 15.48 33.0496 15.3 32.6942 14.94C32.3388 14.58 32.1612 14.16 32.1612 13.68C32.1612 13.2 32.3388 12.78 32.6942 12.42C33.0496 12.06 33.4642 11.88 33.938 11.88C34.4118 11.88 34.8264 12.06 35.1818 12.42C35.5372 12.78 35.7149 13.2 35.7149 13.68C35.7149 14.16 35.5372 14.58 35.1818 14.94C34.8264 15.3 34.4118 15.48 33.938 15.48ZM33.938 23.22C33.4642 23.22 33.0496 23.04 32.6942 22.68C32.3388 22.32 32.1612 21.9 32.1612 21.42C32.1612 20.94 32.3388 20.52 32.6942 20.16C33.0496 19.8 33.4642 19.62 33.938 19.62C34.4118 19.62 34.8264 19.8 35.1818 20.16C35.5372 20.52 35.7149 20.94 35.7149 21.42C35.7149 21.9 35.5372 22.32 35.1818 22.68C34.8264 23.04 34.4118 23.22 33.938 23.22ZM6.15978 44.4H30.562V37.8H3.55372V41.7C3.55372 42.5 3.80347 43.15 4.30296 43.65C4.80246 44.15 5.4214 44.4 6.15978 44.4Z" fill="white"/>
</svg>
