<svg width="56" height="56" viewBox="0 0 56 56" fill="none" xmlns="http://www.w3.org/2000/svg">
<circle cx="28" cy="28" r="28" fill="#F6E5EB"/>
<path d="M26.6724 14.4124L22.2774 21.3824L19.9631 25.0699H26.5875L20.0905 32.8073L21.2795 29.9937L22.6808 26.6473H16.6297L22.7233 14.4124H26.6724ZM30.0695 12.0038H21.5768C21.4796 12.0078 21.3853 12.0375 21.3033 12.0899C21.2212 12.1423 21.1544 12.2156 21.1097 12.3022L13.084 28.2885C13.032 28.3636 13.0041 28.4528 13.0041 28.5443C13.0041 28.6358 13.032 28.725 13.084 28.8001C13.1327 28.8949 13.2109 28.9712 13.3067 29.0173C13.4025 29.0635 13.5107 29.077 13.6148 29.0559H19.0714L13.084 43.2304C13.0437 43.2919 13.017 43.3615 13.0059 43.4343C12.9948 43.5071 12.9994 43.5815 13.0196 43.6524C13.0398 43.7232 13.0749 43.7888 13.1227 43.8448C13.1705 43.9007 13.2297 43.9456 13.2963 43.9764H13.6148C13.7187 44.0079 13.8294 44.0079 13.9333 43.9764L30.9188 23.7271C30.9718 23.6445 31 23.5483 31 23.45C31 23.3517 30.9718 23.2555 30.9188 23.1729C30.918 23.0664 30.8879 22.9622 30.8316 22.8719C30.7754 22.7815 30.6953 22.7087 30.6003 22.6613H24.2307L30.6003 12.8351C30.6417 12.7486 30.6632 12.6539 30.6632 12.558C30.6632 12.462 30.6417 12.3673 30.6003 12.2809C30.5498 12.1865 30.4722 12.1095 30.3775 12.0601C30.2828 12.0107 30.1755 11.991 30.0695 12.0038Z" fill="url(#paint0_linear_731_35)"/>
<path d="M40.3869 21.2369L37.2164 26.0192L34.8111 29.6321H40.1463L37.4787 32.6393L38.6595 29.9662H33.7179L38.3752 21.2369H40.5618M44.0603 19.0023H37.0196C36.9381 19.0018 36.858 19.023 36.7885 19.0636C36.7189 19.1042 36.6627 19.1625 36.626 19.232L30.0663 31.7622C30.0231 31.824 30 31.8967 30 31.971C30 32.0454 30.0231 32.1181 30.0663 32.1799C30.1068 32.2385 30.162 32.2865 30.227 32.3193C30.2919 32.3522 30.3645 32.3689 30.438 32.3678H34.9642L30.0445 43.4779C29.9977 43.5697 29.9898 43.6752 30.0224 43.7724C30.0549 43.8697 30.1255 43.9512 30.2194 44H30.5911L44.9349 27.9614C44.9775 27.8955 45 27.8196 45 27.7421C45 27.6647 44.9775 27.5887 44.9349 27.5228C44.8831 27.4615 44.8157 27.4139 44.7391 27.3847C44.6625 27.3554 44.5793 27.3455 44.4976 27.3558H39.2936L44.432 19.6079C44.4752 19.5461 44.4983 19.4735 44.4983 19.3991C44.4983 19.3248 44.4752 19.2521 44.432 19.1903C44.3971 19.1268 44.343 19.0748 44.2766 19.0413C44.2103 19.0077 44.1348 18.9941 44.0603 19.0023Z" fill="url(#paint1_linear_731_35)"/>
<defs>
<linearGradient id="paint0_linear_731_35" x1="13.084" y1="27.9901" x2="31.1311" y2="27.9901" gradientUnits="userSpaceOnUse">
<stop offset="0.9999" stop-color="#FF0000"/>
<stop offset="1" stop-color="#CE1A4D"/>
</linearGradient>
<linearGradient id="paint1_linear_731_35" x1="30.0007" y1="31.5116" x2="44.9349" y2="31.5116" gradientUnits="userSpaceOnUse">
<stop offset="0.9999" stop-color="#FF0000"/>
<stop offset="1" stop-color="#CE1A4D"/>
</linearGradient>
</defs>
</svg>
