<?xml version="1.0" encoding="UTF-8"?>
<!DOCTYPE svg PUBLIC "-//W3C//DTD SVG 1.1//EN" "http://www.w3.org/Graphics/SVG/1.1/DTD/svg11.dtd">
<!-- Creator: CorelDRAW -->
<svg xmlns="http://www.w3.org/2000/svg" xml:space="preserve" width="50px" height="50px" version="1.1" style="shape-rendering:geometricPrecision; text-rendering:geometricPrecision; image-rendering:optimizeQuality; fill-rule:evenodd; clip-rule:evenodd"
viewBox="0 0 50 50"
 xmlns:xlink="http://www.w3.org/1999/xlink"
 xmlns:xodm="http://www.corel.com/coreldraw/odm/2003">
 <defs>
  <style type="text/css">
   <![CDATA[
    .fil0 {fill:black;fill-rule:nonzero}
   ]]>
  </style>
 </defs>
 <g id="Layer_x0020_1">
  <metadata id="CorelCorpID_0Corel-Layer"/>
  <path class="fil0" d="M40.44 23.53l-13.98 -13.97 2.56 -2.56 13.97 13.98 -2.55 2.55zm-19.88 19.88l-2.77 0.65 0.26 -3.16 18.3 -18.3 2.51 2.51 -18.3 18.3zm-16.95 -1.31l4.29 4.29 -5.36 1.07 1.07 -5.36zm5.49 -10.15l-3.38 0.23 0.87 -2.75 18.3 -18.29 2.51 2.51 -18.3 18.3zm1.58 1.58l18.3 -18.3 5.79 5.79 -18.3 18.3 -5.28 -0.42 -0.51 -5.37zm-0.15 12.33l-6.39 -6.4 1.12 -5.52 3.71 -0.12 0.69 6.68 6.33 0.53 -0.26 3.58 -5.2 1.25zm20.37 -40.74c3.85,-3.85 10.12,-3.85 13.97,0 3.86,3.86 3.86,10.11 0,13.97 0,0 0,0 0,0l-0.3 0.31 -13.98 -13.97 0.31 -0.31zm15.55 -1.58c-4.72,-4.72 -12.41,-4.72 -17.13,0l-25.1 25.11c-0.15,0.15 -0.26,0.35 -0.3,0.57l-3.9 19.44c-0.07,0.37 0.04,0.75 0.3,1.01 0.26,0.26 0.63,0.38 1.01,0.31l19.45 -3.9c0.22,-0.04 0.41,-0.15 0.57,-0.3l25.1 -25.11 0 0c4.73,-4.73 4.73,-12.4 0,-17.13z"/>
 </g>
</svg>
