<?xml version="1.0" encoding="UTF-8"?>
<!DOCTYPE svg PUBLIC "-//W3C//DTD SVG 1.1//EN" "http://www.w3.org/Graphics/SVG/1.1/DTD/svg11.dtd">
<!-- Creator: CorelDRAW -->
<svg xmlns="http://www.w3.org/2000/svg" xml:space="preserve" width="50px" height="50px" version="1.1" style="shape-rendering:geometricPrecision; text-rendering:geometricPrecision; image-rendering:optimizeQuality; fill-rule:evenodd; clip-rule:evenodd"
viewBox="0 0 50 50"
 xmlns:xlink="http://www.w3.org/1999/xlink"
 xmlns:xodm="http://www.corel.com/coreldraw/odm/2003">
 <defs>
  <style type="text/css">
   <![CDATA[
    .str0 {stroke:black;stroke-width:2.08;stroke-miterlimit:22.9256}
    .fil0 {fill:none}
    .fil1 {fill:black}
    .fil2 {fill:black;fill-rule:nonzero}
   ]]>
  </style>
 </defs>
 <g id="Layer_x0020_1">
  <metadata id="CorelCorpID_0Corel-Layer"/>
  <g id="_2198085659024">
   <path class="fil0 str0" d="M22.6 1c11.93,0 21.6,9.67 21.6,21.6 0,1.53 -0.16,3.03 -0.46,4.47 -1.92,-1.31 -4.24,-2.07 -6.74,-2.07 -6.63,0 -12,5.37 -12,12 0,2.5 0.76,4.82 2.07,6.74 -1.44,0.3 -2.94,0.46 -4.47,0.46 -11.93,0 -21.6,-9.67 -21.6,-21.6 0,-11.93 9.67,-21.6 21.6,-21.6z"/>
   <circle class="fil0 str0" cx="37" cy="37" r="12"/>
   <path class="fil1" d="M33.36 25.56l0 -6.93 -21.52 0 0 7.94 19.22 0c0.73,-0.41 1.5,-0.75 2.3,-1.01z"/>
   <path class="fil1" d="M33.8 11.4c-6.18,-6.19 -16.22,-6.19 -22.4,0 -6.19,6.18 -6.19,16.22 0,22.4 3.72,3.72 8.83,5.21 13.66,4.45 0.21,2.02 0.92,3.89 2.01,5.49 -6.91,1.45 -14.38,-0.5 -19.74,-5.87 -8.44,-8.43 -8.44,-22.11 0,-30.54 8.43,-8.44 22.11,-8.44 30.54,0 5.37,5.36 7.32,12.83 5.87,19.74 -1.6,-1.09 -3.47,-1.8 -5.49,-2.01 0.76,-4.83 -0.73,-9.94 -4.45,-13.66z"/>
   <polygon class="fil2" points="41.7,44.83 37.04,40.17 32.34,44.88 29.12,41.65 33.81,36.96 29.15,32.29 32.29,29.15 36.95,33.82 41.66,29.11 44.88,32.33 40.17,37.04 44.84,41.7 "/>
  </g>
 </g>
</svg>
