<?xml version="1.0" encoding="UTF-8"?>
<!DOCTYPE svg PUBLIC "-//W3C//DTD SVG 1.1//EN" "http://www.w3.org/Graphics/SVG/1.1/DTD/svg11.dtd">
<!-- Creator: CorelDRAW -->
<svg xmlns="http://www.w3.org/2000/svg" xml:space="preserve" width="50px" height="50px" version="1.1" style="shape-rendering:geometricPrecision; text-rendering:geometricPrecision; image-rendering:optimizeQuality; fill-rule:evenodd; clip-rule:evenodd"
viewBox="0 0 50 50"
 xmlns:xlink="http://www.w3.org/1999/xlink"
 xmlns:xodm="http://www.corel.com/coreldraw/odm/2003">
 <defs>
  <style type="text/css">
   <![CDATA[
    .str0 {stroke:black;stroke-width:2.08;stroke-miterlimit:22.9256}
    .str1 {stroke:#0A0A0A;stroke-width:0.9;stroke-miterlimit:22.9256}
    .fil0 {fill:none}
    .fil2 {fill:black}
    .fil1 {fill:black;fill-rule:nonzero}
   ]]>
  </style>
 </defs>
 <g id="Layer_x0020_1">
  <metadata id="CorelCorpID_0Corel-Layer"/>
  <g id="_2235003219744">
   <path class="fil0 str0" d="M22.6 1c11.93,0 21.6,9.67 21.6,21.6 0,1.53 -0.16,3.03 -0.46,4.47l-0.03 -0.02 -0.06 -0.04 -0.09 -0.06 -0.09 -0.06 -0.01 0 -0.09 -0.06 -0.09 -0.06 -0.06 -0.03 -0.03 -0.02 -0.1 -0.06 -0.09 -0.06 -0.03 -0.01 -0.07 -0.04 -0.09 -0.05 -0.09 -0.05 -0.01 -0.01 -0.09 -0.05 -0.1 -0.05 -0.06 -0.03 -0.04 -0.02 -0.1 -0.05 -0.1 -0.05 -0.02 -0.01 -0.07 -0.03 -0.1 -0.05 -0.09 -0.04 -0.01 -0.01 -0.1 -0.04 -0.11 -0.04 -0.05 -0.03 -0.05 -0.02 -0.2 -0.08 0 0 -0.02 -0.01 -0.08 -0.03 -0.11 -0.04 -0.09 -0.03 -0.01 -0.01 -0.1 -0.03 -0.11 -0.04 -0.05 -0.02 -0.05 -0.02 -0.11 -0.03 -0.11 -0.04 -0.01 0 -0.09 -0.03 -0.11 -0.03 -0.08 -0.03 -0.03 0 -0.1 -0.03 -0.11 -0.03 -0.05 -0.01 -0.06 -0.02 -0.21 -0.05 -0.01 0 -0.01 0 -0.1 -0.02 -0.11 -0.03 -0.08 -0.02 -0.03 0 -0.11 -0.02 -0.11 -0.02 -0.05 -0.01 -0.06 -0.01 -0.11 -0.02 -0.11 -0.02 -0.01 0 -0.22 -0.03 -0.08 -0.01 -0.03 -0.01 -0.12 -0.01 -0.11 -0.01 -0.04 -0.01 -0.07 0 -0.23 -0.02 -0.01 0 -0.11 -0.01 -0.11 -0.01 -0.08 0 -0.04 -0.01 -0.12 0 -0.11 -0.01 -0.04 0 -0.08 0 -0.23 0c-6.63,0 -12,5.37 -12,12l0 0.23 0 0.08 0 0.04 0.01 0.12 0 0.11 0 0.04 0.01 0.08 0.01 0.11 0 0.11 0 0.01 0.02 0.23 0.01 0.07 0.01 0.04 0.01 0.11 0.01 0.12 0.01 0.03 0.01 0.08 0.03 0.22 0 0.01 0.02 0.11 0.01 0.11 0.02 0.07 0 0.04 0.02 0.11 0.03 0.11 0 0.03 0.02 0.08 0.02 0.11 0.03 0.1 0 0.01 0 0.01 0.05 0.21 0.02 0.06 0.01 0.05 0.03 0.11 0.03 0.11 0 0.02 0.03 0.08 0.03 0.11 0.03 0.09 0 0.02 0.04 0.1 0.03 0.11 0.02 0.05 0.02 0.05 0.03 0.11 0.04 0.1 0.01 0.02 0.03 0.08 0.04 0.11 0.03 0.08 0.01 0.02 0 0 0.08 0.2 0.02 0.05 0.02 0.06 0.05 0.1 0.04 0.1 0.01 0.01 0.04 0.09 0.05 0.1 0.03 0.07 0.01 0.03 0.05 0.09 0.05 0.1 0.02 0.04 0.03 0.06 0.05 0.1 0.05 0.09 0.01 0.01 0.05 0.09 0.05 0.09 0.04 0.07 0.01 0.03 0.06 0.09 0.06 0.1 0.02 0.03 0.03 0.06 0.06 0.09 0.06 0.09 0 0.01 0.06 0.09 0.06 0.09 0.04 0.06 0.02 0.03c-1.44,0.3 -2.94,0.46 -4.47,0.46 -11.93,0 -21.6,-9.67 -21.6,-21.6 0,-11.93 9.67,-21.6 21.6,-21.6z"/>
   <circle class="fil0 str0" cx="37" cy="37" r="12"/>
   <path class="fil1" d="M25.88 32.47l-13.61 0c-1.13,0 -2.11,-0.87 -2.15,-2 -0.03,-1.16 0.9,-2.12 2.06,-2.12l-1.28 0c-1.13,0 -2.11,-0.87 -2.15,-2 -0.03,-1.13 0.85,-2.07 1.96,-2.12l-1.27 0.03c-1.14,0 -2.06,-0.93 -2.06,-2.06 0,-1.14 0.92,-2.07 2.06,-2.07l-1.28 0c-1.13,0 -2.12,-0.87 -2.15,-1.99 -0.04,-1.17 0.9,-2.13 2.06,-2.13l9.77 0 -0.94 -3.42c-0.15,-0.54 -0.23,-1.09 -0.23,-1.64l0 -2.23c0,-0.87 0.34,-1.7 0.95,-2.32l0.37 -0.39c0.62,-0.62 1.46,-0.97 2.34,-0.97 0.5,0 0.91,0.41 0.91,0.91l0 1.34c0,0.66 0.11,1.32 0.32,1.94l0.32 0.95c0.37,1.11 1.06,2.09 1.98,2.82l3.89 3.08c0.34,0.26 0.53,0.66 0.53,1.08l0 11.6c-1.01,1.07 -1.83,2.32 -2.4,3.71zm4.41 -5.42l0 -11.43c0,-0.38 0.3,-0.69 0.68,-0.69l5.76 0c0.39,0 0.69,0.31 0.69,0.69l0 9.39 -0.42 -0.01c-2.49,0 -4.8,0.75 -6.71,2.05z"/>
   <rect class="fil2 str1" transform="matrix(0.534265 -0.534265 0.794639 0.794639 30.7188 41.774)" width="22.34" height="4.27"/>
   <rect class="fil2 str1" transform="matrix(0.161777 0.161777 -0.794639 0.794639 31.3469 35.6151)" width="22.34" height="4.27"/>
  </g>
 </g>
</svg>
