<?xml version="1.0" encoding="UTF-8"?>
<!DOCTYPE svg PUBLIC "-//W3C//DTD SVG 1.1//EN" "http://www.w3.org/Graphics/SVG/1.1/DTD/svg11.dtd">
<!-- Creator: CorelDRAW -->
<svg xmlns="http://www.w3.org/2000/svg" xml:space="preserve" width="50px" height="50px" version="1.1" style="shape-rendering:geometricPrecision; text-rendering:geometricPrecision; image-rendering:optimizeQuality; fill-rule:evenodd; clip-rule:evenodd"
viewBox="0 0 50 50"
 xmlns:xlink="http://www.w3.org/1999/xlink"
 xmlns:xodm="http://www.corel.com/coreldraw/odm/2003">
 <defs>
  <style type="text/css">
   <![CDATA[
    .str0 {stroke:black;stroke-width:2.08;stroke-miterlimit:22.9256}
    .str1 {stroke:black;stroke-width:0.9;stroke-miterlimit:22.9256}
    .fil0 {fill:none}
    .fil2 {fill:black;fill-rule:nonzero}
    .fil1 {fill:black;fill-rule:nonzero}
   ]]>
  </style>
 </defs>
 <g id="Layer_x0020_1">
  <metadata id="CorelCorpID_0Corel-Layer"/>
  <g id="_2198072656240">
   <path class="fil0 str0" d="M22.6 1c11.93,0 21.6,9.67 21.6,21.6 0,1.53 -0.16,3.03 -0.46,4.47 -1.92,-1.31 -4.24,-2.07 -6.74,-2.07 -6.63,0 -12,5.37 -12,12 0,2.5 0.76,4.82 2.07,6.74 -1.44,0.3 -2.94,0.46 -4.47,0.46 -11.93,0 -21.6,-9.67 -21.6,-21.6 0,-11.93 9.67,-21.6 21.6,-21.6z"/>
   <circle class="fil0 str0" cx="37" cy="37" r="12"/>
   <path class="fil1 str1" d="M16.04 32.87c2.14,1.07 4.29,1.55 6.56,1.55 0.94,0 1.85,-0.09 2.74,-0.26 1.22,-5.04 5.63,-8.84 10.97,-9.14 0.63,-1.64 0.98,-3.43 0.98,-5.3 0,-8.11 -6.58,-14.69 -14.69,-14.69 -8.11,0 -14.7,6.58 -14.7,14.69 0,3.7 1.36,7.05 3.61,9.65 -0.29,1.95 -1.17,3.4 -2.31,4.62 -0.13,0.15 -0.16,0.35 -0.08,0.53 0.09,0.18 0.27,0.29 0.47,0.27 3.59,-0.26 4.53,-0.89 6.45,-1.92z"/>
   <path class="fil2" d="M35.49 39.64l-1.26 -7.26 0 -4.64 5.54 0 0 4.64 -1.26 7.26 -3.02 0zm-1.21 6.62l0 -5.1 5.44 0 0 5.1 -5.44 0z"/>
  </g>
 </g>
</svg>
