<?xml version="1.0" encoding="UTF-8"?>
<!DOCTYPE svg PUBLIC "-//W3C//DTD SVG 1.1//EN" "http://www.w3.org/Graphics/SVG/1.1/DTD/svg11.dtd">
<!-- Creator: CorelDRAW -->
<svg xmlns="http://www.w3.org/2000/svg" xml:space="preserve" width="50px" height="50px" version="1.1" style="shape-rendering:geometricPrecision; text-rendering:geometricPrecision; image-rendering:optimizeQuality; fill-rule:evenodd; clip-rule:evenodd"
viewBox="0 0 50 50"
 xmlns:xlink="http://www.w3.org/1999/xlink"
 xmlns:xodm="http://www.corel.com/coreldraw/odm/2003">
 <defs>
  <style type="text/css">
   <![CDATA[
    .str0 {stroke:black;stroke-width:2.08;stroke-miterlimit:22.9256}
    .fil0 {fill:none}
    .fil2 {fill:black;fill-rule:nonzero}
    .fil1 {fill:black;fill-rule:nonzero}
   ]]>
  </style>
 </defs>
 <g id="Layer_x0020_1">
  <metadata id="CorelCorpID_0Corel-Layer"/>
  <g id="_2235702888288">
   <path class="fil0 str0" d="M22.6 1c11.93,0 21.6,9.67 21.6,21.6 0,1.53 -0.16,3.03 -0.46,4.47 -1.92,-1.31 -4.24,-2.07 -6.74,-2.07 -6.63,0 -12,5.37 -12,12 0,2.5 0.76,4.82 2.07,6.74 -1.44,0.3 -2.94,0.46 -4.47,0.46 -11.93,0 -21.6,-9.67 -21.6,-21.6 0,-11.93 9.67,-21.6 21.6,-21.6z"/>
   <circle class="fil0 str0" cx="37" cy="37" r="12"/>
   <path class="fil1" d="M26 10.31l-14.62 0c-1.13,0 -2.12,0.87 -2.15,1.99 -0.04,1.17 0.9,2.13 2.06,2.13l-1.29 0c-1.12,0 -2.11,0.87 -2.14,2 -0.04,1.13 0.84,2.06 1.95,2.12l-1.26 -0.03c-1.14,0 -2.07,0.92 -2.07,2.06 0,1.14 0.93,2.06 2.07,2.06l-1.29 0c-1.13,0 -2.11,0.87 -2.15,2 -0.03,1.17 0.91,2.13 2.07,2.13l9.76 0 -0.94 3.42c-0.15,0.53 -0.22,1.08 -0.22,1.64l0 2.23c0,0.87 0.34,1.7 0.95,2.32l0.37 0.38c0.62,0.63 1.45,0.98 2.33,0.98 0.5,0 0.91,-0.41 0.91,-0.91l0 -1.34c0,-0.67 0.11,-1.32 0.32,-1.95l0.32 -0.94c0.38,-1.11 1.07,-2.09 1.99,-2.82l3.89 -3.08c0.33,-0.27 0.52,-0.66 0.52,-1.09l0 -13.92c0,-0.77 -0.61,-1.38 -1.38,-1.38zm5.3 2.94c-0.57,0 -1.04,-0.46 -1.04,-1.03 0,-0.58 0.47,-1.04 1.04,-1.04 0.57,0 1.04,0.46 1.04,1.04 0,0.57 -0.47,1.03 -1.04,1.03zm4.54 -2.94l-5.76 0c-0.38,0 -0.69,0.3 -0.69,0.68l0 16.17c0,0.16 0.06,0.32 0.16,0.43 1.93,-1.53 4.34,-2.48 6.98,-2.58l0 -14.02c0,-0.38 -0.31,-0.68 -0.69,-0.68z"/>
   <polygon class="fil2" points="41.7,44.83 37.03,40.17 32.34,44.88 29.12,41.65 33.81,36.96 29.15,32.29 32.29,29.15 36.95,33.82 41.66,29.11 44.88,32.33 40.17,37.04 44.84,41.7 "/>
  </g>
 </g>
</svg>
