<?xml version="1.0" encoding="UTF-8"?>
<!DOCTYPE svg PUBLIC "-//W3C//DTD SVG 1.1//EN" "http://www.w3.org/Graphics/SVG/1.1/DTD/svg11.dtd">
<!-- Creator: CorelDRAW -->
<svg xmlns="http://www.w3.org/2000/svg" xml:space="preserve" width="50px" height="50px" version="1.1" style="shape-rendering:geometricPrecision; text-rendering:geometricPrecision; image-rendering:optimizeQuality; fill-rule:evenodd; clip-rule:evenodd"
viewBox="0 0 50 50"
 xmlns:xlink="http://www.w3.org/1999/xlink"
 xmlns:xodm="http://www.corel.com/coreldraw/odm/2003">
 <defs>
  <style type="text/css">
   <![CDATA[
    .str2 {stroke:black;stroke-width:1.25;stroke-miterlimit:22.9256}
    .str0 {stroke:black;stroke-width:2.08;stroke-miterlimit:22.9256}
    .str1 {stroke:black;stroke-width:0.9;stroke-miterlimit:22.9256}
    .fil0 {fill:none}
    .fil1 {fill:black}
    .fil2 {fill:black;fill-rule:nonzero}
   ]]>
  </style>
    <clipPath id="id0">
     <path d="M17.82 16.99l17.88 0c0.41,0 0.75,0.33 0.75,0.74l0 7.28c-5.85,0.27 -10.61,4.72 -11.35,10.44l-7.28 0c-0.41,0 -0.74,-0.33 -0.74,-0.75l0 -16.97c0,-0.41 0.33,-0.74 0.74,-0.74z"/>
    </clipPath>
    <clipPath id="id1">
     <path d="M9.5 9.75l17.88 0c0.41,0 0.74,0.33 0.74,0.74l0 6.5 -10.3 0c-0.41,0 -0.74,0.33 -0.74,0.74l0 10.48 -7.58 0c-0.41,0 -0.75,-0.33 -0.75,-0.74l0 -16.98c0,-0.41 0.34,-0.74 0.75,-0.74z"/>
    </clipPath>
 </defs>
 <g id="Layer_x0020_1">
  <metadata id="CorelCorpID_0Corel-Layer"/>
  <g id="_3144470824624">
   <path class="fil0 str0" d="M22.6 1c11.93,0 21.6,9.67 21.6,21.6 0,1.53 -0.16,3.03 -0.46,4.47 -1.93,-1.31 -4.24,-2.07 -6.74,-2.07 -6.63,0 -12,5.37 -12,12 0,2.5 0.76,4.81 2.07,6.74 -1.44,0.3 -2.94,0.46 -4.47,0.46 -11.93,0 -21.6,-9.67 -21.6,-21.6 0,-11.93 9.67,-21.6 21.6,-21.6z"/>
   <circle class="fil0 str0" cx="37" cy="37" r="12"/>
   <g>
   </g>
   <g style="clip-path:url(#id0)">
    <g>
     <rect class="fil1 str1" x="11.61" y="14.8" width="28.38" height="6.66"/>
    </g>
   </g>
   <path class="fil0 str2" d="M17.82 16.99l17.88 0c0.41,0 0.75,0.33 0.75,0.74l0 7.28c-5.85,0.27 -10.61,4.72 -11.35,10.44l-7.28 0c-0.41,0 -0.74,-0.33 -0.74,-0.75l0 -16.97c0,-0.41 0.33,-0.74 0.74,-0.74z"/>
   <g>
   </g>
   <g style="clip-path:url(#id1)">
    <g>
     <rect class="fil1 str1" x="3.29" y="7.57" width="28.38" height="6.66"/>
    </g>
   </g>
   <path class="fil0 str2" d="M9.5 9.75l17.88 0c0.41,0 0.74,0.33 0.74,0.74l0 6.5 -10.3 0c-0.41,0 -0.74,0.33 -0.74,0.74l0 10.48 -7.58 0c-0.41,0 -0.75,-0.33 -0.75,-0.74l0 -16.98c0,-0.41 0.34,-0.74 0.75,-0.74z"/>
   <polygon class="fil2" points="41.7,44.83 37.03,40.17 32.34,44.88 29.12,41.65 33.81,36.95 29.15,32.29 32.29,29.15 36.95,33.82 41.66,29.11 44.88,32.33 40.17,37.04 44.84,41.7 "/>
  </g>
 </g>
</svg>
