<?xml version="1.0" encoding="UTF-8"?>
<!DOCTYPE svg PUBLIC "-//W3C//DTD SVG 1.1//EN" "http://www.w3.org/Graphics/SVG/1.1/DTD/svg11.dtd">
<!-- Creator: CorelDRAW -->
<svg xmlns="http://www.w3.org/2000/svg" xml:space="preserve" width="50px" height="50px" version="1.1" style="shape-rendering:geometricPrecision; text-rendering:geometricPrecision; image-rendering:optimizeQuality; fill-rule:evenodd; clip-rule:evenodd"
viewBox="0 0 50 50"
 xmlns:xlink="http://www.w3.org/1999/xlink"
 xmlns:xodm="http://www.corel.com/coreldraw/odm/2003">
 <defs>
  <style type="text/css">
   <![CDATA[
    .str0 {stroke:black;stroke-width:2.08;stroke-miterlimit:22.9256}
    .fil0 {fill:none}
    .fil1 {fill:black}
    .fil2 {fill:black;fill-rule:nonzero}
   ]]>
  </style>
 </defs>
 <g id="Layer_x0020_1">
  <metadata id="CorelCorpID_0Corel-Layer"/>
  <g id="_2235691716448">
   <path class="fil0 str0" d="M22.6 1c11.93,0 21.6,9.67 21.6,21.6 0,1.53 -0.16,3.03 -0.46,4.47 -4.67,-3.18 -11.09,-2.7 -15.22,1.44 -4.14,4.14 -4.63,10.56 -1.45,15.23 -1.44,0.3 -2.94,0.46 -4.47,0.46 -11.93,0 -21.6,-9.67 -21.6,-21.6 0,-11.93 9.67,-21.6 21.6,-21.6z"/>
   <rect class="fil1" transform="matrix(-0.887491 -0.88749 -0.794488 0.794487 37.5572 12.0668)" width="4.98" height="32.08"/>
   <circle class="fil0 str0" transform="matrix(-0.124146 -0.124146 -0.124146 0.124146 37.0002 36.9998)" r="68.35"/>
   <path class="fil1" d="M33.8 11.4c-6.18,-6.19 -16.22,-6.19 -22.4,0 -6.19,6.18 -6.19,16.22 0,22.4 3.72,3.73 8.83,5.21 13.67,4.45 0.2,1.93 0.86,3.82 2,5.49 -6.91,1.45 -14.38,-0.51 -19.74,-5.87 -8.44,-8.43 -8.44,-22.11 0,-30.54 8.43,-8.44 22.11,-8.44 30.54,0 5.36,5.36 7.32,12.83 5.87,19.74 -1.67,-1.14 -3.56,-1.8 -5.49,-2.01 0.76,-4.83 -0.73,-9.94 -4.45,-13.66z"/>
   <path class="fil2" d="M35.49 39.64l-1.26 -7.26 0 -4.64 5.54 0 0 4.64 -1.26 7.26 -3.02 0zm-1.21 6.62l0 -5.1 5.44 0 0 5.1 -5.44 0z"/>
  </g>
 </g>
</svg>
