<?xml version="1.0" encoding="UTF-8"?>
<!DOCTYPE svg PUBLIC "-//W3C//DTD SVG 1.1//EN" "http://www.w3.org/Graphics/SVG/1.1/DTD/svg11.dtd">
<!-- Creator: CorelDRAW -->
<svg xmlns="http://www.w3.org/2000/svg" xml:space="preserve" width="50px" height="50px" version="1.1" style="shape-rendering:geometricPrecision; text-rendering:geometricPrecision; image-rendering:optimizeQuality; fill-rule:evenodd; clip-rule:evenodd"
viewBox="0 0 50 50"
 xmlns:xlink="http://www.w3.org/1999/xlink"
 xmlns:xodm="http://www.corel.com/coreldraw/odm/2003">
 <defs>
  <style type="text/css">
   <![CDATA[
    .str0 {stroke:black;stroke-width:2.08;stroke-miterlimit:22.9256}
    .str1 {stroke:black;stroke-width:0.6;stroke-miterlimit:10}
    .fil0 {fill:none}
    .fil1 {fill:black}
    .fil2 {fill:black;fill-rule:nonzero}
   ]]>
  </style>
 </defs>
 <g id="Layer_x0020_1">
  <metadata id="CorelCorpID_0Corel-Layer"/>
  <g id="_2198078594128">
   <path class="fil0 str0" d="M22.6 1c11.93,0 21.6,9.67 21.6,21.6 0,1.53 -0.16,3.03 -0.46,4.47 -1.92,-1.31 -4.24,-2.07 -6.74,-2.07 -6.63,0 -12,5.37 -12,12 0,2.5 0.76,4.82 2.07,6.74 -1.44,0.3 -2.94,0.46 -4.47,0.46 -11.93,0 -21.6,-9.67 -21.6,-21.6 0,-11.93 9.67,-21.6 21.6,-21.6z"/>
   <circle class="fil1" cx="22.6" cy="15.66" r="9.6"/>
   <circle class="fil0 str0" cx="37" cy="37" r="12"/>
   <path class="fil1 str0" d="M9.74 25l2.09 0c1.01,0 1.87,0.26 2.7,0.83 2.3,1.56 5.08,2.47 8.07,2.47 2.99,0 5.77,-0.91 8.07,-2.47 0.83,-0.57 1.69,-0.83 2.7,-0.83l2.09 0c0.22,0 0.87,0.01 0.66,0.03 -6.22,0.49 -11.12,7.55 -11.12,11.97 0,4.41 0.76,4.82 2.07,6.74 -1.44,0.3 -2.94,0.46 -4.47,0.46 -8.67,0 -16.14,-5.1 -19.58,-12.47l0 -0.01c0,-3.7 3.02,-6.72 6.72,-6.72z"/>
   <path class="fil2 str1" d="M39.98 32.7l-5.96 0 0 -1.09 5.96 0 0 1.09zm0 8.49l-0.45 0.73 -0.62 -0.73 0 -7.81 1.07 0 0 7.81zm-3.9 3.34l1.83 0 -0.91 1.37 -0.92 -1.37zm-0.99 -3.34l-0.67 0.77 -0.4 -0.77 0 -7.81 1.07 0 0 7.81zm0.67 0l0 -7.81 2.48 0 0 7.81 -1.22 1.04 -1.26 -1.04zm2.6 2.66l-2.73 0 -0.94 -1.41 0.77 -0.82 1.57 1.28 1.47 -1.24 0.71 0.82 -0.85 1.37zm-4.34 -13.04c0,-1.65 1.34,-2.98 2.98,-2.99 1.65,0.01 2.98,1.34 2.98,2.99 0,0 0,0 0,0l0 0.13 -5.96 0 0 -0.13zm2.98 -3.66c-2.02,0 -3.66,1.64 -3.66,3.66l0 10.72c0,0.06 0.02,0.13 0.06,0.18l3.32 4.99c0.06,0.09 0.17,0.15 0.28,0.15 0.11,0 0.21,-0.06 0.28,-0.15l3.32 -4.99c0.04,-0.05 0.06,-0.12 0.06,-0.18l0 -10.72 0 0c0,-2.02 -1.64,-3.66 -3.66,-3.66z"/>
  </g>
 </g>
</svg>
