<?xml version="1.0" encoding="UTF-8"?>
<!DOCTYPE svg PUBLIC "-//W3C//DTD SVG 1.1//EN" "http://www.w3.org/Graphics/SVG/1.1/DTD/svg11.dtd">
<!-- Creator: CorelDRAW -->
<svg xmlns="http://www.w3.org/2000/svg" xml:space="preserve" width="50px" height="50px" version="1.1" style="shape-rendering:geometricPrecision; text-rendering:geometricPrecision; image-rendering:optimizeQuality; fill-rule:evenodd; clip-rule:evenodd"
viewBox="0 0 50 50"
 xmlns:xlink="http://www.w3.org/1999/xlink"
 xmlns:xodm="http://www.corel.com/coreldraw/odm/2003">
 <defs>
  <style type="text/css">
   <![CDATA[
    .str0 {stroke:black;stroke-width:2.08;stroke-miterlimit:22.9256}
    .fil0 {fill:none}
    .fil1 {fill:black}
    .fil2 {fill:white}
    .fil3 {fill:black;fill-rule:nonzero}
   ]]>
  </style>
 </defs>
 <g id="Layer_x0020_1">
  <metadata id="CorelCorpID_0Corel-Layer"/>
  <g id="_2198083947408">
   <path class="fil0 str0" d="M22.6 1c11.93,0 21.6,9.67 21.6,21.6 0,1.53 -0.16,3.03 -0.46,4.47 -1.92,-1.31 -4.24,-2.07 -6.74,-2.07 -6.63,0 -12,5.37 -12,12 0,2.5 0.76,4.82 2.07,6.74 -1.44,0.3 -2.94,0.46 -4.47,0.46 -11.93,0 -21.6,-9.67 -21.6,-21.6 0,-11.93 9.67,-21.6 21.6,-21.6z"/>
   <circle class="fil1" cx="22.6" cy="15.66" r="9.6"/>
   <circle class="fil2 str0" cx="37" cy="37" r="12"/>
   <path class="fil1 str0" d="M9.74 25l2.09 0c1.01,0 1.87,0.26 2.7,0.83 2.3,1.56 5.08,2.47 8.07,2.47 2.99,0 5.77,-0.91 8.07,-2.47 0.83,-0.57 1.69,-0.83 2.7,-0.83l2.09 0c0.22,0 0.87,0.01 0.66,0.03 -6.22,0.49 -11.12,7.55 -11.12,11.97 0,4.41 0.76,4.82 2.07,6.74 -1.44,0.3 -2.94,0.46 -4.47,0.46 -8.67,0 -16.14,-5.1 -19.58,-12.47l0 -0.01c0,-3.7 3.02,-6.72 6.72,-6.72z"/>
   <g>
    <path class="fil3" d="M37 42.22c-2.91,0 -5.26,-2.34 -5.26,-5.22 0,-2.88 2.35,-5.22 5.26,-5.22 2.9,0 5.26,2.34 5.26,5.22 0,2.88 -2.36,5.22 -5.26,5.22zm7.73 -5.12c0,-0.09 0,-0.17 -0.01,-0.25 -0.01,-0.27 0.16,-0.49 0.42,-0.56l0.56 -0.14c0.3,-0.08 0.48,-0.39 0.4,-0.68l-0.41 -1.56c-0.08,-0.29 -0.39,-0.47 -0.68,-0.39l-0.61 0.15c-0.25,0.07 -0.5,-0.04 -0.63,-0.27 -0.22,-0.41 -0.49,-0.8 -0.79,-1.16 -0.17,-0.2 -0.17,-0.48 -0.01,-0.69l0.39 -0.5c0.19,-0.24 0.14,-0.59 -0.1,-0.78l-1.28 -0.98c-0.25,-0.19 -0.6,-0.14 -0.79,0.1l-0.41 0.52c-0.16,0.21 -0.43,0.28 -0.67,0.17 -0.42,-0.18 -0.86,-0.33 -1.31,-0.44 -0.26,-0.06 -0.43,-0.28 -0.43,-0.54l0 -0.67c0,-0.3 -0.25,-0.55 -0.56,-0.55l-1.62 0c-0.31,0 -0.56,0.25 -0.56,0.55l0 0.67c0,0.26 -0.17,0.48 -0.43,0.54 -0.42,0.1 -0.83,0.23 -1.22,0.4 -0.23,0.1 -0.5,0.03 -0.66,-0.18l-0.4 -0.53c-0.19,-0.24 -0.54,-0.29 -0.78,-0.11l-1.3 0.96c-0.12,0.09 -0.2,0.22 -0.22,0.37 -0.02,0.15 0.01,0.29 0.11,0.41l0.38 0.51c0.16,0.21 0.15,0.49 -0.02,0.69 -0.17,0.19 -0.33,0.4 -0.47,0.61 -0.15,0.22 -0.42,0.3 -0.66,0.21l-0.59 -0.22c-0.29,-0.1 -0.61,0.05 -0.72,0.33l-0.56 1.51c-0.11,0.29 0.04,0.61 0.33,0.72l0.55 0.2c0.25,0.09 0.4,0.33 0.37,0.59 -0.04,0.32 -0.07,0.65 -0.07,0.99 0,0.02 0,0.04 0,0.07 0,0.25 -0.17,0.47 -0.42,0.54l-0.55 0.14c-0.3,0.08 -0.48,0.39 -0.4,0.68l0.41 1.56c0.08,0.29 0.38,0.47 0.68,0.39l0.51 -0.13c0.26,-0.07 0.52,0.05 0.64,0.28 0.23,0.44 0.5,0.85 0.81,1.23 0.16,0.2 0.16,0.48 0,0.68l-0.31 0.41c-0.19,0.24 -0.15,0.59 0.1,0.78l1.28 0.98c0.12,0.09 0.26,0.13 0.42,0.11 0.15,-0.02 0.27,-0.09 0.37,-0.21l0.29 -0.38c0.16,-0.21 0.44,-0.28 0.68,-0.17 0.45,0.21 0.93,0.37 1.42,0.49 0.26,0.06 0.43,0.28 0.43,0.54l0 0.47c0,0.31 0.25,0.56 0.56,0.56l1.62 0c0.31,0 0.56,-0.25 0.56,-0.56l0 -0.47c0,-0.26 0.17,-0.48 0.43,-0.54 0.45,-0.11 0.89,-0.26 1.31,-0.44 0.24,-0.11 0.52,-0.03 0.68,0.18l0.29 0.38c0.18,0.25 0.54,0.29 0.78,0.11l1.3 -0.96c0.25,-0.19 0.3,-0.53 0.11,-0.78l-0.3 -0.41c-0.16,-0.2 -0.16,-0.48 0.01,-0.68 0.18,-0.22 0.34,-0.44 0.5,-0.68 0.14,-0.22 0.41,-0.31 0.66,-0.21l0.49 0.17c0.29,0.11 0.61,-0.04 0.72,-0.32l0.56 -1.51c0.11,-0.29 -0.04,-0.61 -0.33,-0.72l-0.53 -0.19c-0.25,-0.09 -0.39,-0.32 -0.37,-0.58 0.03,-0.27 0.05,-0.54 0.05,-0.81z"/>
    <path id="_1" class="fil3" d="M31.5 37l0.47 0 0 0 0.01 0.26 0.02 0.25 0.03 0.25 0.05 0.24 0.05 0.25 0.07 0.23 0.08 0.23 0.09 0.23 0.1 0.22 0.11 0.21 0.12 0.21 0.13 0.21 0.14 0.19 0.15 0.19 0.16 0.18 0.17 0.17 0.17 0.17 0.18 0.15 0.19 0.15 0.2 0.14 0.2 0.13 0.21 0.12 0.22 0.11 0.22 0.1 0.23 0.09 0.24 0.08 0.23 0.07 0.25 0.05 0.24 0.04 0.25 0.04 0.26 0.02 0.26 0 0 0.47 -0.28 0 -0.28 -0.03 -0.28 -0.03 -0.27 -0.05 -0.27 -0.06 -0.26 -0.07 -0.25 -0.09 -0.25 -0.1 -0.25 -0.1 -0.23 -0.13 -0.23 -0.13 -0.23 -0.14 -0.21 -0.15 -0.21 -0.16 -0.2 -0.17 -0.19 -0.18 -0.18 -0.19 -0.17 -0.2 -0.17 -0.21 -0.15 -0.21 -0.15 -0.22 -0.13 -0.23 -0.12 -0.23 -0.11 -0.25 -0.1 -0.25 -0.08 -0.25 -0.08 -0.26 -0.06 -0.26 -0.05 -0.27 -0.03 -0.27 -0.02 -0.28 -0.01 -0.28 0 0zm5.5 -5.46l0 0.47 0 0 -0.26 0.01 -0.26 0.02 -0.25 0.03 -0.24 0.05 -0.25 0.05 -0.23 0.07 -0.24 0.08 -0.23 0.09 -0.22 0.1 -0.22 0.11 -0.21 0.12 -0.2 0.13 -0.2 0.14 -0.19 0.14 -0.18 0.16 -0.17 0.17 -0.17 0.17 -0.16 0.18 -0.15 0.19 -0.14 0.19 -0.13 0.2 -0.12 0.21 -0.11 0.22 -0.1 0.22 -0.09 0.23 -0.08 0.23 -0.07 0.23 -0.05 0.25 -0.05 0.24 -0.03 0.25 -0.02 0.25 -0.01 0.26 -0.47 0 0.01 -0.28 0.02 -0.28 0.03 -0.27 0.05 -0.27 0.06 -0.26 0.08 -0.26 0.08 -0.26 0.1 -0.24 0.11 -0.25 0.12 -0.23 0.13 -0.23 0.15 -0.22 0.15 -0.21 0.17 -0.21 0.17 -0.2 0.18 -0.19 0.19 -0.18 0.2 -0.17 0.21 -0.16 0.21 -0.15 0.23 -0.15 0.23 -0.13 0.23 -0.12 0.25 -0.11 0.25 -0.09 0.25 -0.09 0.26 -0.07 0.27 -0.06 0.27 -0.05 0.28 -0.04 0.28 -0.02 0.28 -0.01 0 0zm5.5 5.46l-0.48 0 0 0 0 -0.26 -0.02 -0.25 -0.03 -0.25 -0.05 -0.24 -0.05 -0.25 -0.07 -0.23 -0.08 -0.23 -0.09 -0.23 -0.1 -0.22 -0.11 -0.22 -0.12 -0.21 -0.13 -0.2 -0.14 -0.19 -0.15 -0.19 -0.16 -0.18 -0.17 -0.17 -0.17 -0.17 -0.18 -0.16 -0.19 -0.14 -0.2 -0.14 -0.21 -0.13 -0.21 -0.12 -0.21 -0.11 -0.22 -0.1 -0.23 -0.09 -0.24 -0.08 -0.24 -0.07 -0.24 -0.05 -0.25 -0.05 -0.25 -0.03 -0.25 -0.02 -0.26 -0.01 0 -0.47 0.28 0.01 0.28 0.02 0.28 0.04 0.27 0.05 0.26 0.06 0.27 0.07 0.25 0.09 0.25 0.09 0.24 0.11 0.24 0.12 0.23 0.13 0.22 0.15 0.22 0.15 0.21 0.16 0.2 0.17 0.19 0.18 0.18 0.19 0.17 0.2 0.17 0.21 0.15 0.21 0.14 0.22 0.13 0.23 0.13 0.23 0.11 0.25 0.09 0.24 0.09 0.26 0.08 0.26 0.06 0.26 0.04 0.27 0.04 0.27 0.02 0.28 0.01 0.28 0 0zm-5.5 5.45l0 -0.47 0 0 0.26 0 0.25 -0.02 0.25 -0.04 0.25 -0.04 0.24 -0.05 0.24 -0.07 0.24 -0.08 0.23 -0.09 0.22 -0.1 0.21 -0.11 0.21 -0.12 0.21 -0.13 0.2 -0.14 0.19 -0.15 0.18 -0.15 0.17 -0.17 0.17 -0.17 0.16 -0.18 0.15 -0.19 0.14 -0.19 0.13 -0.21 0.12 -0.21 0.11 -0.21 0.1 -0.22 0.09 -0.23 0.08 -0.23 0.07 -0.23 0.05 -0.25 0.05 -0.24 0.03 -0.25 0.02 -0.25 0 -0.26 0.48 0 -0.01 0.28 -0.02 0.28 -0.04 0.27 -0.04 0.27 -0.07 0.26 -0.07 0.26 -0.09 0.25 -0.09 0.25 -0.11 0.25 -0.13 0.23 -0.13 0.23 -0.14 0.22 -0.15 0.21 -0.17 0.21 -0.17 0.2 -0.18 0.19 -0.19 0.18 -0.2 0.17 -0.21 0.16 -0.22 0.15 -0.22 0.14 -0.23 0.13 -0.24 0.13 -0.24 0.1 -0.25 0.1 -0.25 0.09 -0.27 0.07 -0.26 0.06 -0.27 0.05 -0.28 0.03 -0.28 0.03 -0.28 0 0 0zm7.48 -5.59l0.48 -0.02 0 0 0 0.03 0 0.03 0 0.03 0 0.04 0 0.03 0 0.03 0 0.04 0 0.03 -0.47 0 0 -0.03 0 -0.03 0 -0.03 0 -0.03 0 -0.03 0 -0.03 0 -0.03 -0.01 -0.03 0 0zm0 0l0 0 0.01 0.01 -0.01 -0.01zm0.6 -0.8l0.12 0.46 0 0 -0.02 0 -0.01 0.01 -0.01 0 -0.01 0.01 -0.02 0 -0.01 0.01 -0.01 0.01 -0.01 0 -0.01 0.01 -0.01 0.01 -0.01 0.01 -0.02 0.01 0 0.01 -0.01 0.01 -0.01 0.01 -0.01 0.01 -0.01 0.01 -0.01 0.01 0 0.01 -0.01 0.01 0 0.01 -0.01 0.02 0 0.01 -0.01 0.01 0 0.01 0 0.01 -0.01 0.02 0 0.02 0 0.01 0 0.01 0 0.01 0 0.02 -0.48 0.02 0 -0.04 0 -0.03 0.01 -0.04 0 -0.03 0.01 -0.03 0 -0.03 0.01 -0.04 0.01 -0.03 0.01 -0.03 0.01 -0.03 0.02 -0.03 0.01 -0.03 0.01 -0.03 0.02 -0.03 0.02 -0.03 0.02 -0.02 0.02 -0.03 0.02 -0.03 0.02 -0.02 0.03 -0.02 0.02 -0.03 0.03 -0.02 0.03 -0.02 0.02 -0.02 0.03 -0.01 0.03 -0.02 0.03 -0.02 0.03 -0.01 0.03 -0.01 0.04 -0.02 0.03 -0.01 0.03 -0.01 0 0zm0.12 0.46l0 0 0 0 0 0zm0.56 -0.15l-0.56 0.15 -0.12 -0.46 0.56 -0.14 0 0 0.12 0.45zm-0.12 -0.45l0 0 0 0 0 0zm0.23 -0.39l0.46 -0.12 0 0 0.01 0.04 0.01 0.04 0 0.04 0 0.03 0.01 0.05 0 0.03 -0.01 0.04 0 0.04 -0.01 0.04 -0.01 0.04 -0.01 0.03 -0.01 0.04 -0.01 0.03 -0.02 0.04 -0.01 0.03 -0.02 0.04 -0.02 0.03 -0.03 0.03 -0.02 0.03 -0.02 0.03 -0.03 0.03 -0.03 0.03 -0.03 0.02 -0.02 0.02 -0.04 0.03 -0.03 0.02 -0.03 0.02 -0.04 0.02 -0.03 0.01 -0.04 0.02 -0.04 0.01 -0.04 0.01 -0.12 -0.45 0.02 -0.01 0.01 0 0.02 -0.01 0.01 0 0.01 -0.01 0.02 -0.01 0.01 -0.01 0.01 -0.01 0.02 -0.01 0.01 -0.01 0.01 -0.01 0.01 -0.01 0.01 -0.01 0.01 -0.01 0.01 -0.02 0.01 -0.01 0 -0.01 0.01 -0.02 0.01 -0.01 0 -0.01 0.01 -0.02 0 -0.02 0.01 -0.01 0 -0.02 0 -0.01 0 -0.02 0 -0.01 0 -0.02 0 -0.01 0 -0.02 0 -0.02 -0.01 -0.01 0 0zm0 0l0 0 0.02 0.08 -0.02 -0.08zm0.05 -1.68l0.41 1.56 -0.46 0.12 -0.41 -1.56 0 0 0.46 -0.12zm-0.85 -0.11l-0.12 -0.45 0 0 0.03 -0.01 0.04 -0.01 0.05 0 0.04 -0.01 0.03 0 0.04 0 0.05 0.01 0.03 0 0.04 0.01 0.04 0.01 0.03 0.01 0.04 0.01 0.04 0.01 0.03 0.02 0.04 0.01 0.03 0.02 0.03 0.02 0.03 0.02 0.03 0.02 0.03 0.03 0.03 0.03 0.03 0.02 0.02 0.03 0.03 0.03 0.02 0.03 0.02 0.04 0.02 0.03 0.02 0.03 0.02 0.04 0.01 0.04 0.02 0.03 0.01 0.04 -0.46 0.12 -0.01 -0.01 0 -0.02 -0.01 -0.02 0 -0.01 -0.01 -0.01 -0.01 -0.02 -0.01 -0.01 -0.01 -0.01 -0.01 -0.01 -0.01 -0.01 -0.01 -0.02 -0.01 -0.01 -0.01 0 -0.01 -0.01 -0.02 -0.01 -0.01 -0.01 -0.01 -0.01 -0.02 -0.01 -0.01 0 -0.02 -0.01 -0.01 0 -0.02 -0.01 -0.01 0 -0.02 0 -0.02 -0.01 -0.01 0 -0.01 0 -0.02 0 -0.02 0 -0.01 0.01 -0.02 0 -0.01 0 0 0zm-0.12 -0.45l0 0 0 0 0 0zm-0.61 0.15l0.61 -0.15 0.12 0.45 -0.6 0.16 -0.13 -0.45 0 -0.01zm0 0.01l0 -0.01 0.33 -0.08 -0.33 0.09zm-0.78 0.07l0.42 -0.23 0 0 0.01 0.01 0 0.01 0.01 0.01 0.01 0.02 0.01 0.01 0.01 0.01 0.01 0.01 0.01 0.01 0.01 0.01 0.01 0 0.01 0.01 0 0 0.02 0.01 0.01 0.01 0.01 0.01 0.02 0 0.01 0.01 0.01 0 0.01 0 0.01 0.01 0.02 0 0.01 0 0.01 0 0.02 0 0.01 0.01 0.01 0 0.02 0 0.01 -0.01 0.01 0 0.02 0 0.01 0 0.01 0 0.13 0.45 -0.04 0.01 -0.03 0 -0.04 0.01 -0.03 0 -0.03 0.01 -0.04 0 -0.03 0 -0.03 -0.01 -0.03 0 -0.04 0 -0.03 -0.01 -0.03 -0.01 -0.03 0 -0.03 -0.01 -0.03 -0.02 -0.03 -0.01 -0.03 -0.01 -0.03 -0.01 -0.03 -0.02 -0.02 -0.01 -0.04 -0.03 -0.02 -0.01 -0.03 -0.02 -0.02 -0.02 -0.02 -0.03 -0.03 -0.02 -0.02 -0.03 -0.02 -0.02 -0.02 -0.03 -0.02 -0.02 -0.02 -0.03 -0.01 -0.03 -0.01 0zm0.01 0l-0.01 0 -0.03 -0.06 0.04 0.06zm-0.77 -1.13l0.36 -0.29 0 0 0.06 0.06 0.06 0.08 0.05 0.07 0.06 0.07 0.05 0.07 0.05 0.07 0.06 0.08 0.05 0.07 0.05 0.08 0.05 0.07 0.05 0.08 0.05 0.08 0.04 0.07 0.05 0.08 0.05 0.08 0.04 0.08 -0.42 0.23 -0.04 -0.08 -0.04 -0.07 -0.04 -0.07 -0.05 -0.08 -0.04 -0.07 -0.05 -0.07 -0.05 -0.07 -0.04 -0.07 -0.05 -0.07 -0.05 -0.07 -0.05 -0.07 -0.05 -0.07 -0.05 -0.07 -0.06 -0.07 -0.05 -0.06 -0.05 -0.07 0 0zm-0.02 -0.98l0.38 0.29 0 0 -0.01 0.01 -0.01 0.01 -0.01 0.01 0 0.01 -0.01 0.01 0 0.02 -0.01 0.02 0 0 -0.01 0.01 0 0.02 0 0.02 -0.01 0 0 0.02 0 0.01 0 0.01 0 0.01 0 0.02 0 0.01 0 0.01 0 0.02 0.01 0.02 0 0.01 0 0.01 0.01 0.01 0 0.01 0.01 0.01 0 0.01 0.01 0.02 0.01 0.01 0.01 0.01 0 0.01 0.01 0.02 -0.36 0.29 -0.03 -0.02 -0.02 -0.03 -0.02 -0.03 -0.01 -0.03 -0.02 -0.03 -0.01 -0.02 -0.02 -0.04 -0.01 -0.03 -0.01 -0.03 -0.01 -0.03 -0.01 -0.04 0 -0.03 -0.01 -0.02 0 -0.04 0 -0.03 -0.01 -0.03 0 -0.04 0.01 -0.03 0 -0.04 0 -0.03 0.01 -0.03 0.01 -0.03 0.01 -0.03 0 -0.03 0.02 -0.04 0.01 -0.03 0.01 -0.02 0.02 -0.03 0.02 -0.04 0.02 -0.03 0.01 -0.02 0.02 -0.03 0 0zm0.38 0.29l0 0 -0.37 0.47 0.37 -0.47zm0.39 -0.51l-0.39 0.51 -0.38 -0.29 0.39 -0.5 0.38 0.28zm0 0l0 0 0 0 0 0zm-0.44 -0.73l0.29 -0.37 0 0 0.04 0.02 0.03 0.03 0.03 0.03 0.02 0.03 0.03 0.03 0.02 0.03 0.02 0.03 0.02 0.04 0.02 0.03 0.01 0.03 0.02 0.03 0.01 0.05 0.01 0.03 0.01 0.04 0.01 0.03 0.01 0.04 0 0.04 0 0.03 0 0.04 0 0.04 0 0.04 -0.01 0.04 0 0.03 -0.01 0.04 -0.01 0.04 -0.01 0.03 -0.02 0.04 -0.02 0.04 -0.02 0.03 -0.02 0.04 -0.02 0.03 -0.02 0.03 -0.38 -0.28 0.01 -0.01 0.01 -0.02 0.01 -0.01 0 -0.02 0.01 -0.01 0.01 -0.02 0 -0.01 0.01 -0.02 0 -0.01 0.01 -0.01 0 -0.02 0 -0.02 0 -0.01 0 -0.02 0 -0.01 0 -0.02 -0.01 -0.01 0 -0.02 0 -0.02 -0.01 -0.01 0 -0.01 -0.01 -0.02 -0.01 -0.01 0 -0.02 -0.01 -0.01 -0.01 -0.01 -0.01 -0.02 -0.01 -0.01 -0.01 -0.01 -0.01 -0.01 -0.01 -0.01 -0.02 -0.01 0 0zm-0.99 -1.36l1.28 0.99 -0.29 0.37 -1.28 -0.98 0 0 0.29 -0.38zm-0.74 0.43l-0.38 -0.28 0 0 0.03 -0.03 0.03 -0.04 0.02 -0.02 0.03 -0.03 0.03 -0.02 0.04 -0.03 0.03 -0.02 0.03 -0.02 0.04 -0.02 0.03 -0.01 0.03 -0.02 0.04 -0.01 0.04 -0.01 0.04 -0.01 0.03 -0.01 0.04 0 0.04 -0.01 0.04 0 0.03 0 0.04 0 0.04 0 0.05 0.01 0.03 0.01 0.03 0.01 0.04 0.01 0.04 0.01 0.04 0.01 0.04 0.02 0.03 0.02 0.03 0.02 0.04 0.02 0.03 0.02 -0.29 0.38 -0.01 -0.01 -0.02 -0.01 -0.01 -0.01 -0.02 -0.01 -0.01 0 -0.01 -0.01 -0.02 -0.01 -0.01 0 -0.02 0 -0.02 -0.01 -0.01 0 -0.01 0 -0.02 0 -0.02 0 -0.02 0 -0.01 0 -0.01 0.01 -0.02 0 -0.01 0 -0.02 0.01 -0.01 0 -0.02 0.01 -0.01 0 -0.01 0.01 -0.02 0.01 -0.01 0.01 -0.01 0.01 -0.02 0.01 -0.01 0.01 -0.01 0.01 -0.01 0.01 -0.01 0.01 0 0zm0 0l0 0 -0.2 0.25 0.2 -0.25zm-0.79 0.24l0.41 -0.52 0.38 0.28 -0.41 0.53 -0.38 -0.29 0 0zm0 0l0 0 0.16 -0.19 -0.16 0.19zm-0.57 0.53l0.19 -0.43 0 0 0.01 0 0.02 0.01 0.01 0 0.01 0.01 0.02 0 0.01 0 0.01 0 0.02 0 0.01 0.01 0.01 0 0.01 0 0.02 -0.01 0.01 0 0.02 0 0.01 0 0.01 0 0.01 -0.01 0.02 0 0.01 0 0.01 -0.01 0.02 -0.01 0 0 0.01 -0.01 0.02 -0.01 0 0 0.02 -0.01 0 -0.01 0.02 -0.01 0.01 -0.01 0 -0.01 0.02 -0.01 0 -0.01 0.38 0.29 -0.02 0.02 -0.02 0.03 -0.03 0.03 -0.02 0.02 -0.02 0.02 -0.03 0.02 -0.03 0.02 -0.03 0.02 -0.02 0.01 -0.03 0.02 -0.04 0.02 -0.02 0.01 -0.03 0.01 -0.03 0.01 -0.03 0.01 -0.03 0.01 -0.03 0.01 -0.04 0.01 -0.03 0 -0.03 0 -0.03 0.01 -0.04 0 -0.03 0 -0.03 -0.01 -0.04 0 -0.03 0 -0.03 -0.01 -0.03 -0.01 -0.03 0 -0.04 -0.02 -0.03 -0.01 -0.03 -0.01 0 0zm0.19 -0.43l0 0 0.17 0.07 -0.17 -0.07zm-1.47 0l0.11 -0.45 0 0 0.09 0.02 0.09 0.02 0.09 0.02 0.08 0.03 0.09 0.02 0.08 0.03 0.09 0.02 0.09 0.03 0.08 0.03 0.08 0.03 0.09 0.03 0.08 0.03 0.08 0.04 0.09 0.03 0.08 0.03 0.08 0.04 -0.19 0.43 -0.08 -0.03 -0.07 -0.04 -0.08 -0.03 -0.08 -0.03 -0.08 -0.03 -0.08 -0.03 -0.08 -0.03 -0.08 -0.02 -0.08 -0.03 -0.08 -0.02 -0.08 -0.03 -0.08 -0.02 -0.08 -0.02 -0.08 -0.03 -0.08 -0.02 -0.09 -0.02 0 0zm-0.61 -0.77l0.48 0 0 0 0 0.02 0 0.01 0 0.02 0 0.01 0 0.02 0.01 0.01 0 0.01 0 0.01 0.01 0.02 0 0.01 0.01 0.01 0 0.01 0.01 0.01 0.01 0.01 0 0.01 0.02 0.02 0 0 0.01 0.01 0.01 0.01 0.01 0.01 0.01 0.01 0.01 0.01 0.01 0 0.01 0.01 0.01 0.01 0.02 0.01 0.01 0 0.01 0.01 0.01 0 0.02 0.01 0.01 0 0.01 0.01 -0.11 0.45 -0.03 0 -0.03 -0.02 -0.03 -0.01 -0.03 -0.01 -0.04 -0.01 -0.03 -0.02 -0.03 -0.02 -0.02 -0.01 -0.03 -0.02 -0.03 -0.02 -0.02 -0.02 -0.03 -0.02 -0.02 -0.02 -0.02 -0.02 -0.03 -0.03 -0.02 -0.03 -0.02 -0.02 -0.02 -0.03 -0.01 -0.03 -0.02 -0.02 -0.02 -0.04 -0.01 -0.02 -0.01 -0.03 -0.01 -0.03 -0.02 -0.03 0 -0.04 -0.01 -0.03 -0.01 -0.03 0 -0.04 -0.01 -0.02 0 -0.04 0 -0.04 0 0zm0.48 -0.67l0 0.67 -0.48 0 0 -0.67 0 0 0.48 0zm-0.8 -0.32l0 -0.47 0 0 0.04 0.01 0.04 0 0.04 0 0.04 0.01 0.03 0.01 0.05 0.01 0.03 0.01 0.04 0.02 0.03 0.01 0.04 0.02 0.03 0.02 0.04 0.02 0.03 0.03 0.02 0.01 0.03 0.03 0.03 0.02 0.03 0.03 0.02 0.03 0.03 0.03 0.02 0.04 0.02 0.02 0.02 0.04 0.02 0.03 0.01 0.04 0.02 0.03 0.01 0.04 0.01 0.04 0.01 0.03 0.01 0.04 0 0.05 0 0.04 0.01 0.03 -0.48 0 0 -0.01 0 -0.02 0 -0.01 -0.01 -0.02 0 -0.02 0 -0.01 -0.01 -0.01 0 -0.02 -0.01 -0.01 -0.01 -0.02 -0.01 -0.01 -0.01 -0.02 0 -0.01 -0.01 -0.01 -0.01 -0.01 -0.01 -0.01 -0.01 -0.01 -0.02 -0.01 -0.01 -0.01 -0.01 -0.01 -0.01 -0.01 -0.02 -0.01 -0.01 0 -0.01 -0.01 -0.02 -0.01 -0.02 0 -0.01 0 -0.02 -0.01 -0.02 0 -0.01 0 -0.01 0 -0.02 -0.01 0 0zm-1.62 -0.47l1.62 0 0 0.47 -1.62 0 0 0 0 -0.47zm-0.32 0.79l-0.48 0 0 0 0 -0.03 0.01 -0.04 0 -0.05 0.01 -0.04 0.01 -0.03 0.01 -0.04 0.01 -0.04 0.02 -0.03 0.01 -0.04 0.02 -0.03 0.02 -0.04 0.02 -0.02 0.02 -0.04 0.02 -0.03 0.03 -0.03 0.03 -0.02 0.02 -0.03 0.03 -0.03 0.03 -0.02 0.03 -0.02 0.04 -0.02 0.03 -0.02 0.03 -0.02 0.04 -0.01 0.03 -0.02 0.04 -0.01 0.04 -0.01 0.04 -0.01 0.03 -0.01 0.05 0 0.04 0 0.04 -0.01 0 0.47 -0.02 0.01 -0.02 0 -0.01 0 -0.01 0 -0.02 0.01 -0.02 0 -0.01 0 -0.02 0.01 -0.01 0.01 -0.01 0 -0.02 0.01 -0.01 0.01 -0.01 0.01 -0.02 0.01 -0.01 0.01 -0.01 0.01 -0.01 0.01 -0.01 0.01 -0.01 0.01 -0.01 0.01 -0.01 0.02 -0.01 0.01 0 0.02 -0.01 0.01 0 0.02 -0.01 0.01 0 0.01 -0.01 0.02 0 0.02 0 0.01 0 0.02 0 0.01 0 0zm-0.48 0.67l0 -0.67 0.48 0 0 0.67 0 0 -0.48 0zm-0.14 0.77l-0.1 -0.46 0 0 0.01 0 0.01 0 0.02 -0.01 0.01 0 0.01 -0.01 0.01 0 0.01 -0.01 0.02 -0.01 0.01 -0.01 0.01 0 0.01 -0.01 0.01 -0.01 0.01 -0.01 0.01 -0.01 0.01 -0.01 0.01 -0.01 0 -0.01 0.01 -0.01 0.01 -0.01 0 -0.01 0.01 -0.01 0 -0.01 0.01 -0.02 0.01 -0.01 0 -0.01 0 -0.01 0 -0.02 0.01 -0.01 0 -0.01 0 -0.02 0 -0.01 0 -0.02 0.48 0 0 0.04 -0.01 0.04 0 0.02 0 0.04 -0.01 0.03 -0.01 0.03 -0.01 0.03 -0.01 0.04 -0.01 0.03 -0.01 0.03 -0.01 0.02 -0.02 0.04 -0.02 0.02 -0.01 0.03 -0.02 0.03 -0.02 0.02 -0.02 0.03 -0.03 0.03 -0.02 0.02 -0.02 0.02 -0.03 0.02 -0.03 0.02 -0.02 0.02 -0.03 0.02 -0.02 0.01 -0.03 0.02 -0.03 0.02 -0.04 0.01 -0.03 0.01 -0.03 0.01 -0.03 0.01 -0.04 0.01 0 0zm0 0l0 0 0 0 0 0zm-1.17 0.38l-0.19 -0.43 0 0 0.08 -0.03 0.07 -0.03 0.08 -0.03 0.08 -0.03 0.07 -0.03 0.08 -0.02 0.08 -0.03 0.08 -0.03 0.08 -0.02 0.08 -0.03 0.07 -0.02 0.08 -0.02 0.08 -0.02 0.08 -0.03 0.09 -0.02 0.08 -0.02 0.1 0.46 -0.07 0.02 -0.08 0.02 -0.07 0.02 -0.08 0.02 -0.07 0.02 -0.08 0.02 -0.07 0.03 -0.08 0.02 -0.07 0.02 -0.07 0.03 -0.07 0.02 -0.08 0.03 -0.07 0.03 -0.07 0.03 -0.07 0.02 -0.07 0.03 0 0zm-0.19 -0.43l0 0 -0.11 0.05 0.11 -0.05zm-0.76 0.18l0.38 -0.28 0 0 0.01 0.01 0.01 0.01 0.01 0.01 0.01 0.01 0.01 0.01 0.01 0.01 0.01 0.01 0 0 0.02 0.01 0.01 0.01 0.01 0 0.01 0.01 0.01 0 0.02 0.01 0.02 0 0 0.01 0.01 0 0.02 0 0.01 0.01 0.02 0 0.01 0 0.01 0 0.01 0 0.02 0 0.01 0 0.01 -0.01 0.01 0 0.01 0 0.02 -0.01 0.02 0 0.01 0 0.01 -0.01 0.19 0.43 -0.03 0.02 -0.04 0.01 -0.03 0.01 -0.03 0.01 -0.03 0 -0.04 0.01 -0.03 0 -0.04 0.01 -0.02 0 -0.03 0 -0.05 0 -0.02 -0.01 -0.03 0 -0.04 0 -0.03 -0.01 -0.03 -0.01 -0.04 -0.01 -0.02 -0.01 -0.03 -0.01 -0.03 -0.01 -0.03 -0.02 -0.03 -0.01 -0.03 -0.02 -0.02 -0.01 -0.03 -0.03 -0.03 -0.02 -0.02 -0.02 -0.03 -0.02 -0.02 -0.02 -0.03 -0.03 -0.02 -0.02 -0.02 -0.03 0 0zm0.38 -0.28l0 0 0 0 0 0zm-0.4 -0.53l0.4 0.53 -0.38 0.28 -0.4 -0.53 0.38 -0.28 0 0zm0 0l0 0 0.03 0.04 -0.03 -0.04zm-0.83 0.22l-0.29 -0.38 0 0 0.04 -0.02 0.03 -0.03 0.04 -0.01 0.03 -0.02 0.04 -0.02 0.03 -0.01 0.04 -0.01 0.04 -0.01 0.04 -0.01 0.03 -0.01 0.05 0 0.03 -0.01 0.04 0 0.04 0 0.04 0.01 0.04 0 0.03 0.01 0.04 0 0.04 0.02 0.03 0.01 0.04 0.01 0.04 0.02 0.03 0.01 0.03 0.02 0.04 0.02 0.03 0.02 0.03 0.03 0.03 0.02 0.03 0.03 0.03 0.02 0.02 0.04 0.03 0.03 -0.38 0.28 -0.01 -0.01 -0.01 -0.01 -0.01 -0.01 -0.01 -0.01 -0.01 -0.02 -0.02 -0.01 -0.01 -0.01 -0.02 0 -0.01 -0.01 -0.01 -0.01 -0.02 0 -0.01 -0.01 -0.02 -0.01 -0.01 0 -0.01 0 -0.03 0 -0.01 -0.01 -0.01 0 -0.02 0 -0.02 0 -0.01 0 -0.01 0.01 -0.02 0 -0.02 0 -0.01 0.01 -0.02 0 -0.01 0.01 -0.02 0 -0.01 0.01 -0.02 0.01 -0.01 0.01 -0.01 0.01 0 0zm-0.29 -0.38l0 0 0.21 -0.15 -0.21 0.15zm-1.29 0.96l1.29 -0.96 0.29 0.38 -1.3 0.96 -0.28 -0.38 0 0zm0 0l0 0 -0.12 0.09 0.12 -0.09zm0.15 0.59l-0.47 -0.07 0 0 0.01 -0.04 0.01 -0.03 0.01 -0.04 0.01 -0.04 0.02 -0.04 0.01 -0.03 0.02 -0.03 0.02 -0.04 0.02 -0.03 0.02 -0.04 0.02 -0.02 0.03 -0.03 0.03 -0.03 0.02 -0.03 0.04 -0.02 0.03 -0.03 0.28 0.38 -0.01 0.01 -0.01 0.01 -0.02 0.01 -0.01 0.01 -0.01 0.02 -0.01 0.01 -0.01 0.01 0 0.01 -0.01 0.01 -0.01 0.02 -0.01 0.02 0 0.01 -0.01 0.01 0 0.02 0 0.01 -0.01 0.02 0 0zm-0.47 -0.07l0 0 0.01 -0.03 -0.01 0.03zm0.54 0.31l-0.38 0.28 0 0 -0.03 -0.03 -0.02 -0.03 -0.02 -0.04 -0.02 -0.03 -0.01 -0.04 -0.02 -0.03 -0.01 -0.04 -0.01 -0.04 -0.01 -0.03 -0.01 -0.04 0 -0.05 0 -0.03 0 -0.04 0 -0.04 0 -0.03 0 -0.05 0.47 0.07 0 0.01 0 0.02 0 0.02 0 0.02 0 0.01 0 0.02 0.01 0.01 0 0.02 0 0.01 0.01 0.01 0 0.02 0.01 0.01 0.01 0.01 0.01 0.02 0 0.01 0.02 0.02 0 0zm0 0l0 0 -0.04 -0.05 0.04 0.05zm0 0.79l-0.38 -0.51 0.38 -0.28 0.38 0.51 0 0 -0.38 0.28zm0.38 -0.28l0 0 0 0 0 0zm-0.03 0.98l-0.36 -0.3 0 0 0.01 -0.01 0.01 -0.01 0.01 -0.02 0 0 0.01 -0.02 0.01 -0.02 0 0 0 -0.02 0.01 -0.01 0 -0.01 0.01 -0.01 0 -0.01 0 -0.02 0 -0.02 0.01 -0.01 0 -0.01 0 -0.01 0 -0.02 -0.01 -0.01 0 -0.01 0 -0.01 0 -0.01 0 -0.02 -0.01 -0.01 0 -0.01 -0.01 -0.02 0 -0.01 -0.01 -0.01 -0.01 -0.01 0 -0.02 -0.01 -0.01 -0.01 -0.01 0.38 -0.28 0.02 0.03 0.02 0.03 0.02 0.02 0.01 0.03 0.02 0.03 0.01 0.04 0.01 0.02 0.02 0.04 0 0.03 0.01 0.03 0.01 0.03 0 0.04 0.01 0.03 0 0.03 0 0.03 0 0.03 0 0.04 -0.01 0.03 0 0.03 0 0.03 -0.01 0.04 -0.01 0.03 -0.01 0.03 -0.01 0.03 -0.01 0.03 -0.02 0.04 -0.01 0.02 -0.02 0.03 -0.02 0.03 -0.02 0.03 -0.02 0.03 -0.02 0.02 0 0zm0 0l0 0 0.01 -0.01 -0.01 0.01zm-0.46 0.6l-0.39 -0.27 0 0 0.06 -0.08 0.06 -0.08 0.06 -0.08 0.06 -0.08 0.06 -0.08 0.06 -0.08 0.06 -0.08 0.07 -0.07 0.36 0.3 -0.06 0.07 -0.06 0.08 -0.06 0.07 -0.06 0.07 -0.05 0.08 -0.06 0.07 -0.05 0.08 -0.06 0.08 0 0zm-0.39 -0.27l0 0 -0.03 0.05 0.03 -0.05zm-0.54 0.56l0.16 -0.44 0 0 0.01 0 0.02 0.01 0.01 0 0.02 0.01 0.01 0 0.01 0 0.01 0 0.02 0 0.02 0 0.01 0 0.01 0 0.02 0 0.01 0 0.01 -0.01 0.01 0 0.01 0 0.02 -0.01 0.01 0 0.01 -0.01 0.01 0 0.01 -0.01 0.02 -0.01 0 0 0.02 -0.01 0.01 -0.01 0.01 -0.01 0.01 -0.01 0.01 -0.01 0.01 -0.01 0 -0.01 0.01 -0.01 0.01 -0.01 0.39 0.27 -0.02 0.02 -0.02 0.03 -0.02 0.03 -0.02 0.02 -0.02 0.02 -0.03 0.03 -0.03 0.02 -0.02 0.02 -0.03 0.01 -0.03 0.02 -0.02 0.02 -0.03 0.01 -0.03 0.02 -0.04 0.01 -0.02 0.01 -0.03 0.01 -0.03 0.01 -0.03 0.01 -0.04 0.01 -0.03 0 -0.03 0.01 -0.04 0 -0.03 0 -0.02 0 -0.04 0 -0.04 0 -0.03 -0.01 -0.03 0 -0.03 -0.01 -0.03 -0.01 -0.04 -0.01 -0.03 -0.01 0 0zm0 0l0 0 0 0 0 0zm-0.43 -0.66l0.59 0.22 -0.16 0.44 -0.59 -0.21 0.16 -0.45zm0 0l0 0 0 0 0 0zm-0.58 0.63l-0.44 -0.16 0 0 0.01 -0.03 0.02 -0.04 0.02 -0.04 0.02 -0.03 0.02 -0.03 0.03 -0.04 0.02 -0.03 0.02 -0.02 0.03 -0.03 0.03 -0.03 0.03 -0.02 0.03 -0.03 0.03 -0.02 0.03 -0.02 0.04 -0.02 0.03 -0.01 0.04 -0.02 0.03 -0.01 0.04 -0.01 0.04 -0.01 0.03 -0.01 0.04 -0.01 0.04 0 0.04 0 0.04 0 0.04 0 0.03 0 0.04 0 0.05 0.01 0.03 0.01 0.04 0.01 0.04 0.01 -0.16 0.45 -0.02 -0.01 -0.01 0 -0.02 -0.01 -0.02 0 -0.01 0 -0.02 0 -0.01 0 -0.02 0 -0.02 0 -0.01 0 -0.01 0 -0.02 0.01 -0.01 0 -0.02 0 -0.02 0.01 -0.01 0.01 -0.02 0 -0.01 0.01 -0.01 0.01 -0.01 0.01 -0.02 0.01 -0.01 0.01 -0.01 0 -0.01 0.01 -0.01 0.02 -0.01 0.01 -0.01 0.01 -0.01 0.02 -0.01 0.01 0 0.01 -0.01 0.02 -0.01 0.01 0 0zm-0.44 -0.16l0 0 0 0 0 0zm-0.56 1.51l0.56 -1.51 0.44 0.16 -0.56 1.52 0 0 -0.44 -0.17zm0.63 0.58l-0.16 0.44 0 0 -0.04 -0.02 -0.04 -0.01 -0.03 -0.02 -0.03 -0.02 -0.04 -0.03 -0.03 -0.02 -0.03 -0.02 -0.03 -0.03 -0.03 -0.02 -0.02 -0.03 -0.03 -0.03 -0.02 -0.03 -0.02 -0.03 -0.02 -0.04 -0.02 -0.03 -0.02 -0.03 -0.01 -0.03 -0.02 -0.04 -0.01 -0.04 -0.01 -0.04 -0.01 -0.04 0 -0.03 -0.01 -0.04 0 -0.04 0 -0.04 0 -0.03 0 -0.05 0.01 -0.03 0.01 -0.04 0.01 -0.04 0 -0.04 0.02 -0.04 0.44 0.17 0 0.01 -0.01 0.02 0 0.01 0 0.02 0 0.01 -0.01 0.02 0 0.01 0 0.02 0.01 0.01 0 0.02 0 0.02 0 0.02 0.01 0.01 0 0.01 0.01 0.01 0 0.02 0.01 0.02 0.01 0.01 0 0.01 0.01 0.01 0.01 0.01 0.01 0.02 0.01 0.01 0.02 0.01 0.01 0.01 0.01 0.01 0.01 0.01 0.01 0.01 0.02 0 0.01 0.01 0.02 0.01 0.01 0.01 0 0zm0 0l0 0 0 0 0 0zm0.39 0.64l-0.55 -0.2 0.16 -0.44 0.56 0.2 0 0 -0.17 0.44zm0.17 -0.44l0 0 0.16 0.06 -0.16 -0.06zm0.51 0.84l-0.47 -0.06 0 0 0 -0.02 0.01 -0.01 -0.01 -0.01 0 -0.02 0 -0.01 0 -0.01 0 -0.02 0 -0.01 0 -0.01 -0.01 -0.02 0 -0.01 -0.01 -0.01 0 -0.01 -0.01 -0.02 0 -0.01 -0.01 -0.01 -0.01 -0.01 -0.01 -0.01 0 -0.01 -0.01 -0.01 -0.01 -0.01 -0.01 -0.01 -0.01 -0.01 -0.01 -0.01 -0.01 -0.01 -0.01 0 -0.01 -0.01 -0.01 -0.01 -0.02 0 -0.01 -0.01 -0.02 -0.01 -0.01 0 0.17 -0.44 0.03 0.01 0.03 0.01 0.03 0.02 0.03 0.01 0.03 0.02 0.03 0.02 0.03 0.02 0.02 0.02 0.03 0.02 0.02 0.02 0.03 0.03 0.02 0.02 0.02 0.03 0.02 0.02 0.02 0.03 0.01 0.03 0.02 0.03 0.02 0.03 0.01 0.03 0.01 0.02 0.02 0.04 0.01 0.03 0 0.03 0.01 0.03 0.01 0.04 0 0.03 0.01 0.03 0 0.04 0 0.03 0 0.03 0 0.04 -0.01 0.03 0 0zm-0.47 -0.06l0 0 0.01 -0.04 -0.01 0.04zm0.41 1.02l-0.48 0 0 0 0 -0.07 0 -0.06 0.01 -0.07 0 -0.06 0 -0.07 0 -0.06 0.01 -0.07 0 -0.06 0.01 -0.06 0 -0.06 0.01 -0.07 0 -0.06 0.01 -0.07 0.01 -0.06 0.01 -0.06 0 -0.06 0.47 0.06 0 0.06 -0.01 0.06 -0.01 0.06 0 0.06 -0.01 0.05 -0.01 0.07 0 0.06 -0.01 0.06 0 0.06 0 0.05 0 0.06 -0.01 0.07 0 0.06 0 0.06 0 0.06 0 0.06 0 0zm0 0.06l-0.48 0.01 0 0 0 -0.02 0 -0.02 0 -0.02 0 -0.01 0.48 0 0 0.01 0 0.02 0 0.02 0 0.02 0 -0.01zm-0.48 0.01l0 0 0 0 0 0zm-0.12 0.77l-0.12 -0.46 0 0 0.02 0 0.01 -0.01 0.01 0 0.02 -0.01 0.01 0 0.01 -0.01 0.01 -0.01 0.01 0 0.01 -0.01 0.02 -0.01 0 -0.01 0.01 0 0.01 -0.01 0.01 -0.01 0.01 -0.02 0.01 0 0 -0.01 0.02 -0.02 0 0 0.01 -0.02 0 -0.01 0.01 -0.01 0 -0.01 0.01 -0.01 0 -0.02 0.01 -0.01 0 -0.01 0 -0.02 0 -0.01 0 -0.01 0 -0.02 0 -0.01 0.48 -0.01 0 0.04 0 0.03 -0.01 0.04 0 0.03 -0.01 0.03 -0.01 0.04 0 0.02 -0.01 0.03 -0.01 0.03 -0.02 0.04 -0.01 0.03 -0.01 0.02 -0.02 0.03 -0.02 0.03 -0.01 0.02 -0.02 0.03 -0.03 0.03 -0.01 0.02 -0.03 0.03 -0.02 0.02 -0.02 0.02 -0.03 0.02 -0.03 0.02 -0.02 0.02 -0.03 0.02 -0.03 0.01 -0.03 0.02 -0.03 0.01 -0.03 0.01 -0.03 0.02 -0.03 0.01 -0.04 0.01 0 0zm-0.12 -0.46l0 0 0 0 0 0zm-0.55 0.15l0.55 -0.15 0.12 0.46 -0.55 0.14 0 0 -0.12 -0.45zm0.12 0.45l0 0 0 0 0 0zm-0.23 0.39l-0.46 0.12 0 0 -0.01 -0.04 -0.01 -0.04 0 -0.04 -0.01 -0.04 0 -0.04 0 -0.03 0.01 -0.05 0 -0.03 0.01 -0.04 0 -0.04 0.02 -0.03 0.01 -0.04 0.01 -0.04 0.02 -0.03 0.01 -0.03 0.02 -0.04 0.02 -0.03 0.02 -0.03 0.03 -0.03 0.02 -0.03 0.03 -0.03 0.03 -0.03 0.02 -0.02 0.03 -0.02 0.03 -0.03 0.04 -0.02 0.03 -0.02 0.03 -0.02 0.04 -0.01 0.04 -0.02 0.04 -0.01 0.04 -0.01 0.12 0.45 -0.02 0.01 -0.02 0 -0.01 0.01 -0.01 0 -0.01 0.01 -0.02 0.01 -0.02 0.01 -0.01 0.01 -0.01 0.01 -0.01 0.01 -0.01 0.01 -0.01 0.01 -0.01 0.01 -0.01 0.01 -0.01 0.02 -0.01 0.01 -0.01 0.01 0 0.02 -0.01 0.01 -0.01 0.02 0 0.01 0 0.01 -0.01 0.02 0 0.01 0 0.02 0 0.02 0 0.01 0 0.02 0 0.01 0 0.02 0 0.02 0.01 0.01 0 0zm-0.05 1.68l-0.41 -1.56 0.46 -0.12 0.41 1.56 -0.46 0.12 0 0zm0 0l0 0 0.02 0.08 -0.02 -0.08zm0.85 0.11l0.12 0.45 0 0 -0.04 0.01 -0.03 0.01 -0.05 0 -0.04 0.01 -0.03 0 -0.05 0 -0.04 -0.01 -0.04 0 -0.03 -0.01 -0.04 -0.01 -0.04 -0.01 -0.03 -0.01 -0.04 -0.01 -0.03 -0.02 -0.04 -0.01 -0.03 -0.02 -0.04 -0.02 -0.02 -0.02 -0.04 -0.02 -0.03 -0.03 -0.02 -0.02 -0.03 -0.03 -0.03 -0.03 -0.02 -0.03 -0.03 -0.03 -0.02 -0.04 -0.01 -0.03 -0.02 -0.03 -0.02 -0.04 -0.02 -0.04 -0.01 -0.03 -0.01 -0.04 0.46 -0.12 0 0.01 0.01 0.02 0 0.01 0.01 0.02 0.01 0.01 0.01 0.02 0.01 0.01 0 0.01 0.01 0.01 0.02 0.02 0 0 0.02 0.02 0.01 0.01 0.01 0 0.02 0.02 0.01 0 0.01 0.01 0.02 0.01 0.01 0 0.01 0.01 0.02 0 0.01 0.01 0.02 0 0.02 0 0.01 0.01 0.02 0 0.01 0 0.02 0 0.02 0 0.01 0 0.01 -0.01 0.02 0 0 0zm0.12 0.45l0 0 -0.28 0.08 0.28 -0.08zm0.52 -0.13l-0.52 0.13 -0.12 -0.45 0.51 -0.14 0 0 0.13 0.46zm-0.13 -0.46l0 0 0.43 -0.11 -0.43 0.11zm0.91 0.4l-0.42 0.22 0 0 0 -0.01 -0.01 -0.01 -0.01 -0.02 -0.01 -0.01 -0.01 -0.01 -0.01 -0.01 -0.01 -0.01 0 -0.01 -0.01 -0.01 -0.01 0 -0.02 -0.01 -0.01 -0.01 -0.01 -0.01 -0.01 0 -0.01 -0.01 -0.01 -0.01 -0.02 0 -0.01 -0.01 -0.01 0 -0.01 0 -0.01 -0.01 -0.02 0 -0.01 0 -0.01 0 -0.02 0 -0.01 0 -0.01 0 -0.02 0 -0.01 0 -0.02 0 -0.01 0 -0.01 0.01 -0.13 -0.46 0.04 0 0.03 -0.01 0.04 -0.01 0.03 0 0.03 0 0.04 0 0.03 0 0.03 0 0.04 0 0.03 0.01 0.03 0 0.03 0.01 0.04 0.01 0.03 0.01 0.03 0.01 0.03 0.01 0.03 0.02 0.03 0.01 0.03 0.02 0.03 0.02 0.02 0.02 0.03 0.02 0.02 0.02 0.03 0.02 0.03 0.02 0.02 0.03 0.02 0.02 0.02 0.03 0.02 0.03 0.02 0.02 0.02 0.03 0.01 0.03 0 0zm0 0l0 0 -0.06 -0.12 0.06 0.12zm0.78 1.19l-0.37 0.3 0 0 -0.06 -0.08 -0.05 -0.07 -0.06 -0.08 -0.06 -0.07 -0.05 -0.08 -0.06 -0.08 -0.05 -0.08 -0.05 -0.08 -0.05 -0.07 -0.06 -0.09 -0.04 -0.08 -0.05 -0.08 -0.05 -0.08 -0.05 -0.08 -0.04 -0.09 -0.05 -0.08 0.42 -0.22 0.04 0.08 0.05 0.08 0.04 0.08 0.05 0.08 0.04 0.07 0.05 0.08 0.04 0.07 0.05 0.08 0.05 0.07 0.05 0.08 0.05 0.07 0.06 0.07 0.05 0.07 0.05 0.07 0.06 0.07 0.05 0.07 0 0zm-0.37 0.3l0 0 0 0 0 0zm0.38 0.68l-0.38 -0.29 0 0 0.01 -0.01 0.01 -0.02 0.01 0 0 -0.02 0.01 -0.01 0.01 -0.01 0 -0.01 0 -0.01 0.01 -0.02 0 -0.01 0.01 -0.02 0 -0.01 0 -0.01 0 -0.01 0 -0.01 0 -0.02 0 -0.01 0 -0.01 0 -0.02 0 -0.01 0 -0.01 -0.01 -0.01 0 -0.02 -0.01 -0.01 0 -0.01 0 -0.01 -0.01 -0.01 -0.01 -0.02 0 -0.01 -0.01 -0.01 -0.01 -0.01 -0.01 -0.01 0.37 -0.3 0.02 0.03 0.02 0.03 0.02 0.03 0.02 0.02 0.01 0.03 0.02 0.03 0.01 0.03 0.01 0.04 0.01 0.03 0.01 0.03 0.01 0.03 0.01 0.03 0 0.03 0 0.03 0.01 0.04 0 0.03 0 0.03 -0.01 0.03 0 0.04 0 0.03 -0.01 0.03 -0.01 0.03 0 0.03 -0.01 0.03 -0.01 0.03 -0.02 0.04 -0.01 0.03 -0.02 0.03 -0.01 0.03 -0.02 0.03 -0.02 0.02 -0.02 0.03 0 0zm-0.38 -0.29l0 0 0 0 0 0zm-0.31 0.4l0.31 -0.4 0.38 0.29 -0.32 0.4 0 0 -0.37 -0.29zm0.37 0.29l0 0 0.13 -0.15 -0.13 0.15zm0.06 0.45l-0.29 0.37 0 0 -0.03 -0.02 -0.03 -0.03 -0.03 -0.03 -0.02 -0.02 -0.03 -0.04 -0.02 -0.03 -0.03 -0.03 -0.02 -0.04 -0.01 -0.03 -0.02 -0.03 -0.01 -0.03 -0.02 -0.04 -0.01 -0.04 -0.01 -0.03 -0.01 -0.04 0 -0.04 0 -0.04 -0.01 -0.03 0 -0.05 0 -0.03 0.01 -0.04 0 -0.04 0.01 -0.03 0.01 -0.04 0.01 -0.04 0.01 -0.04 0.02 -0.04 0.01 -0.03 0.02 -0.03 0.02 -0.04 0.02 -0.03 0.03 -0.04 0.37 0.29 -0.01 0.02 0 0.01 -0.01 0.01 -0.01 0.02 -0.01 0.02 0 0.01 -0.01 0.01 0 0.02 -0.01 0.01 0 0.01 0 0.02 0 0.02 0 0.01 0 0.02 0 0.01 0 0.02 0 0.01 0 0.01 0.01 0.03 0 0.01 0.01 0.01 0 0.02 0.01 0.01 0.01 0.02 0.01 0.01 0 0.01 0.01 0.02 0.01 0.01 0.02 0.01 0.01 0.01 0.01 0.01 0.01 0.01 0 0zm0 0l0 0 0.32 0.25 -0.32 -0.25zm1 1.36l-1.29 -0.99 0.29 -0.37 1.29 0.98 0 0.01 -0.29 0.37zm0.53 -0.31l0.05 0.47 0.01 -0.01 -0.04 0.01 -0.05 0 -0.03 0 -0.04 0 -0.04 0 -0.04 -0.01 -0.04 -0.01 -0.03 0 -0.04 -0.01 -0.04 -0.02 -0.04 -0.01 -0.03 -0.02 -0.04 -0.02 -0.03 -0.02 -0.03 -0.02 -0.03 -0.02 0.29 -0.37 0.01 0 0.01 0.01 0.02 0.01 0.01 0.01 0.02 0.01 0.01 0 0.02 0.01 0 0 0.02 0.01 0.02 0 0.01 0 0.01 0 0.02 0 0.02 0 0.02 0 0.01 0 0.01 0zm-0.01 0l0.01 0 0.15 -0.02 -0.16 0.02zm0.22 -0.12l0.37 0.28 0.01 0 -0.03 0.03 -0.03 0.03 -0.02 0.03 -0.03 0.03 -0.03 0.02 -0.03 0.03 -0.04 0.02 -0.03 0.02 -0.04 0.02 -0.03 0.01 -0.03 0.02 -0.04 0.01 -0.04 0.01 -0.04 0.01 -0.04 0.01 -0.04 0.01 -0.05 -0.47 0.01 0 0.02 -0.01 0.02 0 0.01 -0.01 0.01 0 0.02 -0.01 0.01 0 0.01 -0.01 0.02 -0.01 0.01 -0.01 0.01 0 0.01 -0.01 0.02 -0.01 0.01 -0.02 0.01 -0.01 0.01 -0.01 0 0zm0 0l0 0 -0.1 0.12 0.1 -0.12zm0.67 -0.1l-0.3 0.38 -0.37 -0.28 0.29 -0.38 0 0 0.38 0.28zm-0.38 -0.28l0 0 0.11 -0.15 -0.11 0.15zm0.97 -0.24l-0.2 0.43 0 0 -0.02 -0.01 -0.01 0 -0.01 -0.01 -0.02 0 -0.01 -0.01 -0.01 0 -0.01 0 -0.01 0 -0.02 0 -0.02 0 -0.01 0 -0.01 0 -0.01 0 -0.02 0 -0.01 0 -0.01 0.01 -0.02 0 -0.01 0 -0.01 0.01 -0.01 0.01 -0.01 0 -0.01 0 -0.02 0.01 -0.01 0.01 -0.01 0.01 -0.01 0 -0.01 0.01 -0.01 0.01 -0.01 0.01 -0.01 0.01 -0.01 0.01 -0.01 0.01 -0.38 -0.28 0.03 -0.03 0.02 -0.03 0.02 -0.02 0.03 -0.02 0.02 -0.02 0.02 -0.02 0.04 -0.03 0.03 -0.02 0.02 -0.01 0.03 -0.02 0.03 -0.01 0.03 -0.02 0.03 -0.01 0.03 -0.01 0.04 -0.01 0.02 -0.01 0.03 -0.01 0.04 0 0.03 -0.01 0.03 0 0.04 0 0.03 0 0.03 0 0.03 0 0.04 0 0.03 0.01 0.04 0.01 0.03 0 0.03 0.01 0.03 0.02 0.04 0.01 0.03 0.01 0 0zm1.37 0.47l-0.1 0.46 0 0 -0.1 -0.03 -0.09 -0.02 -0.1 -0.02 -0.09 -0.03 -0.1 -0.03 -0.09 -0.03 -0.09 -0.03 -0.1 -0.03 -0.09 -0.03 -0.09 -0.03 -0.09 -0.04 -0.09 -0.03 -0.09 -0.04 -0.08 -0.03 -0.09 -0.04 -0.09 -0.04 0.2 -0.43 0.08 0.04 0.08 0.03 0.09 0.04 0.08 0.03 0.08 0.03 0.09 0.04 0.08 0.03 0.09 0.03 0.08 0.03 0.09 0.02 0.09 0.03 0.09 0.03 0.09 0.02 0.09 0.03 0.09 0.02 0.08 0.02 0 0zm0 0l0 0 0 0 0 0zm0.62 0.77l-0.48 0 0 0 0 -0.01 0 -0.02 0 -0.01 0 -0.02 -0.01 -0.01 0 -0.02 0 -0.01 0 -0.01 -0.01 -0.01 -0.01 -0.01 0 -0.02 -0.01 -0.01 0 -0.01 -0.01 -0.01 -0.01 -0.01 0 -0.01 -0.01 -0.01 -0.01 -0.01 -0.01 -0.01 -0.01 -0.01 -0.01 -0.01 -0.01 0 -0.01 -0.01 -0.01 -0.01 -0.02 -0.01 -0.01 0 -0.01 -0.01 -0.01 0 -0.01 -0.01 -0.02 0 -0.01 -0.01 -0.01 0 0.1 -0.46 0.04 0.01 0.03 0.01 0.03 0.01 0.03 0.01 0.04 0.02 0.03 0.01 0.03 0.02 0.02 0.01 0.03 0.02 0.02 0.02 0.03 0.02 0.03 0.02 0.02 0.02 0.02 0.03 0.03 0.02 0.02 0.03 0.02 0.02 0.02 0.03 0.01 0.03 0.02 0.02 0.02 0.04 0.01 0.03 0.01 0.02 0.01 0.04 0.01 0.03 0.01 0.03 0.01 0.03 0.01 0.03 0 0.04 0 0.03 0.01 0.03 0 0.04 0 0zm-0.48 0.47l0 -0.47 0.48 0 0 0.47 0 0 -0.48 0zm0.8 0.32l0 0.48 0 0 -0.04 -0.01 -0.04 0 -0.05 0 -0.03 -0.01 -0.04 -0.01 -0.04 -0.01 -0.04 -0.01 -0.03 -0.02 -0.04 -0.01 -0.03 -0.02 -0.03 -0.02 -0.04 -0.02 -0.03 -0.02 -0.03 -0.02 -0.03 -0.03 -0.02 -0.03 -0.03 -0.02 -0.03 -0.03 -0.02 -0.03 -0.02 -0.04 -0.02 -0.03 -0.02 -0.03 -0.02 -0.03 -0.01 -0.04 -0.02 -0.03 -0.01 -0.04 -0.01 -0.04 -0.01 -0.03 -0.01 -0.04 0 -0.05 -0.01 -0.04 0 -0.04 0.48 0 0 0.02 0 0.02 0 0.01 0 0.02 0.01 0.02 0 0.01 0.01 0.01 0 0.02 0.01 0.01 0 0.01 0.01 0.02 0.01 0.02 0.01 0.01 0.01 0.01 0.01 0.01 0.01 0.01 0.01 0.01 0.01 0.01 0.02 0.01 0.01 0.01 0.01 0.01 0.02 0.01 0.01 0 0.01 0.01 0.02 0.01 0.01 0 0.02 0 0.02 0.01 0.01 0 0.01 0 0.02 0 0.02 0 0 0zm1.62 0.48l-1.62 0 0 -0.48 1.62 0 0 0 0 0.48zm0.32 -0.8l0.48 0 0 0 -0.01 0.04 0 0.04 0 0.05 -0.01 0.04 -0.01 0.03 -0.01 0.04 -0.01 0.04 -0.02 0.03 -0.01 0.04 -0.02 0.03 -0.02 0.03 -0.02 0.03 -0.02 0.04 -0.03 0.03 -0.02 0.03 -0.03 0.02 -0.03 0.03 -0.03 0.03 -0.02 0.01 -0.03 0.03 -0.04 0.02 -0.03 0.02 -0.04 0.02 -0.03 0.01 -0.04 0.02 -0.03 0.01 -0.05 0.01 -0.03 0.01 -0.04 0.01 -0.04 0 -0.04 0 -0.04 0.01 0 -0.48 0.02 0 0.01 0 0.01 0 0.02 0 0.02 -0.01 0.01 0 0.02 0 0.02 -0.01 0.01 -0.01 0.01 0 0.02 -0.01 0.01 -0.01 0.01 -0.01 0.01 -0.01 0.02 -0.01 0.01 -0.01 0.01 -0.01 0.01 -0.01 0.01 -0.01 0 -0.01 0.01 -0.02 0.01 -0.02 0.01 -0.01 0.01 -0.01 0 -0.02 0.01 -0.01 0 -0.01 0 -0.02 0.01 -0.02 0 -0.01 0 -0.02 0 -0.02 0 0zm0.48 -0.47l0 0.47 -0.48 0 0 -0.47 0 0 0.48 0zm0.13 -0.77l0.11 0.46 0 0 -0.01 0 -0.01 0.01 -0.02 0 -0.01 0.01 -0.01 0 -0.01 0.01 -0.02 0 -0.01 0.01 -0.01 0.01 -0.01 0.01 -0.01 0 -0.01 0.01 -0.01 0.01 -0.01 0.01 -0.01 0.01 -0.01 0.01 -0.01 0.01 0 0.01 -0.01 0.01 -0.01 0.01 0 0.01 -0.01 0.02 0 0.01 -0.01 0.01 0 0.02 0 0 -0.01 0.02 0 0.01 0 0.02 0 0.01 0 0.02 0 0.01 -0.48 0 0 -0.04 0 -0.03 0.01 -0.03 0 -0.04 0.01 -0.03 0.01 -0.03 0 -0.04 0.02 -0.02 0.01 -0.03 0.01 -0.03 0.01 -0.03 0.02 -0.04 0.02 -0.02 0.01 -0.03 0.02 -0.03 0.02 -0.02 0.02 -0.03 0.03 -0.02 0.02 -0.03 0.02 -0.02 0.03 -0.02 0.02 -0.02 0.03 -0.02 0.03 -0.02 0.02 -0.01 0.03 -0.02 0.03 -0.01 0.04 -0.02 0.03 -0.01 0.03 -0.01 0.03 -0.01 0.03 -0.01 0 0zm0 0l0 0 0 0 0 0zm1.28 -0.42l0.19 0.43 0 0 -0.08 0.03 -0.08 0.04 -0.09 0.03 -0.08 0.03 -0.08 0.03 -0.09 0.03 -0.08 0.03 -0.09 0.03 -0.08 0.03 -0.09 0.03 -0.08 0.02 -0.09 0.03 -0.08 0.02 -0.09 0.03 -0.09 0.02 -0.09 0.02 -0.11 -0.46 0.09 -0.02 0.08 -0.02 0.08 -0.02 0.08 -0.02 0.08 -0.03 0.08 -0.02 0.08 -0.03 0.08 -0.02 0.08 -0.03 0.08 -0.03 0.08 -0.03 0.08 -0.03 0.08 -0.03 0.07 -0.03 0.08 -0.03 0.08 -0.03 0 0zm0.19 0.43l0 0 0.11 -0.05 -0.11 0.05zm0.77 -0.18l-0.38 0.28 0 0 -0.01 -0.02 -0.01 -0.01 -0.01 0 -0.01 -0.02 -0.01 -0.01 -0.01 -0.01 -0.01 0 -0.01 -0.01 -0.01 -0.01 -0.01 0 -0.02 -0.01 -0.01 -0.01 -0.01 0 -0.02 -0.01 0 0 -0.02 0 -0.02 -0.01 -0.01 0 -0.01 0 -0.01 0 -0.01 0 -0.02 0 -0.01 0 -0.01 0 -0.01 0 -0.02 0 -0.01 0 -0.02 0.01 -0.01 0 -0.02 0.01 -0.01 0 -0.01 0.01 -0.19 -0.43 0.03 -0.02 0.03 -0.01 0.03 -0.01 0.04 -0.01 0.03 -0.01 0.03 0 0.03 -0.01 0.04 0 0.03 0 0.03 0 0.03 0 0.04 0 0.03 0 0.04 0.01 0.03 0.01 0.03 0 0.03 0.01 0.04 0.01 0.02 0.01 0.03 0.01 0.03 0.02 0.03 0.01 0.03 0.02 0.03 0.02 0.03 0.02 0.03 0.02 0.02 0.02 0.03 0.02 0.02 0.02 0.03 0.03 0.02 0.03 0.02 0.02 0 0.01zm0 -0.01l0 0.01 0.06 0.07 -0.06 -0.08zm-0.09 0.67l-0.29 -0.38 0.38 -0.28 0.29 0.38 -0.38 0.28 0 0zm0 0l0 0 -0.06 -0.07 0.06 0.07zm0.83 -0.22l0.28 0.38 0 0 -0.03 0.02 -0.03 0.03 -0.04 0.01 -0.03 0.02 -0.04 0.02 -0.03 0.01 -0.04 0.01 -0.04 0.01 -0.04 0.01 -0.04 0.01 -0.04 0 -0.03 0.01 -0.04 0 -0.04 0 -0.04 -0.01 -0.03 0 -0.05 -0.01 -0.03 -0.01 -0.03 0 -0.04 -0.01 -0.04 -0.02 -0.04 -0.01 -0.03 -0.02 -0.03 -0.02 -0.04 -0.02 -0.03 -0.02 -0.03 -0.02 -0.03 -0.03 -0.03 -0.03 -0.03 -0.02 -0.03 -0.04 -0.02 -0.03 0.38 -0.28 0.01 0.01 0.01 0.01 0.01 0.02 0.01 0.01 0.01 0.01 0.02 0.01 0.01 0.01 0.01 0 0.02 0.01 0.01 0.01 0.02 0 0.01 0.01 0.01 0 0.02 0.01 0.02 0 0.01 0 0.02 0.01 0.02 0 0.01 0 0.01 0 0.02 0 0.02 -0.01 0.01 0 0.02 0 0.01 -0.01 0.01 0 0.02 -0.01 0.01 0 0.02 -0.01 0.01 -0.01 0.01 -0.01 0.02 -0.01 0 0zm0 0l0 0 -0.49 0.37 0.49 -0.37zm1.58 -0.59l-1.3 0.97 -0.28 -0.38 1.3 -0.96 0.28 0.37 0 0zm0 0l0 0 0.49 -0.36 -0.49 0.36zm-0.22 -0.82l0.38 -0.28 0 0 0.03 0.03 0.02 0.04 0.02 0.03 0.02 0.04 0.01 0.03 0.02 0.04 0.01 0.04 0.01 0.03 0.01 0.04 0 0.04 0.01 0.04 0 0.03 0 0.04 0 0.04 0 0.04 -0.01 0.04 0 0.03 -0.01 0.04 -0.01 0.03 -0.01 0.04 -0.02 0.04 -0.01 0.03 -0.02 0.04 -0.02 0.03 -0.02 0.04 -0.02 0.03 -0.02 0.03 -0.03 0.03 -0.03 0.03 -0.03 0.02 -0.02 0.03 -0.04 0.02 -0.28 -0.37 0.01 -0.01 0.01 -0.01 0.01 -0.01 0.01 -0.01 0.01 -0.02 0.01 -0.01 0.02 -0.01 0 -0.02 0.01 -0.01 0.01 -0.01 0 -0.02 0.01 -0.01 0 -0.01 0.01 -0.02 0 -0.02 0 -0.01 0 -0.01 0 -0.02 0.01 -0.02 -0.01 -0.01 0 -0.02 0 -0.01 0 -0.02 0 -0.01 -0.01 -0.02 0 -0.02 -0.01 -0.01 0 -0.01 -0.01 -0.02 -0.01 -0.01 -0.01 -0.01 -0.01 -0.02 0 0zm0 0l0 0 0.12 0.16 -0.12 -0.16zm0.08 -0.69l0.3 0.41 -0.38 0.28 -0.31 -0.41 0.39 -0.28zm0 0l0 0 0 0 0 0zm-0.36 -0.69l0.36 0.3 0 0 -0.01 0.01 -0.01 0.01 0 0.01 -0.01 0.01 -0.01 0.02 0 0.01 -0.01 0.01 0 0.02 -0.01 0.01 0 0.01 0 0.01 -0.01 0.01 0 0.02 0 0.01 0 0.01 0 0.02 0 0.01 0 0.01 0 0.01 0 0.01 0 0.02 0.01 0.01 0 0.01 0 0.02 0.01 0.01 0 0.01 0.01 0.01 0.01 0.02 0 0.01 0.01 0.01 0.01 0.01 0.01 0.01 -0.39 0.28 -0.01 -0.02 -0.02 -0.03 -0.02 -0.03 -0.02 -0.03 -0.01 -0.03 -0.02 -0.03 -0.01 -0.03 -0.01 -0.03 -0.01 -0.03 0 -0.03 -0.01 -0.04 -0.01 -0.02 0 -0.04 0 -0.03 -0.01 -0.03 0 -0.04 0.01 -0.02 0 -0.04 0 -0.03 0.01 -0.03 0.01 -0.04 0 -0.03 0.01 -0.03 0.01 -0.03 0.01 -0.03 0.02 -0.03 0.01 -0.03 0.02 -0.03 0.02 -0.03 0.01 -0.02 0.02 -0.03 0.03 -0.03 0 0zm0.36 0.3l0 0 0.26 -0.31 -0.26 0.31zm0.12 -0.96l0.39 0.26 0 0 -0.06 0.09 -0.06 0.09 -0.06 0.09 -0.06 0.09 -0.07 0.09 -0.06 0.08 -0.07 0.09 -0.07 0.08 -0.36 -0.3 0.06 -0.08 0.06 -0.08 0.07 -0.08 0.06 -0.08 0.05 -0.08 0.06 -0.08 0.06 -0.09 0.06 -0.08 0 -0.01zm0 0.01l0 -0.01 0.01 -0.02 -0.01 0.03zm0.94 -0.32l-0.16 0.45 0 0 -0.02 -0.01 -0.01 0 -0.01 -0.01 -0.02 0 -0.01 0 -0.02 0 -0.01 0 -0.02 -0.01 -0.01 0 -0.01 0.01 -0.01 0 -0.02 0 -0.01 0 -0.01 0 -0.01 0.01 -0.02 0 -0.01 0 -0.01 0.01 -0.02 0.01 0 0 -0.02 0.01 -0.01 0.01 -0.01 0 -0.01 0.01 -0.01 0.01 -0.01 0.01 -0.01 0.01 -0.01 0.01 -0.01 0.01 -0.01 0.01 -0.01 0.01 -0.01 0.01 -0.39 -0.26 0.02 -0.02 0.02 -0.03 0.02 -0.03 0.02 -0.02 0.02 -0.02 0.03 -0.03 0.03 -0.02 0.02 -0.02 0.02 -0.02 0.04 -0.02 0.02 -0.02 0.03 -0.01 0.03 -0.02 0.03 -0.01 0.03 -0.01 0.04 -0.02 0.02 0 0.04 -0.01 0.03 -0.01 0.03 -0.01 0.03 0 0.04 0 0.03 -0.01 0.04 0 0.03 0.01 0.03 0 0.03 0 0.04 0.01 0.03 0 0.04 0.01 0.03 0.01 0.03 0.01 0 0zm0 0l0 0 0.32 0.12 -0.32 -0.12zm0.33 0.63l-0.49 -0.18 0.16 -0.45 0.49 0.18 0 0 -0.16 0.45zm0.58 -0.64l0.44 0.17 0 0 -0.01 0.03 -0.02 0.04 -0.02 0.03 -0.02 0.04 -0.02 0.04 -0.03 0.03 -0.02 0.03 -0.02 0.02 -0.03 0.03 -0.03 0.03 -0.03 0.02 -0.03 0.03 -0.03 0.02 -0.03 0.02 -0.04 0.01 -0.03 0.02 -0.04 0.02 -0.03 0.01 -0.04 0.01 -0.04 0.01 -0.04 0.01 -0.03 0.01 -0.04 0 -0.04 0 -0.04 0 -0.04 0 -0.04 0 -0.04 0 -0.04 -0.01 -0.04 -0.01 -0.03 -0.01 -0.04 -0.01 0.16 -0.45 0.02 0.01 0.01 0 0.02 0.01 0.01 0 0.02 0 0.01 0 0.02 0 0.02 0 0.01 0 0.02 0 0.02 0 0.01 -0.01 0.01 0 0.02 0 0.01 -0.01 0.02 0 0.01 -0.01 0.01 -0.01 0.02 -0.01 0.01 -0.01 0.01 -0.01 0.02 -0.01 0.01 0 0 -0.02 0.02 -0.01 0.01 -0.01 0.01 -0.02 0.01 -0.01 0 -0.01 0.01 -0.02 0.01 -0.01 0.01 -0.02 0 0zm1 -1.34l-0.56 1.51 -0.44 -0.17 0.56 -1.5 0 0 0.44 0.16zm-0.44 -0.16l0 0 0 0 0 0zm-0.2 -0.41l0.17 -0.45 0 0 0.04 0.02 0.03 0.02 0.04 0.02 0.03 0.02 0.03 0.01 0.04 0.03 0.03 0.02 0.03 0.03 0.03 0.03 0.02 0.02 0.02 0.03 0.03 0.04 0.02 0.03 0.02 0.03 0.02 0.03 0.02 0.03 0.01 0.04 0.02 0.03 0.01 0.04 0.01 0.04 0.01 0.04 0 0.04 0.01 0.03 0 0.04 0 0.04 0 0.03 0 0.05 -0.01 0.03 -0.01 0.04 0 0.04 -0.02 0.04 -0.01 0.04 -0.44 -0.16 0 -0.02 0.01 -0.02 0 -0.01 0 -0.02 0 -0.01 0.01 -0.02 0 -0.01 0 -0.02 -0.01 -0.01 0 -0.02 0 -0.02 0 -0.01 -0.01 -0.02 0 -0.01 -0.01 -0.01 0 -0.01 -0.01 -0.02 -0.01 -0.02 -0.01 -0.01 -0.01 -0.01 0 -0.01 -0.01 -0.01 -0.02 -0.02 -0.01 -0.01 -0.01 -0.01 -0.01 -0.01 -0.01 -0.01 -0.02 -0.01 -0.01 -0.01 -0.02 0 -0.01 -0.01 -0.02 0 0 0zm-0.36 -0.64l0.53 0.19 -0.17 0.45 -0.53 -0.2 0.17 -0.44 0 0zm0 0l0 0 0.08 0.03 -0.08 -0.03zm-0.68 -0.39l0.47 0.05 0 0 0 0.02 0 0.01 0 0.01 0 0.02 0 0.01 0 0.01 0 0.02 0.01 0.02 0 0.01 0 0.01 0.01 0.01 0 0.01 0.01 0.01 0 0.02 0.01 0.01 0.01 0.01 0 0.01 0.01 0.01 0 0.01 0.01 0.01 0.02 0.01 0.01 0.01 0 0.01 0.01 0 0.01 0.01 0.01 0.01 0.02 0.01 0.01 0.01 0.01 0 0.01 0.01 0.01 0 0.02 0.01 -0.17 0.44 -0.02 -0.01 -0.04 -0.01 -0.03 -0.02 -0.03 -0.02 -0.03 -0.01 -0.02 -0.02 -0.03 -0.02 -0.02 -0.02 -0.03 -0.02 -0.03 -0.03 -0.02 -0.02 -0.02 -0.02 -0.02 -0.02 -0.02 -0.03 -0.02 -0.03 -0.02 -0.03 -0.02 -0.02 -0.01 -0.03 -0.01 -0.03 -0.02 -0.03 -0.01 -0.03 -0.01 -0.03 -0.01 -0.03 -0.01 -0.04 0 -0.02 -0.01 -0.03 0 -0.04 0 -0.03 -0.01 -0.03 0 -0.04 0.01 -0.03 0 -0.04 0 0zm0 0l0 0 0 0 0 0zm0.04 -0.78l0.47 0 0 0 0 0.1 0 0.11 0 0.1 -0.01 0.11 0 0.1 -0.01 0.11 -0.01 0.1 -0.01 0.1 -0.47 -0.05 0.01 -0.09 0.01 -0.1 0 -0.1 0.01 -0.09 0 -0.11 0.01 -0.09 0 -0.1 0 -0.1 0 0z"/>
   </g>
  </g>
 </g>
</svg>
