<svg width="43" height="43" viewBox="0 0 43 43" fill="none" xmlns="http://www.w3.org/2000/svg">
<path d="M14.1362 24.725H26.23V21.5H14.1362V24.725ZM14.1362 19.8875H35.3675V16.6625H14.1362V19.8875ZM14.1362 15.05H35.3675V11.825H14.1362V15.05ZM9.675 36.55C8.815 36.55 8.0625 36.2275 7.4175 35.5825C6.7725 34.9375 6.45 34.185 6.45 33.325V3.225C6.45 2.365 6.7725 1.6125 7.4175 0.9675C8.0625 0.3225 8.815 0 9.675 0H39.775C40.635 0 41.3875 0.3225 42.0325 0.9675C42.6775 1.6125 43 2.365 43 3.225V33.325C43 34.185 42.6775 34.9375 42.0325 35.5825C41.3875 36.2275 40.635 36.55 39.775 36.55H9.675ZM9.675 33.325H39.775V3.225H9.675V33.325ZM3.225 43C2.365 43 1.6125 42.6775 0.9675 42.0325C0.3225 41.3875 0 40.635 0 39.775V6.45H3.225V39.775H36.55V43H3.225Z" fill="white"/>
</svg>
