<?xml version="1.0" encoding="utf-8"?>
<!-- Generator: Adobe Illustrator 26.0.3, SVG Export Plug-In . SVG Version: 6.00 Build 0)  -->
<svg version="1.1" id="Layer_1" xmlns="http://www.w3.org/2000/svg" xmlns:xlink="http://www.w3.org/1999/xlink" x="0px" y="0px"
	 viewBox="0 0 800 800" style="enable-background:new 0 0 800 800;" xml:space="preserve">
<style type="text/css">
	.st0{fill:#FFFFFF;}
</style>
<g id="cctv">
</g>
<g id="smartlamp">
	<g>
		<path class="st0" d="M390,100c-111.2,5-200,96.2-202.5,206.2c-1.2,67.5,28.7,132.5,82.5,173.8c26.2,21.2,42.5,53.7,42.5,88.7v6.2
			c0,7.5,5,12.5,12.5,12.5V625c-7.5,0-12.5,5-12.5,12.5s5,12.5,12.5,12.5v25c0,16.2,10,30,25,35v2.5c0,27.5,22.5,50,50,50
			s50-22.5,50-50V710c15-5,25-18.8,25-35v-25c7.5,0,12.5-5,12.5-12.5s-5-12.5-12.5-12.5v-37.5c7.5,0,12.5-5,12.5-12.5v-5
			c0-35,16.2-68.8,46.2-91.2c50-41.2,78.8-101.2,78.8-166.2c0-58.8-23.8-113.8-66.2-153.8S448.8,97.5,390,100z M400,737.5
			c-13.8,0-25-11.2-25-25h50C425,726.2,413.7,737.5,400,737.5z M450,675c0,7.5-5,12.5-12.5,12.5h-75c-7.5,0-12.5-5-12.5-12.5v-25
			h100V675z M450,625H350v-37.5h100V625z M400,387.5c-7.5,0-12.5-5-12.5-12.5s5-12.5,12.5-12.5c7.5,0,12.5,5,12.5,12.5
			S407.5,387.5,400,387.5z M517.5,458.8c-32.5,26.2-52.5,63.8-55,103.8l0,0h-50V410c15-5,25-18.8,25-35c0-21.2-16.2-37.5-37.5-37.5
			s-37.5,16.2-37.5,37.5c0,16.2,10,30,25,35v152.5h-50l0,0C335,522.5,316.2,485,285,460c-47.5-37.5-73.8-92.5-72.5-153.8
			c2.5-97.5,81.2-177.5,178.8-182.5C442.5,121.2,492.5,140,530,175c36.2,37.5,57.5,86.2,57.5,137.5
			C587.5,370,562.5,422.5,517.5,458.8z"/>
		<path class="st0" d="M400,287.5c-22.5,0-43.8,8.8-58.8,23.8c-5,5-5,12.5,0,17.5s12.5,5,17.5,0c11.2-11.2,26.2-16.2,42.5-16.2
			c16.2,0,31.2,6.2,42.5,16.2c2.5,2.5,5,3.7,8.8,3.7c3.8,0,6.2-1.2,8.8-3.7c5-5,5-12.5,0-17.5C443.8,296.2,422.5,287.5,400,287.5z"
			/>
		<path class="st0" d="M400,237.5c-35,0-67.5,12.5-93.8,36.2c-5,5-5,12.5-1.2,17.5c5,5,12.5,5,17.5,1.2c21.2-18.8,47.5-30,76.2-30
			c28.8,0,55,11.2,76.2,30c2.5,2.5,5,3.8,8.8,3.8c3.8,0,6.2-1.3,8.8-3.8c5-5,5-12.5-1.2-17.5C467.5,250,435,237.5,400,237.5z"/>
		<path class="st0" d="M400,187.5c-47.5,0-92.5,17.5-127.5,50c-5,5-5,12.5-1.2,17.5c5,5,12.5,5,17.5,1.2c30-27.5,68.8-43.8,110-43.8
			s80,15,110,43.8c2.5,2.5,5,3.8,8.8,3.8c3.7,0,6.2-1.2,8.8-3.8c5-5,5-12.5-1.2-17.5C492.5,205,447.5,187.5,400,187.5z"/>
		<path class="st0" d="M400,87.5c7.5,0,12.5-5,12.5-12.5V50c0-7.5-5-12.5-12.5-12.5s-12.5,5-12.5,12.5v25
			C387.5,82.5,392.5,87.5,400,87.5z"/>
		<path class="st0" d="M662.5,300h-25c-7.5,0-12.5,5-12.5,12.5s5,12.5,12.5,12.5h25c7.5,0,12.5-5,12.5-12.5S670,300,662.5,300z"/>
		<path class="st0" d="M162.5,300h-25c-7.5,0-12.5,5-12.5,12.5s5,12.5,12.5,12.5h25c7.5,0,12.5-5,12.5-12.5S170,300,162.5,300z"/>
		<path class="st0" d="M567.5,157.5c3.8,0,6.2-1.2,8.8-3.8l17.5-17.5c5-5,5-12.5,0-17.5c-5-5-12.5-5-17.5,0l-17.5,17.5
			c-5,5-5,12.5,0,17.5C561.2,156.2,565,157.5,567.5,157.5z"/>
		<path class="st0" d="M223.8,471.2l-17.5,17.5c-5,5-5,12.5,0,17.5c2.5,2.5,6.2,3.7,8.8,3.7c2.5,0,6.2-1.2,8.8-3.7l17.5-17.5
			c5-5,5-12.5,0-17.5C236.3,466.2,227.5,466.2,223.8,471.2z"/>
		<path class="st0" d="M576.2,471.2c-5-5-12.5-5-17.5,0c-5,5-5,12.5,0,17.5l17.5,17.5c2.5,2.5,6.2,3.7,8.8,3.7s6.2-1.2,8.8-3.7
			c5-5,5-12.5,0-17.5L576.2,471.2z"/>
		<path class="st0" d="M223.8,153.8c2.5,2.5,6.2,3.8,8.8,3.8c2.5,0,6.2-1.2,8.8-3.8c5-5,5-12.5,0-17.5l-17.5-17.5
			c-5-5-12.5-5-17.5,0c-5,5-5,12.5,0,17.5L223.8,153.8z"/>
	</g>
</g>
<g id="headphone">
</g>
<g id="headset">
</g>
<g id="mouse">
</g>
<g id="wireless_chip">
</g>
<g id="gamepad">
</g>
<g id="wireless_charge">
</g>
<g id="camera">
</g>
<g id="printer">
</g>
<g id="laptop">
</g>
<g id="smartphone">
</g>
<g id="smartwatch">
</g>
<g id="speaker">
</g>
<g id="drone">
</g>
<g id="smart_plug">
</g>
<g id="router">
</g>
<g id="smart_lock">
</g>
<g id="air_conditioner">
</g>
<g id="smartglasses">
</g>
</svg>
