<?xml version="1.0" standalone="no"?>
<!DOCTYPE svg PUBLIC "-//W3C//DTD SVG 20010904//EN"
 "http://www.w3.org/TR/2001/REC-SVG-20010904/DTD/svg10.dtd">
<svg version="1.0" xmlns="http://www.w3.org/2000/svg"
 width="828.000000pt" height="375.000000pt" viewBox="0 0 828.000000 375.000000"
 preserveAspectRatio="xMidYMid meet">

<g transform="translate(0.000000,375.000000) scale(0.100000,-0.100000)"
fill="#000000" stroke="none">
<path d="M6200 3664 c-14 -2 -63 -9 -110 -15 -86 -12 -173 -29 -245 -49 -22
-7 -52 -14 -68 -17 -15 -3 -30 -9 -33 -14 -3 -5 -18 -9 -35 -9 -16 0 -29 -4
-29 -10 0 -5 -9 -10 -19 -10 -11 0 -23 -4 -26 -10 -3 -5 -17 -10 -31 -10 -13
0 -24 -4 -24 -10 0 -5 -9 -10 -19 -10 -11 0 -21 -3 -23 -7 -1 -5 -27 -19 -55
-32 -29 -14 -53 -28 -53 -33 0 -4 -9 -8 -19 -8 -11 0 -21 -3 -23 -8 -1 -4 -26
-22 -54 -40 -28 -18 -64 -44 -80 -57 -16 -14 -33 -25 -37 -25 -14 0 -287 -278
-287 -292 0 -8 -9 -20 -20 -28 -11 -8 -20 -18 -20 -22 0 -4 -22 -41 -49 -83
-28 -42 -53 -85 -56 -95 -4 -11 -11 -20 -16 -20 -5 0 -9 -8 -9 -17 0 -10 -9
-33 -20 -51 -11 -18 -20 -39 -20 -47 0 -8 -4 -15 -10 -15 -5 0 -10 -13 -10
-30 0 -16 -4 -30 -10 -30 -5 0 -10 -13 -10 -30 0 -16 -4 -30 -10 -30 -5 0 -10
-11 -10 -24 0 -14 -4 -28 -10 -31 -5 -3 -10 -19 -10 -34 0 -15 -4 -31 -9 -36
-5 -6 -11 -28 -14 -50 -4 -22 -11 -65 -17 -95 -13 -65 -23 -196 -18 -230 3
-19 8 -11 22 35 11 33 22 65 26 70 4 6 13 31 21 58 7 26 17 47 21 47 4 0 8 9
8 20 0 11 5 20 10 20 6 0 10 14 10 30 0 17 5 30 10 30 6 0 10 9 10 19 0 11 5
23 10 26 6 3 10 15 10 26 0 10 5 19 10 19 6 0 10 7 10 15 0 19 126 262 145
282 8 7 17 22 20 33 3 11 11 20 16 20 5 0 9 7 9 15 0 8 5 15 10 15 6 0 10 7
10 15 0 8 5 15 10 15 6 0 10 7 10 15 0 8 5 15 10 15 6 0 10 5 10 11 0 6 6 16
13 23 6 7 26 31 42 52 54 69 237 244 255 244 6 0 10 5 10 10 0 6 7 10 15 10 8
0 15 5 15 10 0 6 7 10 15 10 8 0 15 5 15 10 0 6 7 10 15 10 8 0 15 5 15 10 0
6 7 10 15 10 8 0 15 5 15 10 0 6 9 10 20 10 11 0 20 3 20 8 0 4 15 13 33 21
17 7 56 24 86 37 49 23 102 40 206 66 22 6 66 12 98 15 31 3 57 9 57 14 0 13
384 5 465 -9 141 -24 288 -70 405 -125 36 -17 67 -35 68 -39 2 -4 12 -8 23 -8
10 0 19 -4 19 -10 0 -5 9 -10 20 -10 11 0 20 -4 20 -8 0 -5 12 -15 28 -23 15
-8 29 -16 32 -19 3 -3 23 -18 45 -35 22 -16 66 -55 97 -87 31 -32 60 -58 63
-58 10 0 47 -43 105 -120 14 -18 31 -39 38 -46 6 -7 12 -20 12 -28 0 -9 5 -16
10 -16 6 0 10 -9 10 -20 0 -11 5 -20 10 -20 6 0 10 -7 10 -15 0 -8 5 -15 10
-15 6 0 10 -9 10 -20 0 -11 -4 -20 -10 -20 -5 0 -10 5 -10 10 0 11 -27 42
-126 143 -60 60 -77 75 -125 107 -12 8 -32 25 -45 38 -13 12 -28 22 -34 22 -5
0 -10 5 -10 10 0 6 -9 10 -19 10 -11 0 -22 6 -24 13 -3 6 -6 -40 -7 -103 -1
-104 -4 -145 -26 -302 -4 -27 -11 -48 -15 -48 -5 0 -9 -18 -9 -40 0 -22 -4
-40 -10 -40 -5 0 -10 -13 -10 -30 0 -16 -4 -30 -10 -30 -5 0 -10 -16 -10 -35
0 -19 -4 -35 -10 -35 -5 0 -10 -9 -10 -20 0 -11 -4 -20 -10 -20 -5 0 -10 -13
-10 -30 0 -16 -4 -30 -10 -30 -5 0 -10 -9 -10 -20 0 -11 -4 -20 -10 -20 -5 0
-10 -8 -10 -18 0 -10 -9 -24 -20 -32 -11 -8 -20 -20 -20 -27 0 -7 -5 -22 -12
-32 -10 -17 -7 -24 20 -49 18 -17 32 -38 32 -47 0 -24 19 -56 52 -87 15 -14
28 -32 28 -40 0 -7 8 -18 18 -24 10 -7 27 -41 37 -78 18 -64 20 -66 52 -66 18
0 33 5 33 10 0 6 7 10 15 10 8 0 15 5 15 10 0 6 7 10 15 10 9 0 27 11 41 25
14 14 29 25 34 25 6 0 10 7 10 15 0 8 5 15 10 15 6 0 10 5 10 11 0 6 13 23 29
38 36 33 63 85 55 105 -3 9 -1 16 5 16 6 0 11 17 11 40 0 25 -5 40 -12 40 -16
0 -63 40 -71 60 -4 11 -6 9 -6 -5 -2 -46 -91 -80 -91 -35 0 11 -4 20 -10 20
-5 0 -24 16 -42 36 -18 20 -39 43 -45 50 -17 17 -16 32 1 50 20 20 23 19 66
-26 21 -22 45 -40 53 -40 9 0 18 -6 21 -12 5 -10 7 -10 12 0 7 14 54 16 54 2
0 -6 30 -10 70 -10 40 0 70 4 70 10 0 6 9 10 20 10 13 0 20 -7 20 -18 0 -10
11 -24 24 -31 13 -7 29 -24 35 -38 9 -20 14 -23 25 -14 11 9 19 -5 41 -76 16
-49 32 -92 37 -97 4 -6 8 -25 8 -43 0 -18 5 -33 10 -33 6 0 10 -14 10 -31 0
-17 7 -37 15 -45 13 -14 17 -13 32 2 13 13 14 19 5 22 -8 2 -12 25 -12 63 0
33 -4 59 -10 59 -6 0 -10 52 -10 135 0 83 4 135 10 135 6 0 10 -16 10 -35 0
-19 4 -35 9 -35 14 0 22 -123 23 -315 0 -185 -9 -295 -23 -295 -5 0 -9 -18 -9
-40 0 -22 -4 -40 -10 -40 -5 0 -10 -11 -10 -24 0 -14 -4 -28 -10 -31 -5 -3
-10 -17 -10 -31 0 -13 -4 -24 -10 -24 -5 0 -10 -12 -10 -26 0 -14 -7 -32 -15
-40 -8 -9 -18 -27 -22 -42 -3 -14 -10 -31 -15 -37 -14 -16 -78 -127 -78 -134
0 -4 -9 -13 -20 -21 -11 -8 -20 -20 -20 -27 0 -7 -17 -31 -37 -53 -77 -84
-172 -180 -178 -180 -3 0 -24 -18 -46 -40 -23 -22 -48 -40 -55 -40 -8 0 -14
-3 -14 -7 0 -17 -222 -143 -251 -143 -11 0 -19 -4 -19 -10 0 -5 -11 -10 -25
-10 -14 0 -25 -4 -25 -10 0 -5 -13 -10 -30 -10 -16 0 -30 -4 -30 -10 0 -5 -13
-10 -30 -10 -16 0 -30 -4 -30 -10 0 -5 -17 -10 -38 -10 -21 0 -42 -4 -47 -9
-35 -33 -571 -32 -591 0 -3 5 -21 9 -40 9 -19 0 -34 5 -34 10 0 6 -18 10 -40
10 -22 0 -40 5 -40 10 0 6 -11 10 -25 10 -14 0 -25 5 -25 10 0 6 -13 10 -30
10 -16 0 -30 5 -30 10 0 6 -9 10 -20 10 -11 0 -20 5 -20 10 0 6 -9 10 -20 10
-11 0 -20 5 -20 10 0 6 -9 10 -20 10 -11 0 -20 5 -20 10 0 6 -4 10 -10 10 -5
0 -32 13 -58 30 l-49 30 -2672 0 -2671 0 0 -295 0 -295 3124 0 c3112 0 3125 0
3233 21 59 11 122 24 138 29 17 5 50 14 75 20 25 7 54 16 65 20 11 4 55 19 97
31 43 13 78 27 78 32 0 4 11 7 25 7 14 0 25 5 25 10 0 6 11 10 24 10 13 0 26
4 28 8 2 4 36 23 76 42 39 18 72 36 72 40 0 3 25 19 55 35 30 15 55 32 55 37
0 4 6 8 14 8 7 0 27 14 44 30 18 17 37 30 43 30 13 0 289 274 289 286 0 5 11
22 25 38 13 16 39 52 57 80 18 28 37 56 43 62 6 6 19 30 29 53 11 22 23 41 28
41 4 0 8 9 8 20 0 11 5 20 10 20 6 0 10 11 10 25 0 14 5 25 10 25 6 0 10 9 10
20 0 11 4 20 8 20 5 0 15 22 22 50 7 27 17 50 22 50 4 0 8 14 8 30 0 17 5 30
10 30 6 0 10 13 10 29 0 17 4 32 9 35 4 3 11 20 14 38 4 18 13 62 22 98 22 95
45 302 45 401 0 169 -29 375 -70 506 -11 34 -20 71 -20 83 0 11 -4 20 -10 20
-5 0 -10 9 -10 20 0 11 -4 29 -10 40 -5 11 -14 29 -20 40 -5 11 -10 27 -10 35
0 8 -4 15 -10 15 -5 0 -10 9 -10 20 0 11 -4 20 -10 20 -5 0 -10 9 -10 20 0 11
-4 20 -10 20 -5 0 -10 9 -10 20 0 11 -4 20 -10 20 -5 0 -10 4 -10 10 0 12 -86
147 -106 168 -8 7 -14 17 -14 22 0 5 -20 30 -45 54 -25 25 -45 48 -45 51 0 7
-108 115 -115 115 -3 0 -24 18 -46 40 -23 22 -47 40 -53 40 -6 0 -18 9 -26 20
-8 11 -19 20 -25 20 -6 0 -20 8 -31 18 -26 22 -48 36 -109 68 -27 15 -51 30
-53 35 -2 5 -12 9 -23 9 -10 0 -19 5 -19 10 0 6 -9 10 -20 10 -11 0 -20 5 -20
10 0 6 -13 10 -30 10 -16 0 -30 5 -30 10 0 6 -11 10 -25 10 -14 0 -25 5 -25
10 0 6 -11 10 -24 10 -14 0 -28 5 -31 10 -3 6 -19 10 -36 10 -16 0 -29 4 -29
9 0 5 -15 11 -32 14 -18 3 -53 10 -78 16 -127 31 -220 42 -400 46 -107 2 -206
2 -220 -1z m-5660 -3176 l0 -48 38 0 c51 0 62 -14 62 -77 0 -29 5 -53 10 -53
6 0 10 -9 10 -20 0 -17 -7 -20 -45 -20 l-46 0 7 50 c8 59 1 82 -22 73 -12 -4
-15 -16 -12 -47 3 -23 8 -49 12 -58 7 -16 2 -18 -48 -18 -31 0 -56 5 -56 10 0
6 5 10 10 10 6 0 10 42 10 105 l0 105 -30 0 -30 0 0 -105 c0 -63 4 -105 10
-105 6 0 10 -4 10 -10 0 -6 -28 -10 -65 -10 -36 0 -65 3 -65 6 0 3 7 12 15 20
11 12 15 39 15 110 0 91 -1 94 -23 94 -12 0 -29 -9 -37 -20 -22 -30 -30 -24
-30 20 l0 40 134 0 c88 0 137 4 142 11 12 19 24 -13 24 -63z m1520 0 l0 -48
35 0 c78 0 116 -96 58 -146 -22 -19 -40 -24 -81 -24 -78 0 -82 7 -82 149 0
113 1 121 19 121 11 0 23 5 27 11 12 19 24 -13 24 -63z m2020 0 l0 -48 36 0
c38 0 64 -18 64 -44 0 -9 5 -16 10 -16 6 0 10 -9 10 -20 0 -11 -4 -20 -10 -20
-5 0 -10 -11 -10 -25 0 -18 -5 -25 -20 -25 -11 0 -20 -4 -20 -10 0 -6 -28 -10
-65 -10 l-65 0 0 135 c0 127 1 135 19 135 11 0 23 5 27 11 12 19 24 -13 24
-63z m-1650 3 l0 -60 35 6 c48 8 65 -9 65 -66 0 -55 23 -96 40 -71 6 8 9 38 8
65 -3 59 5 75 38 75 23 0 24 -3 24 -65 0 -37 4 -65 10 -65 6 0 10 -9 10 -20 0
-19 -7 -20 -155 -20 -142 0 -176 6 -144 25 6 5 10 47 9 114 -1 58 -1 111 -1
118 1 10 10 14 54 22 4 0 7 -26 7 -58z m640 -67 c0 -69 4 -114 10 -114 6 0 10
-9 10 -20 0 -18 -7 -20 -75 -20 -67 0 -79 3 -100 25 -54 53 -16 145 60 145 32
0 35 2 35 30 0 17 -4 30 -10 30 -5 0 -10 9 -10 19 0 14 8 21 28 23 51 7 52 4
52 -118z m-424 81 c14 -13 14 -17 0 -30 -31 -31 -75 -9 -60 30 4 8 15 15 26
15 11 0 26 -7 34 -15z m1994 1 c0 -29 -13 -46 -35 -46 -22 0 -35 17 -35 46 0
9 11 14 35 14 24 0 35 -5 35 -14z m-3829 -85 c31 -28 21 -55 -21 -59 -44 -4
-57 -16 -40 -37 14 -17 50 -21 50 -5 0 6 7 10 15 10 16 0 10 -26 -11 -47 -17
-18 -92 -16 -110 1 -9 9 -14 35 -14 70 0 46 3 56 20 61 11 3 20 11 20 16 0 17
70 10 91 -10z m291 2 c34 -31 18 -133 -21 -133 -6 0 -11 -4 -11 -10 0 -5 -13
-10 -30 -10 -26 0 -30 -3 -30 -29 0 -16 6 -32 13 -34 21 -9 -15 -27 -55 -27
-27 0 -38 4 -38 15 0 8 5 15 10 15 6 0 10 37 10 90 0 53 -4 90 -10 90 -14 0
-13 18 3 35 18 21 135 20 159 -2z m178 7 c0 -5 6 -10 13 -10 7 0 18 -15 25
-34 23 -62 -19 -116 -89 -116 -53 0 -89 34 -89 85 0 54 33 84 93 84 26 1 47
-3 47 -9z m230 -25 c0 -19 5 -35 10 -35 6 0 10 16 10 35 0 32 2 35 29 35 36 0
48 -15 27 -35 -8 -9 -27 -42 -42 -75 -15 -33 -31 -60 -37 -60 -14 0 -36 32
-37 53 0 21 -20 23 -20 2 0 -8 -4 -15 -10 -15 -5 0 -10 -9 -10 -20 0 -13 -7
-20 -18 -20 -13 0 -27 19 -46 61 -15 34 -34 68 -42 76 -25 26 -5 33 92 33 l94
0 0 -35z m216 21 c8 -8 14 -26 14 -40 0 -24 -4 -26 -40 -26 -33 0 -40 -3 -40
-20 0 -22 51 -42 58 -22 2 7 8 12 13 12 14 0 11 -30 -5 -46 -16 -16 -96 -19
-96 -4 0 6 -6 10 -14 10 -18 0 -26 22 -26 70 0 30 6 43 28 59 32 24 87 27 108
7z m164 -10 c0 -26 -20 -39 -45 -30 -12 5 -15 -2 -15 -34 0 -23 6 -45 15 -52
26 -22 16 -30 -38 -30 l-53 0 4 73 c2 39 9 78 14 85 6 7 33 12 64 12 50 0 54
-2 54 -24z m444 5 c27 -30 17 -55 -24 -59 -44 -4 -57 -16 -40 -37 14 -17 50
-21 50 -5 0 6 7 10 15 10 8 0 15 -9 15 -20 0 -11 -7 -20 -15 -20 -8 0 -15 -4
-15 -10 0 -15 -82 -12 -102 4 -13 10 -18 28 -18 69 0 47 3 57 20 62 11 3 20
11 20 16 0 18 76 10 94 -10z m514 -3 c6 -13 13 -43 15 -68 3 -25 8 -53 12 -62
7 -16 -2 -18 -94 -18 -94 0 -101 1 -101 20 0 11 5 20 10 20 14 0 13 87 -2 92
-9 3 -8 9 2 21 11 12 33 16 81 17 58 0 67 -2 77 -22z m432 13 c0 -6 -5 -13
-10 -16 -7 -4 -7 -13 0 -26 16 -30 30 -23 30 16 0 33 2 35 34 35 19 0 36 -5
38 -11 3 -9 9 -9 25 0 55 29 128 1 138 -53 8 -38 -9 -86 -30 -86 -8 0 -15 -4
-15 -10 0 -15 -89 -12 -104 3 -26 26 -38 60 -32 96 3 20 3 29 -1 21 -3 -8 -9
-17 -12 -20 -3 -3 -19 -33 -36 -67 -16 -35 -33 -63 -37 -63 -5 0 -8 -7 -8 -16
0 -9 -10 -25 -22 -35 -24 -22 -21 -21 -42 -13 -21 8 -21 44 0 44 35 0 62 68
34 85 -5 3 -10 17 -10 31 0 13 -4 24 -10 24 -5 0 -10 9 -10 20 0 11 -4 20 -10
20 -5 0 -10 7 -10 15 0 11 12 15 50 15 28 0 50 -4 50 -9z m360 -56 c0 -36 2
-65 4 -65 23 0 36 17 36 46 0 19 -4 34 -10 34 -5 0 -10 11 -10 25 0 23 4 25
40 25 l40 0 0 -61 c0 -55 13 -89 35 -89 4 0 5 27 4 59 -3 78 8 91 77 91 46 0
54 -3 54 -19 0 -24 -23 -43 -44 -35 -13 5 -16 -2 -16 -45 0 -28 5 -51 10 -51
6 0 10 -4 10 -10 0 -6 -55 -10 -145 -10 -142 0 -145 0 -149 23 -9 42 -14 135
-9 141 4 3 21 6 40 6 l33 0 0 -65z m642 3 c3 -52 6 -63 22 -66 18 -4 19 1 13
62 l-6 66 39 0 40 0 0 -65 c0 -37 4 -65 10 -65 6 0 10 5 10 10 0 6 9 10 20 10
11 0 20 -7 20 -15 0 -8 5 -15 10 -15 17 0 11 25 -10 40 -14 10 -20 26 -20 51
0 41 11 49 64 49 l33 0 6 -67 c6 -58 4 -69 -13 -85 -22 -21 -85 -24 -94 -5 -5
10 -7 10 -12 0 -8 -19 -161 -18 -180 1 -9 10 -14 37 -14 85 l0 71 30 0 c29 0
29 -1 32 -62z m358 -13 c0 -68 2 -75 20 -75 18 0 20 7 20 69 0 79 2 81 87 81
71 0 83 -12 83 -89 0 -34 4 -61 10 -61 6 0 10 -4 10 -10 0 -6 -60 -10 -160
-10 -147 0 -181 6 -149 25 6 4 10 30 8 59 -2 68 7 86 42 86 l29 0 0 -75z m383
55 l22 -21 9 21 c7 16 18 20 58 20 l50 0 -2 -37 c-3 -62 -1 -73 16 -73 8 0 22
-7 30 -15 20 -19 34 -19 34 0 0 8 -9 15 -20 15 -11 0 -20 7 -20 15 0 8 -4 15
-10 15 -15 0 -12 50 5 66 10 10 29 14 57 12 38 -3 43 -6 46 -30 3 -22 0 -26
-17 -21 -12 3 -21 9 -21 14 0 5 -5 9 -11 9 -8 0 -8 -5 1 -15 7 -8 18 -15 25
-15 27 0 35 -72 11 -96 -8 -8 -34 -14 -60 -14 -39 0 -46 3 -46 20 0 11 -4 20
-8 20 -4 0 -14 -9 -22 -20 -11 -15 -26 -20 -57 -20 -24 0 -43 5 -43 10 0 6 -9
10 -20 10 -11 0 -20 -4 -20 -10 0 -14 -89 -12 -103 3 -29 30 -41 68 -29 87 7
11 12 24 12 30 0 42 94 55 133 20z"/>
<path d="M2067 393 c-12 -11 -8 -70 6 -81 31 -26 55 39 27 73 -14 16 -23 19
-33 8z"/>
<path d="M4080 357 c0 -51 25 -73 39 -35 11 30 -1 72 -22 76 -14 3 -17 -5 -17
-41z"/>
<path d="M2430 350 c0 -27 2 -50 4 -50 2 0 11 -3 20 -6 13 -5 16 3 16 50 0 49
-2 56 -20 56 -17 0 -20 -7 -20 -50z"/>
<path d="M2963 395 c-27 -31 -2 -94 32 -81 19 7 20 63 1 82 -17 17 -18 17 -33
-1z"/>
<path d="M1010 357 c0 -48 5 -58 26 -50 20 7 19 79 -2 87 -24 9 -24 9 -24 -37z"/>
<path d="M1213 403 c-20 -7 -17 -89 3 -97 16 -6 43 18 44 40 0 13 -24 64 -30
63 -3 0 -11 -3 -17 -6z"/>
<path d="M1410 390 c0 -11 5 -20 10 -20 6 0 10 9 10 20 0 11 -4 20 -10 20 -5
0 -10 -9 -10 -20z"/>
<path d="M2766 393 c-9 -9 -7 -103 2 -103 30 0 47 92 18 103 -8 3 -17 3 -20 0z"/>
<path d="M3430 360 c0 -43 3 -50 20 -50 17 0 20 7 20 44 0 40 -11 56 -36 56
-2 0 -4 -22 -4 -50z"/>
<path d="M4490 390 c0 -5 5 -10 10 -10 6 0 10 5 10 10 0 6 -4 10 -10 10 -5 0
-10 -4 -10 -10z"/>
<path d="M4747 393 c-9 -8 -9 -66 -1 -87 3 -9 12 -16 20 -16 10 0 14 15 14 55
0 39 -4 55 -13 55 -8 0 -17 -3 -20 -7z"/>
<path d="M5114 395 c8 -8 18 -15 22 -15 3 0 1 7 -6 15 -7 8 -17 15 -22 15 -5
0 -3 -7 6 -15z"/>
<path d="M5030 370 c-8 -5 -28 -10 -45 -10 -29 0 -75 -20 -47 -20 6 0 12 -7
12 -16 0 -12 6 -15 25 -10 14 3 36 9 50 12 17 4 32 1 44 -10 10 -9 21 -13 24
-9 11 10 8 23 -4 23 -12 0 -34 20 -40 37 -3 8 -9 9 -19 3z"/>
<path d="M6733 1985 c-18 -19 -33 -40 -33 -46 0 -16 -174 -189 -190 -189 -6 0
-25 -13 -40 -30 -15 -16 -34 -30 -40 -30 -7 0 -20 -8 -29 -18 -22 -24 -95 -72
-109 -72 -7 0 -12 -4 -12 -10 0 -5 -9 -10 -20 -10 -11 0 -20 -4 -20 -10 0 -5
-9 -10 -20 -10 -11 0 -20 -4 -20 -10 0 -5 -9 -10 -20 -10 -11 0 -20 -4 -20
-10 0 -5 -9 -10 -20 -10 -11 0 -20 -4 -20 -10 0 -5 -16 -10 -35 -10 -19 0 -35
-4 -35 -10 0 -5 -13 -10 -30 -10 -16 0 -30 -4 -30 -10 0 -5 -18 -10 -40 -10
-22 0 -40 -4 -40 -10 0 -5 -13 -10 -30 -10 -16 0 -30 -4 -30 -10 0 -5 23 -10
50 -10 28 0 50 -4 50 -10 0 -5 9 -10 20 -10 19 0 27 -27 21 -70 -1 -8 -3 -24
-4 -35 0 -11 -9 -28 -20 -37 -21 -19 -25 -12 59 -101 17 -18 37 -47 45 -65 7
-18 17 -32 21 -32 5 0 8 -18 8 -40 0 -22 5 -40 10 -40 19 0 11 -66 -10 -85
-31 -28 -28 -107 5 -143 14 -15 32 -34 40 -43 8 -9 15 -25 15 -37 0 -12 5 -22
10 -22 6 0 10 -5 10 -11 0 -12 38 -49 50 -49 4 0 15 -16 26 -35 l19 -35 107 0
c65 0 108 4 108 10 0 6 7 10 15 10 17 0 52 18 73 37 7 7 16 13 20 13 15 0 62
48 62 64 0 9 7 16 15 16 8 0 26 5 40 12 20 9 25 18 25 45 0 37 19 63 44 63 9
0 16 4 16 9 0 5 15 16 34 25 19 9 48 29 65 45 28 26 31 35 31 89 0 39 -4 62
-12 65 -10 4 -9 8 2 16 13 10 13 12 1 20 -12 8 -12 12 -2 25 9 11 10 16 2 16
-6 0 -11 11 -11 25 0 14 5 25 10 25 6 0 10 9 10 20 0 11 5 20 10 20 6 0 10 7
10 15 0 9 19 36 43 60 23 25 65 70 92 101 28 30 60 66 73 79 12 13 22 31 22
40 0 8 5 15 10 15 6 0 10 16 10 35 0 19 5 35 10 35 6 0 10 11 10 24 0 14 5 28
10 31 6 3 10 24 10 46 0 21 -4 39 -10 39 -5 0 -10 -4 -10 -10 0 -5 -12 -13
-27 -16 -16 -4 -35 -13 -43 -20 -9 -7 -35 -16 -58 -20 -35 -5 -42 -4 -42 10 0
9 -4 16 -10 16 -5 0 -10 7 -10 15 0 18 -64 85 -80 85 -16 0 -40 26 -40 43 0
18 -29 51 -52 60 -13 5 -18 17 -18 47 0 22 -4 40 -10 40 -5 0 -10 9 -10 20 0
13 -7 20 -20 20 -11 0 -20 5 -20 10 0 17 -14 10 -47 -25z"/>
<path d="M4930 1510 c0 -5 5 -10 10 -10 6 0 10 5 10 10 0 6 -4 10 -10 10 -5 0
-10 -4 -10 -10z"/>
<path d="M4950 1450 c0 -16 5 -30 10 -30 6 0 10 -12 10 -27 0 -16 7 -37 15
-47 8 -11 15 -26 15 -34 0 -7 7 -21 17 -30 15 -16 16 -15 9 13 -4 17 -11 46
-15 65 -12 55 -23 80 -32 80 -5 0 -9 9 -9 20 0 11 -4 20 -10 20 -5 0 -10 -13
-10 -30z"/>
<path d="M7140 1010 c0 -19 -83 -90 -105 -90 -9 0 -18 -8 -21 -17 -3 -10 -10
-26 -15 -35 -5 -10 -9 -26 -9 -36 0 -10 -9 -24 -20 -32 -14 -10 -20 -26 -20
-52 0 -21 5 -38 10 -38 6 0 10 5 10 10 0 6 7 10 15 10 20 0 65 44 65 64 0 8 3
16 8 18 10 4 62 75 62 85 0 4 9 19 20 33 20 26 27 90 10 90 -5 0 -10 -4 -10
-10z"/>
<path d="M268 878 c5 -65 14 -88 38 -88 17 0 19 16 3 25 -6 4 -9 31 -8 64 3
50 1 56 -17 59 -19 3 -20 -1 -16 -60z"/>
<path d="M389 933 c0 -5 0 -34 1 -65 1 -36 -3 -58 -9 -58 -6 0 -11 -6 -11 -12
1 -7 10 -2 20 11 15 17 20 38 20 77 0 30 -4 54 -10 54 -5 0 -10 -3 -11 -7z"/>
<path d="M495 865 c0 -68 2 -75 19 -73 16 3 18 12 18 73 0 61 -2 70 -18 73
-17 2 -19 -5 -19 -73z"/>
<path d="M572 931 c2 -7 7 -12 11 -12 12 1 9 15 -3 20 -7 2 -11 -2 -8 -8z"/>
<path d="M620 931 c0 -6 5 -13 10 -16 13 -8 13 -105 -1 -105 -5 0 -7 -5 -4
-11 4 -5 14 -9 23 -7 13 2 15 15 13 66 -2 41 1 62 9 62 6 0 8 5 5 10 -8 13
-55 13 -55 1z"/>
<path d="M725 865 c0 -71 1 -75 22 -75 12 0 25 5 28 10 3 6 1 10 -5 10 -8 0
-11 21 -9 63 2 55 1 62 -17 65 -17 2 -19 -4 -19 -73z"/>
<path d="M870 931 c0 -6 5 -13 10 -16 13 -8 13 -105 -1 -105 -5 0 -7 -5 -4
-11 4 -5 14 -9 23 -7 13 2 15 15 13 66 -2 41 1 62 9 62 6 0 8 5 5 10 -8 13
-55 13 -55 1z"/>
<path d="M950 925 c0 -8 5 -15 10 -15 6 0 10 7 10 15 0 8 -4 15 -10 15 -5 0
-10 -7 -10 -15z"/>
<path d="M1015 865 c0 -65 2 -75 18 -75 14 0 17 10 17 65 0 36 1 68 3 73 1 4
-7 8 -18 10 -18 3 -20 -3 -20 -73z"/>
<path d="M1084 928 c-5 -8 9 -12 34 -9 17 3 42 -24 42 -43 0 -9 5 -16 10 -16
6 0 10 -16 10 -35 0 -28 4 -35 20 -35 17 0 20 7 20 40 0 22 -4 40 -10 40 -5 0
-10 7 -10 15 0 8 -4 15 -10 15 -5 0 -10 9 -10 19 0 16 -7 19 -45 19 -25 -1
-48 -5 -51 -10z"/>
<path d="M1236 923 c-3 -10 -9 -24 -12 -30 -3 -7 -1 -13 5 -13 6 0 11 6 11 14
0 8 7 17 16 20 8 3 12 10 9 16 -9 15 -22 12 -29 -7z"/>
<path d="M1360 930 c-10 -6 -11 -10 -2 -10 7 0 12 -13 12 -30 0 -23 4 -30 20
-30 13 0 20 -7 20 -20 0 -11 5 -20 10 -20 6 0 10 -7 10 -15 0 -8 3 -15 6 -15
10 0 34 28 34 40 0 12 24 40 34 40 3 0 6 -18 6 -41 0 -32 3 -40 16 -37 12 2
16 18 17 76 2 67 0 73 -18 70 -16 -3 -27 -17 -61 -86 -5 -11 -32 15 -48 48
-20 41 -30 47 -56 30z"/>
<path d="M1632 908 c-7 -18 -18 -41 -23 -50 -5 -10 -9 -25 -9 -33 0 -8 -4 -15
-10 -15 -5 0 -10 -4 -10 -10 0 -5 7 -10 15 -10 8 0 15 9 15 19 0 26 15 34 46
27 15 -4 24 -14 24 -26 0 -13 7 -20 20 -20 11 0 20 7 20 15 0 8 -4 15 -10 15
-5 0 -10 11 -10 25 0 14 -4 25 -10 25 -5 0 -10 10 -10 23 0 21 -16 47 -30 47
-3 0 -11 -15 -18 -32z m28 -36 c0 -13 -12 -22 -22 -16 -10 6 -1 24 13 24 5 0
9 -4 9 -8z"/>
<path d="M1757 934 c-3 -3 -1 -18 4 -33 6 -14 8 -45 4 -68 -4 -28 -2 -43 4
-43 6 0 11 20 11 44 0 25 4 47 9 51 5 3 27 -17 48 -45 21 -27 44 -48 51 -47 9
1 14 25 16 75 3 74 2 79 -24 62 -10 -6 -11 -10 -2 -10 7 0 12 -14 12 -35 0
-19 -4 -35 -9 -35 -5 0 -27 20 -49 45 -37 42 -60 54 -75 39z"/>
<path d="M1994 915 c-3 -14 -10 -25 -15 -25 -5 0 -9 -11 -9 -25 0 -14 -4 -25
-10 -25 -5 0 -10 -11 -10 -25 0 -14 5 -25 10 -25 6 0 10 9 10 19 0 10 7 21 15
25 23 8 45 -4 45 -25 0 -14 7 -19 25 -19 14 0 25 2 25 5 0 3 -11 28 -25 57
-14 28 -25 60 -25 70 0 27 -29 22 -36 -7z m16 -50 c0 -8 -4 -15 -10 -15 -5 0
-10 7 -10 15 0 8 5 15 10 15 6 0 10 -7 10 -15z"/>
<path d="M2123 917 c-33 -33 -32 -91 3 -113 19 -13 28 -14 37 -5 8 8 8 11 0
11 -6 0 -16 12 -21 28 -11 34 4 82 26 82 15 0 15 2 2 10 -20 13 -21 12 -47
-13z"/>
<path d="M2220 934 c0 -7 27 -34 34 -34 13 0 5 28 -10 34 -19 7 -24 8 -24 0z"/>
<path d="M2305 865 c0 -70 1 -75 22 -75 19 0 21 4 16 36 -6 36 -6 37 25 32 27
-4 32 -1 31 16 0 12 -3 15 -6 9 -2 -7 -16 -13 -30 -13 -22 0 -24 4 -21 33 2
26 -1 33 -17 35 -18 3 -20 -3 -20 -73z"/>
<path d="M2390 930 c0 -5 5 -10 10 -10 6 0 10 5 10 10 0 6 -4 10 -10 10 -5 0
-10 -4 -10 -10z"/>
<path d="M2450 931 c0 -6 5 -11 10 -11 6 0 10 -11 10 -25 0 -14 -4 -25 -10
-25 -5 0 -10 -18 -10 -40 0 -22 5 -40 10 -40 6 0 10 18 10 40 0 22 3 40 6 40
9 0 28 -23 43 -52 18 -35 25 -35 39 -3 16 35 15 44 -5 39 -13 -3 -23 7 -38 38
-14 29 -27 44 -42 46 -13 2 -23 -1 -23 -7z"/>
<path d="M2593 913 c-16 -33 -17 -53 -3 -53 6 0 10 -16 10 -35 0 -28 4 -35 20
-35 18 0 20 7 20 65 0 36 1 68 3 73 1 4 -7 8 -18 10 -14 2 -24 -6 -32 -25z"/>
<path d="M2700 865 c0 -68 2 -75 20 -75 16 0 20 7 20 34 0 28 4 35 23 39 l22
4 -22 2 c-19 1 -23 7 -23 36 0 28 -4 35 -20 35 -18 0 -20 -7 -20 -75z"/>
<path d="M2780 930 c0 -5 5 -10 10 -10 6 0 10 5 10 10 0 6 -4 10 -10 10 -5 0
-10 -4 -10 -10z"/>
<path d="M2849 936 c-8 -8 3 -146 11 -146 5 0 6 23 3 50 -4 36 -2 50 6 50 7 0
34 -22 61 -50 27 -27 51 -50 54 -50 3 0 6 29 6 65 0 45 4 65 13 65 8 0 7 4 -3
10 -24 16 -33 12 -27 -12 7 -27 -2 -68 -14 -68 -5 0 -9 5 -9 10 0 28 -85 92
-101 76z"/>
<path d="M3035 930 c-3 -5 -1 -10 4 -10 6 0 11 5 11 10 0 6 -2 10 -4 10 -3 0
-8 -4 -11 -10z"/>
<path d="M3085 865 c0 -69 2 -75 19 -73 18 3 19 10 17 66 -2 46 1 62 11 62 19
0 -12 20 -32 20 -12 0 -15 -15 -15 -75z"/>
<path d="M3160 930 c0 -5 5 -10 10 -10 6 0 10 5 10 10 0 6 -4 10 -10 10 -5 0
-10 -4 -10 -10z"/>
<path d="M3280 936 c-3 -2 -4 -36 -2 -75 3 -62 6 -71 23 -71 15 0 19 7 19 36
0 31 3 36 20 31 11 -3 23 -1 26 4 3 5 -7 9 -21 9 -24 0 -26 3 -23 33 2 26 -1
33 -17 35 -12 2 -23 1 -25 -2z"/>
<path d="M3365 931 c-6 -11 9 -23 19 -14 9 9 7 23 -3 23 -6 0 -12 -4 -16 -9z"/>
<path d="M3432 921 c-26 -22 -30 -94 -8 -117 17 -16 46 -19 46 -4 0 6 -4 10
-10 10 -5 0 -10 25 -10 55 0 30 5 55 10 55 6 0 10 5 10 10 0 15 -15 12 -38 -9z"/>
<path d="M3517 934 c-3 -3 3 -15 14 -27 21 -23 25 -58 8 -89 -17 -32 1 -36 27
-5 30 35 30 64 0 100 -23 27 -37 33 -49 21z"/>
<path d="M3620 930 c0 -5 5 -12 10 -15 15 -9 13 -105 -2 -105 -9 0 -9 -3 -1
-11 19 -19 41 -4 36 25 -3 14 -3 26 0 26 15 0 37 -13 37 -22 0 -15 27 -38 44
-38 9 0 16 5 16 10 0 6 -4 10 -10 10 -5 0 -10 7 -10 15 0 8 -4 15 -10 15 -5 0
-10 7 -10 15 0 8 5 15 10 15 11 0 14 60 3 61 -60 6 -113 6 -113 -1z m80 -41
c0 -24 -3 -30 -16 -25 -9 3 -18 6 -20 6 -2 0 -4 11 -4 25 0 18 5 25 20 25 16
0 20 -7 20 -31z"/>
<path d="M3903 925 c-19 -21 -16 -41 10 -54 20 -10 20 -11 -10 -8 -29 3 -33 1
-33 -22 0 -19 3 -22 12 -13 15 15 48 16 48 1 0 -16 26 -39 44 -39 9 0 16 5 16
10 0 6 -4 10 -10 10 -5 0 -10 11 -10 25 0 14 -4 25 -10 25 -5 0 -10 12 -10 26
0 14 -6 32 -14 40 -17 17 -18 17 -33 -1z"/>
<path d="M4030 936 c-3 -2 -4 -36 -2 -75 3 -62 6 -71 23 -71 15 0 19 7 19 36
0 31 3 36 20 31 11 -3 23 -1 26 4 3 5 -7 9 -21 9 -24 0 -26 3 -23 33 2 26 -1
33 -17 35 -12 2 -23 1 -25 -2z"/>
<path d="M4115 931 c-6 -11 9 -23 19 -14 9 9 7 23 -3 23 -6 0 -12 -4 -16 -9z"/>
<path d="M4160 929 c0 -5 5 -9 10 -9 6 0 10 -25 10 -55 0 -36 -4 -55 -12 -55
-9 0 -9 -3 0 -12 8 -8 17 -8 34 0 13 6 17 11 11 11 -11 1 -20 41 -9 41 14 0
36 -14 36 -22 0 -15 27 -38 44 -38 9 0 16 5 16 10 0 6 -4 10 -9 10 -14 0 -22
46 -12 73 5 13 6 29 1 36 -9 15 -120 24 -120 10z m87 -29 c4 -23 -12 -41 -30
-34 -10 3 -17 17 -17 31 0 20 4 24 22 21 13 -2 24 -10 25 -18z"/>
<path d="M4350 938 c-1 -2 -2 -36 -3 -76 -2 -66 0 -72 18 -72 18 0 20 7 20 75
0 65 -2 75 -17 75 -10 0 -18 -1 -18 -2z"/>
<path d="M4452 921 c-26 -22 -30 -94 -8 -117 17 -16 46 -19 46 -4 0 6 -4 10
-10 10 -5 0 -10 25 -10 55 0 43 3 55 16 55 8 0 12 5 9 10 -9 14 -19 12 -43 -9z"/>
<path d="M4550 930 c0 -5 7 -10 16 -10 8 0 12 5 9 10 -3 6 -10 10 -16 10 -5 0
-9 -4 -9 -10z"/>
<path d="M4660 920 c0 -11 -4 -20 -10 -20 -5 0 -10 -11 -10 -25 0 -14 -4 -25
-10 -25 -5 0 -10 -9 -10 -20 0 -22 -25 -28 -33 -7 -4 10 -6 10 -6 0 -1 -7 -8
-13 -17 -13 -31 0 -4 -17 29 -18 27 -1 36 4 45 23 7 14 16 25 21 25 23 0 41
-14 41 -31 0 -12 7 -19 20 -19 13 0 20 7 20 20 0 11 -4 20 -10 20 -5 0 -10 11
-10 25 0 14 -4 25 -10 25 -5 0 -10 11 -10 24 0 13 -7 27 -16 30 -23 9 -24 8
-24 -14z m20 -55 c0 -8 -4 -15 -10 -15 -5 0 -10 7 -10 15 0 8 5 15 10 15 6 0
10 -7 10 -15z"/>
<path d="M438 923 c6 -2 18 -2 25 0 6 3 1 5 -13 5 -14 0 -19 -2 -12 -5z"/>
<path d="M2208 843 c6 -2 12 -16 12 -29 0 -37 36 -32 42 6 4 29 3 30 -31 29
-20 0 -30 -3 -23 -6z"/>
<path d="M820 800 c0 -5 4 -10 9 -10 6 0 13 5 16 10 3 6 -1 10 -9 10 -9 0 -16
-4 -16 -10z"/>
<path d="M1350 800 c0 -5 7 -10 15 -10 8 0 15 5 15 10 0 6 -7 10 -15 10 -8 0
-15 -4 -15 -10z"/>
<path d="M2410 800 c0 -5 5 -10 10 -10 6 0 10 5 10 10 0 6 -4 10 -10 10 -5 0
-10 -4 -10 -10z"/>
<path d="M2795 800 c3 -5 10 -10 16 -10 5 0 9 5 9 10 0 6 -7 10 -16 10 -8 0
-12 -4 -9 -10z"/>
<path d="M3850 800 c0 -5 5 -10 10 -10 6 0 10 5 10 10 0 6 -4 10 -10 10 -5 0
-10 -4 -10 -10z"/>
</g>
</svg>
