<svg width="50" height="50" viewBox="0 0 50 50" fill="none" xmlns="http://www.w3.org/2000/svg">
<g clip-path="url(#clip0_135_18)">
<path d="M46.53 40H3.46997C2.64154 40 1.96997 40.6805 1.96997 41.52V48.48C1.96997 49.3195 2.64154 50 3.46997 50H46.53C47.3584 50 48.03 49.3195 48.03 48.48V41.52C48.03 40.6805 47.3584 40 46.53 40Z" fill="black"/>
<path d="M20.02 13.0601H29.98C33.93 13.0601 37.53 14.6801 40.14 17.2901C42.75 19.9001 44.37 23.5001 44.37 27.4601V40.0001H40.62V27.4601C40.62 24.5301 39.42 21.8701 37.5 19.9401C35.57 18.0101 32.91 16.8101 29.98 16.8101H20.02C17.09 16.8101 14.43 18.0101 12.5 19.9301C10.57 21.8601 9.38 24.5301 9.38 27.4601V40.0001H5.62V27.4601C5.62 23.5001 7.24 19.9101 9.85 17.3001C12.47 14.6801 16.07 13.0601 20.02 13.0601Z" fill="#1E91FF"/>
<path d="M25 19.3999C26.41 25.6299 30.65 28.7499 30.65 31.8699C30.65 34.9899 29.24 38.0999 25 38.0999C20.76 38.0999 19.35 34.9899 19.35 31.8699C19.35 28.7499 23.59 25.6299 25 19.3999Z" fill="black"/>
</g>
<defs>
<clipPath id="clip0_135_18">
<rect width="50" height="50" fill="white"/>
</clipPath>
</defs>
</svg>
