<svg width="50" height="50" viewBox="0 0 50 50" fill="none" xmlns="http://www.w3.org/2000/svg">
<g clip-path="url(#clip0_135_36)">
<path d="M46.53 40H3.46997C2.64154 40 1.96997 40.6805 1.96997 41.52V48.48C1.96997 49.3195 2.64154 50 3.46997 50H46.53C47.3584 50 48.03 49.3195 48.03 48.48V41.52C48.03 40.6805 47.3584 40 46.53 40Z" fill="black"/>
<path d="M20.02 13.0601H29.98C33.93 13.0601 37.53 14.6801 40.14 17.2901C42.75 19.9001 44.37 23.5001 44.37 27.4601V40.0001H40.62V27.4601C40.62 24.5301 39.42 21.8701 37.5 19.9401C35.57 18.0101 32.91 16.8101 29.98 16.8101H20.02C17.09 16.8101 14.43 18.0101 12.5 19.9301C10.57 21.8601 9.38 24.5301 9.38 27.4601V40.0001H5.62V27.4601C5.62 23.5001 7.24 19.9101 9.85 17.3001C12.47 14.6801 16.07 13.0601 20.02 13.0601Z" fill="#FFCC00"/>
<path d="M25 19.8398C27.41 19.8398 29.59 20.8198 31.16 22.3998C32.74 23.9698 33.72 26.1498 33.72 28.5598C33.72 30.9698 32.74 33.1498 31.16 34.7198C29.59 36.2998 27.41 37.2798 25 37.2798C22.59 37.2798 20.41 36.2998 18.84 34.7198C17.26 33.1498 16.28 30.9698 16.28 28.5598C16.28 26.1498 17.26 23.9698 18.84 22.3998C20.41 20.8198 22.59 19.8398 25 19.8398Z" fill="black"/>
<path d="M25 19.8398C27.41 19.8398 29.59 20.8198 31.16 22.3998C32.74 23.9698 33.72 26.1498 33.72 28.5598C33.72 30.9698 32.74 33.1498 31.16 34.7198C29.59 36.2998 27.41 37.2798 25 37.2798C22.59 37.2798 20.41 36.2998 18.84 34.7198C17.26 33.1498 16.28 30.9698 16.28 28.5598C16.28 26.1498 17.26 23.9698 18.84 22.3998C20.41 20.8198 22.59 19.8398 25 19.8398Z" fill="black"/>
<path fill-rule="evenodd" clip-rule="evenodd" d="M25 28.5601V21.5801C28.85 21.5801 31.98 24.7101 31.98 28.5601C31.98 32.4101 28.85 35.5401 25 35.5401C21.15 35.5401 18.02 32.4101 18.02 28.5601H25Z" fill="#FFCC00"/>
<path fill-rule="evenodd" clip-rule="evenodd" d="M25 28.5601V21.5801C28.85 21.5801 31.98 24.7101 31.98 28.5601C31.98 32.4101 28.85 35.5401 25 35.5401C21.15 35.5401 18.02 32.4101 18.02 28.5601H25Z" fill="#FFCC00"/>
<path fill-rule="evenodd" clip-rule="evenodd" d="M25 28.5601L18.02 28.5401C18.03 24.7001 21.14 21.5901 24.99 21.5801L25 28.5601Z" fill="black"/>
<path fill-rule="evenodd" clip-rule="evenodd" d="M25 28.5601L18.02 28.5401C18.03 24.7001 21.14 21.5901 24.99 21.5801L25 28.5601Z" fill="black"/>
</g>
<defs>
<clipPath id="clip0_135_36">
<rect width="50" height="50" fill="white"/>
</clipPath>
</defs>
</svg>
