<svg width="50" height="50" viewBox="0 0 50 50" fill="none" xmlns="http://www.w3.org/2000/svg">
<g clip-path="url(#clip0_135_50)">
<path d="M46.54 40H3.46997C2.64154 40 1.96997 40.6805 1.96997 41.52V48.48C1.96997 49.3195 2.64154 50 3.46997 50H46.54C47.3684 50 48.04 49.3195 48.04 48.48V41.52C48.04 40.6805 47.3684 40 46.54 40Z" fill="black"/>
<path d="M20.02 13.0601H29.98C33.93 13.0601 37.53 14.6801 40.14 17.2901C42.75 19.9001 44.38 23.5001 44.38 27.4601V40.0001H40.62V27.4601C40.62 24.5301 39.43 21.8701 37.5 19.9401C35.57 18.0101 32.91 16.8101 29.98 16.8101H20.02C17.09 16.8101 14.43 18.0101 12.5 19.9301C10.57 21.8601 9.37 24.5301 9.37 27.4601V40.0001H5.62V27.4601C5.62 23.5001 7.24 19.9101 9.85 17.3001C12.47 14.6801 16.07 13.0601 20.02 13.0601Z" fill="#0046AB"/>
<path fill-rule="evenodd" clip-rule="evenodd" d="M29 18.9102C29.94 18.9102 30.84 19.0202 31.71 19.2202C27.1 20.3002 23.7 24.0602 23.7 28.5402C23.7 33.0102 27.1 36.7702 31.71 37.8502C30.84 38.0502 29.94 38.1602 29 38.1602C23.09 38.1602 18.29 33.8502 18.29 28.5402C18.29 23.2202 23.09 18.9102 29 18.9102Z" fill="black"/>
</g>
<defs>
<clipPath id="clip0_135_50">
<rect width="50" height="50" fill="white"/>
</clipPath>
</defs>
</svg>
