<svg width="50" height="50" viewBox="0 0 50 50" fill="none" xmlns="http://www.w3.org/2000/svg">
<g clip-path="url(#clip0_135_58)">
<path d="M46.53 40H3.46997C2.64154 40 1.96997 40.6805 1.96997 41.52V48.48C1.96997 49.3195 2.64154 50 3.46997 50H46.53C47.3584 50 48.03 49.3195 48.03 48.48V41.52C48.03 40.6805 47.3584 40 46.53 40Z" fill="black"/>
<path d="M20.0201 13.0601H29.9801C33.9301 13.0601 37.5301 14.6801 40.1401 17.2901C42.7501 19.9001 44.3701 23.5001 44.3701 27.4601V40.0001H40.6201V27.4601C40.6201 24.5301 39.4201 21.8701 37.5001 19.9401C35.5701 18.0101 32.9101 16.8101 29.9801 16.8101H20.0201C17.0901 16.8101 14.4301 18.0101 12.5001 19.9301C10.5701 21.8601 9.38012 24.5301 9.38012 27.4601V40.0001H5.62012V27.4601C5.62012 23.5001 7.24012 19.9101 9.85012 17.3001C12.4701 14.6801 16.0701 13.0601 20.0201 13.0601Z" fill="#6800A2"/>
<path d="M20.0201 13.0601H29.9801C33.9301 13.0601 37.5301 14.6801 40.1401 17.2901C42.7501 19.9001 44.3701 23.5001 44.3701 27.4601V40.0001H40.6201V27.4601C40.6201 24.5301 39.4201 21.8701 37.5001 19.9401C35.5701 18.0101 32.9101 16.8101 29.9801 16.8101H20.0201C17.0901 16.8101 14.4301 18.0101 12.5001 19.9301C10.5701 21.8601 9.38012 24.5301 9.38012 27.4601V40.0001H5.62012V27.4601C5.62012 23.5001 7.24012 19.9101 9.85012 17.3001C12.4701 14.6801 16.0701 13.0601 20.0201 13.0601Z" fill="#6800A2"/>
<path d="M14.8401 38.6699H35.1601L25.0001 24.6699L14.8401 38.6699Z" fill="black"/>
<path fill-rule="evenodd" clip-rule="evenodd" d="M29.6099 31.0299L24.9999 24.6699L20.3899 31.0299H29.6099Z" fill="#9959BE"/>
</g>
<defs>
<clipPath id="clip0_135_58">
<rect width="50" height="50" fill="white"/>
</clipPath>
</defs>
</svg>
