<svg width="50" height="50" viewBox="0 0 50 50" fill="none" xmlns="http://www.w3.org/2000/svg">
<g clip-path="url(#clip0_135_114)">
<path d="M46.53 40H3.46997C2.64154 40 1.96997 40.6805 1.96997 41.52V48.48C1.96997 49.3195 2.64154 50 3.46997 50H46.53C47.3584 50 48.03 49.3195 48.03 48.48V41.52C48.03 40.6805 47.3584 40 46.53 40Z" fill="black"/>
<path d="M20.02 13.06H29.98C33.93 13.06 37.53 14.68 40.14 17.29C42.75 19.9 44.37 23.5 44.37 27.46V40H40.62V27.46C40.62 24.53 39.42 21.87 37.49 19.94C35.57 18.01 32.91 16.81 29.98 16.81H20.02C17.09 16.81 14.43 18.01 12.5 19.93C10.57 21.86 9.37 24.53 9.37 27.46V40H5.62V27.46C5.62 23.5 7.24 19.91 9.85 17.3C12.47 14.68 16.07 13.06 20.02 13.06ZM0.439998 10.17C1.02 9.58 1.98 9.58 2.56 10.17L7.51 15.12C8.09 15.7 8.09 16.65 7.51 17.24C6.93 17.82 5.97 17.82 5.39 17.24L0.439998 12.29C-0.150002 11.7 -0.150002 10.75 0.439998 10.17ZM11.35 1.69C12.12 1.37 13 1.74 13.31 2.5L15.99 8.97C16.31 9.73 15.94 10.61 15.18 10.93C14.42 11.24 13.54 10.88 13.22 10.11L10.54 3.65C10.22 2.88 10.59 2 11.35 1.69ZM25 0C25.82 0 26.5 0.67 26.5 1.5V8.5C26.5 9.33 25.82 10 25 10C24.17 10 23.5 9.33 23.5 8.5V1.5C23.5 0.67 24.17 0 25 0ZM38.65 1.69C37.88 1.37 37 1.74 36.69 2.5L34.01 8.97C33.69 9.73 34.06 10.61 34.82 10.93C35.58 11.24 36.46 10.88 36.78 10.11L39.46 3.65C39.77 2.88 39.41 2 38.65 1.69ZM49.56 10.17C48.98 9.58 48.02 9.58 47.44 10.17L42.49 15.12C41.9 15.7 41.9 16.65 42.49 17.24C43.07 17.82 44.03 17.82 44.61 17.24L49.56 12.29C50.14 11.7 50.15 10.75 49.56 10.17Z" fill="#FF0000"/>
<path fill-rule="evenodd" clip-rule="evenodd" d="M29 18.9102C29.94 18.9102 30.84 19.0202 31.71 19.2202C27.1 20.3002 23.7 24.0602 23.7 28.5302C23.7 33.0102 27.1 36.7702 31.71 37.8502C30.84 38.0502 29.94 38.1602 29 38.1602C23.09 38.1602 18.29 33.8502 18.29 28.5302C18.29 23.2202 23.09 18.9102 29 18.9102Z" fill="black"/>
</g>
<defs>
<clipPath id="clip0_135_114">
<rect width="50" height="50" fill="white"/>
</clipPath>
</defs>
</svg>
