<svg width="50" height="50" viewBox="0 0 50 50" fill="none" xmlns="http://www.w3.org/2000/svg">
<g clip-path="url(#clip0_135_70)">
<path d="M46.53 40H3.46997C2.64154 40 1.96997 40.6805 1.96997 41.52V48.48C1.96997 49.3195 2.64154 50 3.46997 50H46.53C47.3584 50 48.03 49.3195 48.03 48.48V41.52C48.03 40.6805 47.3584 40 46.53 40Z" fill="black"/>
<path d="M20.0201 13.06H29.9801C33.9301 13.06 37.5301 14.68 40.1401 17.29C42.7501 19.9 44.3701 23.5 44.3701 27.46V40H40.6201V27.46C40.6201 24.53 39.4201 21.87 37.4901 19.94C35.5701 18.01 32.9101 16.81 29.9801 16.81H20.0201C17.0901 16.81 14.4301 18.01 12.5001 19.93C10.5701 21.86 9.37006 24.53 9.37006 27.46V40H5.62006V27.46C5.62006 23.5 7.24006 19.91 9.85006 17.3C12.4701 14.68 16.0701 13.06 20.0201 13.06ZM0.440059 10.17C1.02006 9.58 1.98006 9.58 2.56006 10.17L7.51006 15.12C8.09006 15.7 8.09006 16.65 7.51006 17.24C6.93006 17.82 5.97006 17.82 5.39006 17.24L0.440059 12.29C-0.149941 11.7 -0.149941 10.75 0.440059 10.17ZM11.3501 1.69C12.1201 1.37 13.0001 1.74 13.3101 2.5L15.9901 8.97C16.3101 9.73 15.9401 10.61 15.1801 10.93C14.4201 11.24 13.5401 10.88 13.2201 10.11L10.5401 3.65C10.2201 2.88 10.5901 2 11.3501 1.69ZM25.0001 0C25.8201 0 26.5001 0.67 26.5001 1.5V8.5C26.5001 9.33 25.8201 10 25.0001 10C24.1701 10 23.5001 9.33 23.5001 8.5V1.5C23.5001 0.67 24.1701 0 25.0001 0ZM38.6501 1.69C37.8801 1.37 37.0001 1.74 36.6901 2.5L34.0101 8.97C33.6901 9.73 34.0601 10.61 34.8201 10.93C35.5801 11.24 36.4601 10.88 36.7801 10.11L39.4601 3.65C39.7701 2.88 39.4101 2 38.6501 1.69ZM49.5601 10.17C48.9801 9.58 48.0201 9.58 47.4401 10.17L42.4901 15.12C41.9001 15.7 41.9001 16.65 42.4901 17.24C43.0701 17.82 44.0301 17.82 44.6101 17.24L49.5601 12.29C50.1401 11.7 50.1501 10.75 49.5601 10.17Z" fill="#FF0000"/>
<path d="M18.8701 26.6802H14.0601V36.9002H18.8701V26.6802Z" fill="black"/>
<path d="M27.4001 26.6802H22.5901V36.9002H27.4001V26.6802Z" fill="black"/>
<path d="M35.9401 22.77H31.1301V36.9H35.9401V22.77Z" fill="#FF0000"/>
</g>
<defs>
<clipPath id="clip0_135_70">
<rect width="50" height="50" fill="white"/>
</clipPath>
</defs>
</svg>
