<svg width="50" height="50" viewBox="0 0 50 50" fill="none" xmlns="http://www.w3.org/2000/svg">
<g clip-path="url(#clip0_135_89)">
<path d="M46.5301 40H3.47009C2.64167 40 1.97009 40.6805 1.97009 41.52V48.48C1.97009 49.3195 2.64167 50 3.47009 50H46.5301C47.3585 50 48.0301 49.3195 48.0301 48.48V41.52C48.0301 40.6805 47.3585 40 46.5301 40Z" fill="black"/>
<path d="M20.0201 13.06H29.9801C33.9301 13.06 37.5301 14.68 40.1401 17.29C42.7501 19.9 44.3701 23.5 44.3701 27.46V40H40.6201V27.46C40.6201 24.53 39.4201 21.87 37.4901 19.94C35.5701 18.01 32.9101 16.81 29.9801 16.81H20.0201C17.0901 16.81 14.4301 18.01 12.5001 19.93C10.5701 21.86 9.37006 24.53 9.37006 27.46V40H5.62006V27.46C5.62006 23.5 7.24006 19.91 9.85006 17.3C12.4701 14.68 16.0701 13.06 20.0201 13.06ZM0.440059 10.17C1.02006 9.58 1.98006 9.58 2.56006 10.17L7.51006 15.12C8.09006 15.7 8.09006 16.65 7.51006 17.24C6.93006 17.82 5.97006 17.82 5.39006 17.24L0.440059 12.29C-0.149941 11.7 -0.149941 10.75 0.440059 10.17ZM11.3501 1.69C12.1201 1.37 13.0001 1.74 13.3101 2.5L15.9901 8.97C16.3101 9.73 15.9401 10.61 15.1801 10.93C14.4201 11.24 13.5401 10.88 13.2201 10.11L10.5401 3.65C10.2201 2.88 10.5901 2 11.3501 1.69ZM25.0001 0C25.8201 0 26.5001 0.67 26.5001 1.5V8.5C26.5001 9.33 25.8201 10 25.0001 10C24.1701 10 23.5001 9.33 23.5001 8.5V1.5C23.5001 0.67 24.1701 0 25.0001 0ZM38.6501 1.69C37.8801 1.37 37.0001 1.74 36.6901 2.5L34.0101 8.97C33.6901 9.73 34.0601 10.61 34.8201 10.93C35.5801 11.24 36.4601 10.88 36.7801 10.11L39.4601 3.65C39.7701 2.88 39.4101 2 38.6501 1.69ZM49.5601 10.17C48.9801 9.58 48.0201 9.58 47.4401 10.17L42.4901 15.12C41.9001 15.7 41.9001 16.65 42.4901 17.24C43.0701 17.82 44.0301 17.82 44.6101 17.24L49.5601 12.29C50.1401 11.7 50.1501 10.75 49.5601 10.17Z" fill="#FF0000"/>
<path d="M25 29.4199C25.9 32.5599 28.6 34.1299 28.6 35.6899C28.6 37.2599 27.7 38.8299 25 38.8299C22.3 38.8299 21.4 37.2599 21.4 35.6899C21.4 34.1299 24.1 32.5599 25 29.4199Z" fill="#FF0000"/>
<path fill-rule="evenodd" clip-rule="evenodd" d="M12.25 23.2701H22.02V22.6401H24.72V29.0001C24.35 29.9001 23.84 30.6601 23.33 31.3301H22.02V30.6901H12.25V23.2701ZM37.75 23.2701H27.98V22.6401H25.28V29.0001C25.65 29.9001 26.16 30.6601 26.67 31.3301H27.98V30.6901H37.75V23.2701Z" fill="black"/>
</g>
<defs>
<clipPath id="clip0_135_89">
<rect width="50" height="50" fill="white"/>
</clipPath>
</defs>
</svg>
